<?xml version="1.0" encoding="UTF-8"?>
<svg width="19px" height="13px" viewBox="0 0 19 13" version="1.1" xmlns="http://www.w3.org/2000/svg" xmlns:xlink="http://www.w3.org/1999/xlink">
    <!-- Generator: Sketch 46.2 (44496) - http://www.bohemiancoding.com/sketch -->
    <title>MM</title>
    <desc>Created with Sketch.</desc>
    <defs></defs>
    <g id="Page-1" stroke="none" stroke-width="1" fill="none" fill-rule="evenodd">
        <g id="5-product" transform="translate(-165.000000, -606.000000)" fill="#00b956">
            <g id="share" transform="translate(18.000000, 597.000000)">
                <g id="MM" transform="translate(141.000000, 0.000000)">
                    <path d="M13.546043,10.6357918 C13.546043,11.5201347 12.8668857,12.2371647 12.0290859,12.2371647 C11.1914531,12.2371647 10.5122959,11.5201347 10.5122959,10.6357918 C10.5122959,9.75127265 11.1914531,9.03424266 12.0290859,9.03424266 C12.8668857,9.03424266 13.546043,9.75127265 13.546043,10.6357918 Z" id="Path"></path>
                    <path d="M20.1699551,10.6357918 C20.1699551,11.5201347 19.4909648,12.2371647 18.653165,12.2371647 C17.8155322,12.2371647 17.136375,11.5201347 17.136375,10.6357918 C17.136375,9.75127265 17.8155322,9.03424266 18.653165,9.03424266 C19.4909648,9.03424266 20.1699551,9.75127265 20.1699551,10.6357918 Z" id="Path"></path>
                    <path d="M22.4463292,18.4257348 C20.5250081,20.3332885 17.9813481,21.4090485 15.3223389,21.4090485 C12.6724899,21.4090485 10.1368329,20.3404503 8.21787508,18.4447879 L7.71033398,18.9806317 C7.51478613,19.1870841 7.25828613,19.2903985 7.00195312,19.2903985 C6.74562012,19.2903985 6.48912012,19.1870841 6.29357227,18.9806317 C5.90214258,18.5675505 5.90214258,17.89777 6.29357227,17.4846888 L8.55481348,15.097351 C8.94590918,14.6842698 9.58064648,14.6842698 9.97157518,15.097351 C10.3630049,15.5104322 10.3630049,16.1802126 9.97157518,16.5932938 L9.63581815,16.9477741 C11.1795543,18.4485887 13.2059131,19.2933957 15.3223389,19.2933957 C17.4479686,19.2933957 19.4825151,18.4414594 21.0284431,16.9287812 L20.7106758,16.5932938 C20.3192461,16.1802126 20.3192461,15.5104322 20.7106758,15.097351 C21.1017715,14.6842698 21.7365088,14.6842698 22.1274375,15.097351 L24.3886787,17.4846888 C24.7801084,17.89777 24.7801084,18.5675505 24.3886787,18.9806317 C24.1931309,19.1870841 23.9366309,19.2903985 23.6802979,19.2903985 C23.4239648,19.2903985 23.1674648,19.1870841 22.971917,18.9806317 L22.4463292,18.4257348 L22.4463292,18.4257348 Z" id="Path"></path>
                </g>
            </g>
        </g>
    </g>
</svg>
