<?xml version="1.0" encoding="utf-8"?>
<!-- Generator: Adobe Illustrator 16.0.0, SVG Export Plug-In . SVG Version: 6.00 Build 0)  -->
<!DOCTYPE svg PUBLIC "-//W3C//DTD SVG 1.1//EN" "http://www.w3.org/Graphics/SVG/1.1/DTD/svg11.dtd">
<svg version="1.1" id="Layer_1" xmlns="http://www.w3.org/2000/svg" xmlns:xlink="http://www.w3.org/1999/xlink" x="0px" y="0px"
	 width="156.123px" height="12.103px" viewBox="0 0 156.123 12.103" enable-background="new 0 0 156.123 12.103"
	 xml:space="preserve">
<path fill="#FFFFFF" d="M5.221,1.144v8.034h1.147v-9.1H0v9.1h1.147V1.144H5.221z"/>
<path fill="#FFFFFF" d="M12.757,8.431c0.568-0.603,0.852-1.354,0.852-2.255c0-0.893-0.284-1.64-0.852-2.243
	s-1.324-0.903-2.269-0.903c-0.953,0-1.712,0.299-2.275,0.897C7.65,4.524,7.369,5.274,7.369,6.175S7.65,7.828,8.214,8.431
	c0.563,0.602,1.322,0.903,2.275,0.903C11.433,9.334,12.19,9.033,12.757,8.431z M8.487,6.188c0-0.624,0.18-1.137,0.54-1.541
	c0.359-0.403,0.847-0.604,1.462-0.604s1.101,0.202,1.456,0.604c0.355,0.403,0.533,0.912,0.533,1.528c0,0.624-0.177,1.137-0.533,1.54
	c-0.355,0.403-0.841,0.604-1.456,0.604S9.386,8.119,9.026,7.715C8.667,7.312,8.487,6.803,8.487,6.188L8.487,6.188z"/>
<path fill="#FFFFFF" d="M19.734,3.185h-4.706v3.393c0,0.814-0.187,1.326-0.559,1.534h-0.598v2.626h1.183v-1.56h4.147v1.56h1.131
	V8.112h-0.598V3.185z M16.159,6.526V4.134h2.444v4.095h-2.886C16.012,7.778,16.159,7.211,16.159,6.526L16.159,6.526z"/>
<path fill="#FFFFFF" d="M23.415,3.354c-0.395,0.217-0.687,0.511-0.877,0.884V3.185h-1.131v8.762h1.131V8.125
	c0.19,0.373,0.479,0.667,0.865,0.884c0.385,0.216,0.808,0.325,1.267,0.325c0.866,0,1.577-0.294,2.132-0.884
	c0.554-0.589,0.832-1.343,0.832-2.262c0-0.936-0.269-1.696-0.806-2.281s-1.235-0.877-2.093-0.877
	C24.249,3.029,23.809,3.138,23.415,3.354z M23.051,7.722c-0.377-0.399-0.565-0.91-0.565-1.534c0-0.632,0.188-1.148,0.565-1.547
	s0.865-0.598,1.462-0.598c0.581,0,1.057,0.202,1.43,0.604c0.372,0.403,0.559,0.917,0.559,1.541s-0.187,1.135-0.559,1.534
	c-0.373,0.398-0.85,0.598-1.43,0.598C23.915,8.32,23.428,8.121,23.051,7.722z"/>
<path fill="#FFFFFF" d="M33.612,8.431c0.568-0.603,0.852-1.354,0.852-2.255c0-0.893-0.284-1.64-0.852-2.243
	c-0.568-0.603-1.324-0.903-2.269-0.903c-0.953,0-1.712,0.299-2.275,0.897c-0.563,0.598-0.845,1.348-0.845,2.249
	s0.282,1.653,0.845,2.255c0.563,0.602,1.322,0.903,2.275,0.903C32.288,9.334,33.044,9.033,33.612,8.431z M29.341,6.188
	c0-0.624,0.18-1.137,0.54-1.541c0.36-0.403,0.847-0.604,1.462-0.604c0.615,0,1.101,0.202,1.456,0.604
	c0.355,0.403,0.533,0.912,0.533,1.528c0,0.624-0.178,1.137-0.533,1.54c-0.355,0.403-0.841,0.604-1.456,0.604
	c-0.615,0-1.103-0.201-1.462-0.604C29.521,7.312,29.341,6.803,29.341,6.188L29.341,6.188z"/>
<path fill="#FFFFFF" d="M40.584,8.417c0.572-0.62,0.858-1.367,0.858-2.242c0-0.884-0.262-1.629-0.786-2.236
	c-0.525-0.606-1.233-0.91-2.125-0.91c-0.512,0-0.982,0.139-1.411,0.416c-0.429,0.278-0.73,0.659-0.904,1.144
	c0.061-1.152,0.333-2.01,0.819-2.574C37.52,1.452,38.278,1.17,39.31,1.17h1.534V0.078h-1.222c-1.569,0-2.708,0.425-3.419,1.274
	c-0.711,0.85-1.066,2.145-1.066,3.887c0,1.23,0.277,2.223,0.832,2.977c0.554,0.754,1.36,1.131,2.418,1.131
	C39.279,9.347,40.012,9.037,40.584,8.417z M36.853,7.729c-0.356-0.403-0.533-0.917-0.533-1.541s0.177-1.135,0.533-1.534
	c0.355-0.399,0.845-0.598,1.469-0.598c0.606,0,1.09,0.206,1.449,0.617c0.359,0.412,0.539,0.917,0.539,1.515
	c0,0.607-0.18,1.116-0.539,1.527c-0.36,0.412-0.843,0.618-1.449,0.618C37.698,8.333,37.208,8.131,36.853,7.729z"/>
<path fill="#FFFFFF" d="M43.549,9.178V6.63h3.133v2.548H47.8V3.185h-1.118v2.496h-3.133V3.185h-1.131v5.993H43.549z"/>
<path fill="#FFFFFF" d="M54.177,8.431c0.568-0.603,0.852-1.354,0.852-2.255c0-0.893-0.284-1.64-0.852-2.243
	s-1.324-0.903-2.268-0.903c-0.954,0-1.712,0.299-2.275,0.897c-0.563,0.598-0.845,1.348-0.845,2.249s0.282,1.653,0.845,2.255
	c0.563,0.602,1.322,0.903,2.275,0.903C52.854,9.334,53.61,9.033,54.177,8.431z M49.907,6.188c0-0.624,0.18-1.137,0.54-1.541
	c0.36-0.403,0.847-0.604,1.463-0.604c0.615,0,1.101,0.202,1.456,0.604c0.355,0.403,0.533,0.912,0.533,1.528
	c0,0.624-0.177,1.137-0.533,1.54C53.01,8.119,52.524,8.32,51.909,8.32c-0.615,0-1.103-0.201-1.463-0.604
	C50.087,7.312,49.907,6.803,49.907,6.188L49.907,6.188z"/>
<path fill="#FFFFFF" d="M60.553,8.743c0.494-0.395,0.776-0.925,0.845-1.593h-1.131c-0.165,0.78-0.719,1.17-1.664,1.17
	c-0.581,0-1.036-0.188-1.365-0.565s-0.494-0.899-0.494-1.566s0.165-1.189,0.494-1.566s0.784-0.565,1.365-0.565
	c0.953,0,1.508,0.403,1.664,1.209h1.131c-0.069-0.676-0.351-1.216-0.845-1.619c-0.494-0.403-1.144-0.604-1.95-0.604
	c-0.91,0-1.634,0.288-2.171,0.865c-0.538,0.576-0.806,1.337-0.806,2.281c0,0.945,0.269,1.705,0.806,2.282
	c0.537,0.576,1.261,0.864,2.171,0.864C59.409,9.334,60.059,9.137,60.553,8.743z"/>
<path fill="#FFFFFF" d="M61.824,3.185v1.053h1.833v4.94h1.131v-4.94h1.846V3.185H61.824z"/>
<path fill="#FFFFFF" d="M71.64,9.178h1.131V3.185H71.64v0.507l-3.081,3.731V3.185h-1.131v5.993h1.131V8.697l3.081-3.705V9.178z"/>
<path fill="#FFFFFF" d="M78.491,9.178V6.63h3.133v2.548h1.118V3.185h-1.118v2.496h-3.133V3.185H77.36v5.993H78.491z"/>
<path fill="#FFFFFF" d="M87.977,9.002c0.39-0.221,0.68-0.513,0.871-0.877v1.053h1.118V3.185h-1.118v1.053
	c-0.191-0.373-0.473-0.667-0.845-0.884c-0.373-0.216-0.793-0.325-1.261-0.325c-0.91,0-1.636,0.299-2.178,0.897
	c-0.542,0.598-0.812,1.352-0.812,2.262c0,0.919,0.262,1.673,0.787,2.262c0.524,0.589,1.25,0.884,2.177,0.884
	C87.167,9.334,87.587,9.224,87.977,9.002z M85.416,7.722c-0.364-0.399-0.546-0.91-0.546-1.534s0.182-1.137,0.546-1.541
	c0.364-0.403,0.849-0.604,1.456-0.604c0.633,0,1.129,0.206,1.489,0.618c0.359,0.412,0.54,0.921,0.54,1.527
	c0,0.598-0.18,1.103-0.54,1.515c-0.36,0.412-0.856,0.617-1.489,0.617C86.265,8.32,85.78,8.121,85.416,7.722z"/>
<path fill="#FFFFFF" d="M95.686,9.178v-3.12c0-0.685,0.13-1.198,0.39-1.541s0.624-0.514,1.092-0.514
	c0.858,0,1.287,0.559,1.287,1.677v3.497h1.131v-3.12c0-1.369,0.49-2.054,1.469-2.054c0.867,0,1.3,0.533,1.3,1.599v3.575h1.131V5.382
	c0-1.568-0.719-2.353-2.158-2.353c-0.451,0-0.85,0.121-1.196,0.364c-0.347,0.243-0.59,0.55-0.728,0.923
	c-0.251-0.858-0.893-1.287-1.924-1.287c-0.451,0-0.832,0.119-1.144,0.357s-0.529,0.535-0.65,0.89V3.185h-1.131v5.993H95.686z"/>
<path fill="#FFFFFF" d="M109.462,3.809c-0.524-0.52-1.211-0.78-2.061-0.78c-0.893,0-1.608,0.286-2.145,0.858
	c-0.537,0.572-0.806,1.334-0.806,2.288c0,0.97,0.271,1.74,0.812,2.307c0.542,0.568,1.272,0.852,2.19,0.852
	c0.702,0,1.304-0.173,1.807-0.52c0.502-0.347,0.806-0.797,0.91-1.352h-1.131c-0.26,0.589-0.789,0.884-1.586,0.884
	c-0.572,0-1.027-0.163-1.365-0.488c-0.338-0.325-0.511-0.773-0.52-1.345h4.641c0.026-0.286,0.039-0.511,0.039-0.676
	C110.248,5.005,109.986,4.329,109.462,3.809z M106.095,4.407c0.325-0.312,0.756-0.468,1.293-0.468c0.546,0,0.973,0.152,1.281,0.455
	c0.307,0.303,0.461,0.719,0.461,1.248h-3.562C105.594,5.131,105.77,4.719,106.095,4.407z"/>
<path fill="#FFFFFF" d="M115.984,4.238c-0.191-0.373-0.474-0.667-0.852-0.884c-0.377-0.216-0.795-0.325-1.254-0.325
	c-0.875,0-1.593,0.301-2.152,0.903c-0.559,0.603-0.838,1.354-0.838,2.255s0.269,1.651,0.806,2.249s1.257,0.897,2.158,0.897
	c0.442,0,0.862-0.108,1.261-0.325c0.398-0.217,0.689-0.512,0.871-0.884V9.1c0,1.369-0.663,2.054-1.989,2.054
	c-0.555,0-0.986-0.113-1.293-0.338c-0.308-0.226-0.488-0.52-0.54-0.884h-1.183c0.026,0.658,0.325,1.187,0.897,1.586
	c0.537,0.39,1.243,0.585,2.119,0.585c0.875,0,1.564-0.187,2.067-0.559c0.693-0.538,1.04-1.378,1.04-2.522V3.185h-1.118V4.238z
	 M112.565,7.715c-0.373-0.403-0.559-0.912-0.559-1.527c0-0.624,0.186-1.137,0.559-1.541c0.373-0.403,0.854-0.604,1.443-0.604
	c0.615,0,1.107,0.206,1.475,0.618s0.552,0.921,0.552,1.527c0,0.607-0.184,1.114-0.552,1.521s-0.86,0.611-1.475,0.611
	C113.418,8.32,112.937,8.119,112.565,7.715z"/>
<path fill="#FFFFFF" d="M122.35,9.002c0.39-0.221,0.68-0.513,0.871-0.877v1.053h1.118V3.185h-1.118v1.053
	c-0.191-0.373-0.473-0.667-0.845-0.884c-0.373-0.216-0.793-0.325-1.261-0.325c-0.91,0-1.636,0.299-2.177,0.897
	c-0.542,0.598-0.812,1.352-0.812,2.262c0,0.919,0.262,1.673,0.786,2.262c0.524,0.589,1.25,0.884,2.177,0.884
	C121.539,9.334,121.96,9.224,122.35,9.002z M119.789,7.722c-0.364-0.399-0.546-0.91-0.546-1.534s0.182-1.137,0.546-1.541
	c0.364-0.403,0.849-0.604,1.456-0.604c0.633,0,1.129,0.206,1.489,0.618c0.36,0.412,0.54,0.921,0.54,1.527
	c0,0.598-0.18,1.103-0.54,1.515c-0.36,0.412-0.856,0.617-1.489,0.617C120.638,8.32,120.153,8.121,119.789,7.722z"/>
<path fill="#FFFFFF" d="M129.177,1.105V0.13c-0.217-0.086-0.52-0.13-0.91-0.13c-0.156,0-0.308,0.013-0.455,0.039
	s-0.312,0.084-0.494,0.175c-0.182,0.091-0.342,0.212-0.481,0.364s-0.253,0.362-0.344,0.63c-0.091,0.269-0.137,0.581-0.137,0.936
	v1.04h-1.274v0.949h1.274v5.044h1.131V4.134h1.69V3.185h-1.69V2.119c0-0.243,0.032-0.442,0.097-0.598
	c0.065-0.156,0.156-0.269,0.273-0.338c0.117-0.069,0.23-0.115,0.338-0.137c0.108-0.021,0.231-0.032,0.37-0.032
	C128.748,1.014,128.952,1.044,129.177,1.105L129.177,1.105z"/>
<path fill="#FFFFFF" d="M134.784,8.431c0.567-0.603,0.851-1.354,0.851-2.255c0-0.893-0.284-1.64-0.851-2.243
	c-0.568-0.603-1.324-0.903-2.269-0.903c-0.954,0-1.712,0.299-2.275,0.897c-0.563,0.598-0.845,1.348-0.845,2.249
	s0.281,1.653,0.845,2.255c0.563,0.602,1.322,0.903,2.275,0.903C133.46,9.334,134.216,9.033,134.784,8.431z M130.514,6.188
	c0-0.624,0.18-1.137,0.539-1.541c0.36-0.403,0.847-0.604,1.463-0.604c0.615,0,1.101,0.202,1.456,0.604
	c0.355,0.403,0.533,0.912,0.533,1.528c0,0.624-0.178,1.137-0.533,1.54c-0.355,0.403-0.841,0.604-1.456,0.604
	c-0.616,0-1.103-0.201-1.463-0.604C130.693,7.312,130.514,6.803,130.514,6.188L130.514,6.188z"/>
<path fill="#FFFFFF" d="M137.783,9.178V6.006c0-0.624,0.145-1.113,0.436-1.469c0.29-0.355,0.708-0.533,1.254-0.533
	c0.528,0,0.912,0.161,1.15,0.481c0.238,0.321,0.357,0.819,0.357,1.495v3.198h1.131V5.486c0-1.638-0.746-2.457-2.236-2.457
	c-0.511,0-0.947,0.112-1.307,0.338c-0.359,0.225-0.622,0.533-0.786,0.923V3.185h-1.131v5.993H137.783z"/>
<path fill="#FFFFFF" d="M144.989,8.99c0.187-0.187,0.279-0.41,0.279-0.67c0-0.26-0.093-0.483-0.279-0.669
	c-0.187-0.186-0.41-0.279-0.669-0.279c-0.269,0-0.494,0.093-0.676,0.279c-0.182,0.187-0.273,0.41-0.273,0.669
	c0,0.26,0.091,0.483,0.273,0.67c0.182,0.186,0.408,0.279,0.676,0.279C144.579,9.269,144.802,9.176,144.989,8.99z"/>
<path fill="#FFFFFF" d="M147.683,9.178V6.552c0-0.702,0.149-1.278,0.448-1.729s0.73-0.676,1.293-0.676
	c0.243,0,0.429,0.013,0.559,0.039v-1.04c-0.13-0.035-0.312-0.052-0.546-0.052c-0.399,0-0.763,0.124-1.092,0.37
	c-0.33,0.247-0.55,0.609-0.663,1.086V3.185h-1.131v5.993H147.683z"/>
<path fill="#FFFFFF" d="M154.219,8.996c0.351-0.226,0.608-0.529,0.773-0.91v1.092h1.131V3.185h-1.131v3.276
	c0,0.529-0.141,0.978-0.422,1.346c-0.282,0.368-0.708,0.552-1.281,0.552c-0.971,0-1.456-0.585-1.456-1.755V3.185h-1.131v3.692
	c0,0.797,0.206,1.406,0.618,1.827c0.411,0.42,0.964,0.63,1.657,0.63C153.454,9.334,153.868,9.221,154.219,8.996z"/>
</svg>
