<svg xmlns="http://www.w3.org/2000/svg" viewBox="0 0 148.71 43.16">
    <defs>
        <style>.cls-1{fill:#fd0;}</style>
    </defs>
    <title>butt2</title>
    <g id="Layer_2" data-name="Layer 2">
        <g id="Layer_1-2" data-name="Layer 1">
            <rect class="cls-1" width="148.71" height="43.16" rx="12" ry="12"/>
            <path d="M24.22,22.07l2-5.14h1.9L24.71,25a7.94,7.94,0,0,1-.36.73,2.45,2.45,0,0,1-.49.61,2.2,2.2,0,0,1-.7.42,2.78,2.78,0,0,1-1,.16h-.7V25.51h.57a1.25,1.25,0,0,0,.47-.08,1,1,0,0,0,.32-.21,1.13,1.13,0,0,0,.22-.3c.06-.11.11-.24.17-.37l.2-.49-3.36-7.16h1.86Z"/>
            <path d="M34.48,21.45a1.5,1.5,0,0,1-.29.89,2,2,0,0,1-.83.65,1.94,1.94,0,0,1,.93.64,1.7,1.7,0,0,1,.32,1.05,1.92,1.92,0,0,1-.22.93,2,2,0,0,1-.62.69,3,3,0,0,1-1,.43,4.7,4.7,0,0,1-1.22.15,4.43,4.43,0,0,1-1.08-.13,3.07,3.07,0,0,1-1-.42,2.2,2.2,0,0,1-.68-.72,2,2,0,0,1-.26-1h1.63a.86.86,0,0,0,.09.39,1,1,0,0,0,.28.33,1.45,1.45,0,0,0,.44.23,1.84,1.84,0,0,0,.59.09,1.8,1.8,0,0,0,.58-.08,1.21,1.21,0,0,0,.41-.23A.9.9,0,0,0,32.9,25a1,1,0,0,0,.08-.38.91.91,0,0,0-.31-.77,1.58,1.58,0,0,0-1-.24H30.53V22.44h1.17a1.89,1.89,0,0,0,.53-.06.9.9,0,0,0,.35-.19.71.71,0,0,0,.2-.29,1.06,1.06,0,0,0,.06-.37,1,1,0,0,0-.06-.35.76.76,0,0,0-.2-.3,1.07,1.07,0,0,0-.37-.21,1.65,1.65,0,0,0-.56-.08,1.76,1.76,0,0,0-.51.07,1.38,1.38,0,0,0-.4.2.93.93,0,0,0-.27.3.74.74,0,0,0-.1.37H28.75A1.85,1.85,0,0,1,29,20.6a2.15,2.15,0,0,1,.62-.69,2.88,2.88,0,0,1,.91-.44,4,4,0,0,1,1.11-.15,4.78,4.78,0,0,1,1.19.14,2.69,2.69,0,0,1,.9.41,1.8,1.8,0,0,1,.57.66A2,2,0,0,1,34.48,21.45Z"/>
            <path d="M42.2,26.76H40.56V23.81H37.72v2.95H36.08v-7.3h1.64v3h2.84v-3H42.2Z"/>
            <path d="M48.31,26.76a1.35,1.35,0,0,1-.11-.3q0-.18-.08-.38a3,3,0,0,1-.36.32,2.5,2.5,0,0,1-.44.26,2.64,2.64,0,0,1-.52.18,2.71,2.71,0,0,1-.6.06,3,3,0,0,1-1-.17,2.37,2.37,0,0,1-.79-.46,2.14,2.14,0,0,1-.51-.69,2,2,0,0,1-.19-.86,2.33,2.33,0,0,1,.22-1,2,2,0,0,1,.65-.76,3.11,3.11,0,0,1,1-.46A5.69,5.69,0,0,1,47,22.3h1v-.48a1.28,1.28,0,0,0-.32-.91,1.26,1.26,0,0,0-1-.34,1.71,1.71,0,0,0-.53.08,1.3,1.3,0,0,0-.4.21.93.93,0,0,0-.26.31.86.86,0,0,0-.09.39H43.86a1.76,1.76,0,0,1,.21-.83,2.29,2.29,0,0,1,.6-.71,3.09,3.09,0,0,1,.95-.5,4.15,4.15,0,0,1,2.38,0,2.54,2.54,0,0,1,.9.47,2.13,2.13,0,0,1,.59.78,2.68,2.68,0,0,1,.21,1.1v3.24A3.73,3.73,0,0,0,50,26.64v.11Zm-1.8-1.18A1.82,1.82,0,0,0,47,25.5a1.87,1.87,0,0,0,.45-.2,1.65,1.65,0,0,0,.35-.28,1.57,1.57,0,0,0,.24-.32V23.33h-.88a2.41,2.41,0,0,0-1.37.32,1,1,0,0,0-.46.9,1.12,1.12,0,0,0,.07.41.9.9,0,0,0,.22.33,1.06,1.06,0,0,0,.36.22A1.44,1.44,0,0,0,46.5,25.58Z"/>
            <path d="M57.06,20.76H54.69v6H53.05v-6H50.71v-1.3h6.35Z"/>
            <path d="M59.92,21.78h1.6a3.92,3.92,0,0,1,1.26.19,2.69,2.69,0,0,1,.92.51,2.12,2.12,0,0,1,.57.78,2.55,2.55,0,0,1,.19,1,2.51,2.51,0,0,1-.19,1,2.19,2.19,0,0,1-.57.79,2.71,2.71,0,0,1-.92.53,3.78,3.78,0,0,1-1.26.19H58.28v-7.3h1.64Zm0,1.32v2.36h1.6a1.64,1.64,0,0,0,.6-.1,1.14,1.14,0,0,0,.4-.26.93.93,0,0,0,.22-.37,1.41,1.41,0,0,0,.07-.43,1.47,1.47,0,0,0-.07-.44,1,1,0,0,0-.22-.38,1.16,1.16,0,0,0-.4-.27,1.55,1.55,0,0,0-.6-.1Z"/>
            <path d="M72.65,19.86a3.09,3.09,0,0,1,1.29.26,2.74,2.74,0,0,1,1,.71,3.09,3.09,0,0,1,.59,1.07,4.26,4.26,0,0,1,.2,1.33v.14a4.29,4.29,0,0,1-.22,1.41,3.25,3.25,0,0,1-.65,1.12,2.92,2.92,0,0,1-1,.74,3.61,3.61,0,0,1-1.43.27,3.43,3.43,0,0,1-1.42-.28,3.05,3.05,0,0,1-1.05-.77,3.3,3.3,0,0,1-.65-1.16A4.62,4.62,0,0,1,69,23.23V22.7a9.27,9.27,0,0,1,.24-2.24,5.24,5.24,0,0,1,.67-1.62,3.52,3.52,0,0,1,1-1,4,4,0,0,1,1.35-.54l.64-.15a2.11,2.11,0,0,0,.47-.18.81.81,0,0,0,.29-.26.7.7,0,0,0,.1-.39h1.32a2.49,2.49,0,0,1-.17,1,1.64,1.64,0,0,1-.5.64,2.53,2.53,0,0,1-.79.39q-.47.15-1,.27a4.19,4.19,0,0,0-.79.26,2.34,2.34,0,0,0-.66.43,2.37,2.37,0,0,0-.49.67,3.45,3.45,0,0,0-.3.94,3.49,3.49,0,0,1,1-.74A2.92,2.92,0,0,1,72.65,19.86Zm-.32,1.32a1.7,1.7,0,0,0-.78.17,1.47,1.47,0,0,0-.53.45,1.84,1.84,0,0,0-.3.65,3.13,3.13,0,0,0-.09.78v.14a3.76,3.76,0,0,0,.09.86,2.09,2.09,0,0,0,.3.71,1.47,1.47,0,0,0,.53.48,1.84,1.84,0,0,0,1.57,0,1.47,1.47,0,0,0,.53-.48,2.15,2.15,0,0,0,.3-.71,3.66,3.66,0,0,0,.1-.86v-.14a3,3,0,0,0-.1-.78,1.9,1.9,0,0,0-.3-.65,1.46,1.46,0,0,0-.53-.45A1.75,1.75,0,0,0,72.32,21.18Z"/>
            <path d="M76.65,23a4.52,4.52,0,0,1,.23-1.48,3.5,3.5,0,0,1,.67-1.18,3.05,3.05,0,0,1,1.06-.78A3.43,3.43,0,0,1,80,19.32a3.48,3.48,0,0,1,1.44.28,3,3,0,0,1,1.07.78,3.47,3.47,0,0,1,.67,1.18A4.6,4.6,0,0,1,83.44,23v.14a4.62,4.62,0,0,1-.23,1.48,3.43,3.43,0,0,1-.67,1.18,3,3,0,0,1-1.07.78,3.79,3.79,0,0,1-2.86,0,3,3,0,0,1-1.07-.78,3.46,3.46,0,0,1-.67-1.18,4.54,4.54,0,0,1-.23-1.48Zm1.64.14a4.21,4.21,0,0,0,.1.93,2.33,2.33,0,0,0,.32.77,1.57,1.57,0,0,0,.55.52,1.59,1.59,0,0,0,.79.19,1.51,1.51,0,0,0,1.33-.71,2.37,2.37,0,0,0,.32-.77,4,4,0,0,0,.11-.93V23a3.9,3.9,0,0,0-.11-.92,2.35,2.35,0,0,0-.32-.76,1.63,1.63,0,0,0-.55-.52,1.54,1.54,0,0,0-.79-.2,1.5,1.5,0,0,0-.79.2,1.65,1.65,0,0,0-.54.52,2.34,2.34,0,0,0-.32.76,4.12,4.12,0,0,0-.1.92Z"/>
            <path d="M90.93,19.45v7.3H89.29v-6H87.24l-.07,1.79A14.07,14.07,0,0,1,87,24.39a4,4,0,0,1-.45,1.31,2,2,0,0,1-.81.79,2.73,2.73,0,0,1-1.27.26h-.35V25.37h.24a1,1,0,0,0,.58-.16,1,1,0,0,0,.34-.49,3.75,3.75,0,0,0,.18-.87c0-.36.06-.79.09-1.29l.13-3.11Z"/>
            <path d="M94.44,21.78H96A3.92,3.92,0,0,1,97.3,22a2.7,2.7,0,0,1,.92.51,2.12,2.12,0,0,1,.57.78,2.56,2.56,0,0,1,.19,1,2.52,2.52,0,0,1-.19,1,2.19,2.19,0,0,1-.57.79,2.72,2.72,0,0,1-.92.53,3.79,3.79,0,0,1-1.26.19H92.8v-7.3h1.64Zm0,1.32v2.36H96a1.64,1.64,0,0,0,.6-.1,1.14,1.14,0,0,0,.4-.26.93.93,0,0,0,.22-.37,1.41,1.41,0,0,0,.07-.43,1.47,1.47,0,0,0-.07-.44,1,1,0,0,0-.22-.38,1.15,1.15,0,0,0-.4-.27,1.56,1.56,0,0,0-.6-.1Z"/>
            <path d="M102,19.45v6h2.28v-6h1.64v6h2.29v-6h1.63v7.3h-9.48v-7.3Z"/>
            <path d="M114.83,26.89a3.76,3.76,0,0,1-1.46-.27,3.21,3.21,0,0,1-1.1-.74,3.26,3.26,0,0,1-.7-1.12,4,4,0,0,1-.24-1.4v-.27a4.51,4.51,0,0,1,.26-1.56,3.58,3.58,0,0,1,.7-1.19,3.09,3.09,0,0,1,1-.76,3.18,3.18,0,0,1,1.3-.27,3.32,3.32,0,0,1,1.38.27,2.61,2.61,0,0,1,1,.75,3.22,3.22,0,0,1,.57,1.14,5.27,5.27,0,0,1,.19,1.45v.7H113a2.63,2.63,0,0,0,.18.78,1.91,1.91,0,0,0,.4.62,1.8,1.8,0,0,0,.59.41,1.91,1.91,0,0,0,.77.15,2.19,2.19,0,0,0,1.06-.24,2.47,2.47,0,0,0,.78-.67l.88.84a3,3,0,0,1-1,.95,3.44,3.44,0,0,1-.79.31A3.78,3.78,0,0,1,114.83,26.89Zm-.2-6.26a1.38,1.38,0,0,0-1.09.47,2.45,2.45,0,0,0-.53,1.32h3.13V22.3a3,3,0,0,0-.1-.62,1.61,1.61,0,0,0-.26-.53,1.26,1.26,0,0,0-.46-.37A1.53,1.53,0,0,0,114.64,20.64Z"/>
            <path d="M139.83,22.88l-7.61,7.61a1.83,1.83,0,0,1-3.13-1.3V14a1.83,1.83,0,0,1,3.13-1.3l7.61,7.61A1.83,1.83,0,0,1,139.83,22.88Z"/>
        </g>
    </g>
</svg>