<?xml version="1.0" encoding="UTF-8"?>
<svg width="305px" height="79px" viewBox="0 0 305 79" version="1.1" xmlns="http://www.w3.org/2000/svg" xmlns:xlink="http://www.w3.org/1999/xlink">
    <!-- Generator: Sketch 51.2 (57519) - http://www.bohemiancoding.com/sketch -->
    <title>ТАКСИПОРТАЦИЯ от Сит</title>
    <desc>Created with Sketch.</desc>
    <defs></defs>
    <g id="Page-1" stroke="none" stroke-width="1" fill="none" fill-rule="evenodd">
        <g id="Desktop-HD" transform="translate(-126.000000, -196.000000)" fill="#FFFFFF">
            <path d="M147.09375,199.992188 L139.113281,199.992188 L139.113281,222 L134.701172,222 L134.701172,199.992188 L126.791016,199.992188 L126.791016,196.40625 L147.09375,196.40625 L147.09375,199.992188 Z M162.667969,216.041016 L152.753906,216.041016 L150.679688,222 L146.056641,222 L155.724609,196.40625 L159.714844,196.40625 L169.400391,222 L164.759766,222 L162.667969,216.041016 Z M154.001953,212.455078 L161.419922,212.455078 L157.710938,201.837891 L154.001953,212.455078 Z M179.876953,211.03125 L176.853516,211.03125 L176.853516,222 L172.423828,222 L172.423828,196.40625 L176.853516,196.40625 L176.853516,207.164062 L179.296875,207.164062 L186.820312,196.40625 L192.269531,196.40625 L183.480469,208.658203 L193.042969,222 L187.699219,222 L179.876953,211.03125 Z M214.488281,213.667969 C214.371093,214.921881 214.078127,216.079096 213.609375,217.139648 C213.140623,218.200201 212.490239,219.117184 211.658203,219.890625 C210.826168,220.664066 209.809576,221.267576 208.608398,221.701172 C207.407221,222.134768 206.021492,222.351562 204.451172,222.351562 C202.880852,222.351562 201.459967,222.067386 200.188477,221.499023 C198.916986,220.930661 197.833012,220.122076 196.936523,219.073242 C196.040035,218.024409 195.351565,216.755867 194.871094,215.267578 C194.390623,213.779289 194.150391,212.109384 194.150391,210.257812 L194.150391,208.183594 C194.150391,206.343741 194.396482,204.676765 194.888672,203.182617 C195.380862,201.688469 196.08398,200.414068 196.998047,199.359375 C197.912114,198.304682 199.016595,197.490237 200.311523,196.916016 C201.606452,196.341794 203.056633,196.054688 204.662109,196.054688 C206.185554,196.054688 207.533197,196.274412 208.705078,196.713867 C209.876959,197.153323 210.870113,197.762691 211.68457,198.541992 C212.499028,199.321293 213.137693,200.249995 213.600586,201.328125 C214.063479,202.406255 214.359374,203.583978 214.488281,204.861328 L210.058594,204.861328 C209.964843,204.05273 209.803712,203.326175 209.575195,202.681641 C209.346679,202.037106 209.021486,201.48926 208.599609,201.038086 C208.177732,200.586912 207.644534,200.244142 207,200.009766 C206.355466,199.775389 205.576176,199.658203 204.662109,199.658203 C203.654292,199.658203 202.772465,199.848631 202.016602,200.229492 C201.260738,200.610353 200.630862,201.161129 200.126953,201.881836 C199.623044,202.602543 199.245118,203.490229 198.993164,204.544922 C198.74121,205.599615 198.615234,206.800775 198.615234,208.148438 L198.615234,210.257812 C198.615234,211.535163 198.726561,212.695307 198.949219,213.738281 C199.171876,214.781255 199.517576,215.674801 199.986328,216.418945 C200.45508,217.16309 201.05859,217.740232 201.796875,218.150391 C202.53516,218.560549 203.419917,218.765625 204.451172,218.765625 C205.412114,218.765625 206.22363,218.654298 206.885742,218.431641 C207.547855,218.208983 208.095701,217.880862 208.529297,217.447266 C208.962893,217.01367 209.299803,216.480472 209.540039,215.847656 C209.780275,215.214841 209.953124,214.488285 210.058594,213.667969 L214.488281,213.667969 Z M234.140625,196.40625 L238.587891,196.40625 L238.587891,222 L234.140625,222 L234.140625,203.771484 L222.908203,222 L218.460938,222 L218.460938,196.40625 L222.908203,196.40625 L222.908203,214.652344 L234.140625,196.40625 Z M264.164062,222 L259.734375,222 L259.734375,199.992188 L248.466797,199.992188 L248.466797,222 L244.037109,222 L244.037109,196.40625 L264.164062,196.40625 L264.164062,222 Z M289.951172,209.871094 C289.951172,211.816416 289.696292,213.559563 289.186523,215.100586 C288.676755,216.641609 287.958989,217.948237 287.033203,219.020508 C286.107417,220.092779 284.994147,220.916013 283.693359,221.490234 C282.392572,222.064456 280.95118,222.351562 279.369141,222.351562 C277.79882,222.351562 276.363288,222.064456 275.0625,221.490234 C273.761712,220.916013 272.639653,220.092779 271.696289,219.020508 C270.752925,217.948237 270.02051,216.641609 269.499023,215.100586 C268.977536,213.559563 268.716797,211.816416 268.716797,209.871094 L268.716797,208.570312 C268.716797,206.62499 268.977536,204.878914 269.499023,203.332031 C270.02051,201.785149 270.747066,200.472662 271.678711,199.394531 C272.610356,198.316401 273.726556,197.490237 275.027344,196.916016 C276.328132,196.341794 277.763664,196.054688 279.333984,196.054688 C280.916024,196.054688 282.360345,196.341794 283.666992,196.916016 C284.973639,197.490237 286.092769,198.316401 287.024414,199.394531 C287.956059,200.472662 288.676755,201.785149 289.186523,203.332031 C289.696292,204.878914 289.951172,206.62499 289.951172,208.570312 L289.951172,209.871094 Z M285.503906,208.535156 C285.503906,207.105462 285.366212,205.842779 285.09082,204.74707 C284.815428,203.651362 284.414065,202.734379 283.886719,201.996094 C283.359372,201.257809 282.711918,200.698244 281.944336,200.317383 C281.176754,199.936522 280.306645,199.746094 279.333984,199.746094 C278.384761,199.746094 277.529301,199.936522 276.767578,200.317383 C276.005856,200.698244 275.358401,201.257809 274.825195,201.996094 C274.29199,202.734379 273.881837,203.651362 273.594727,204.74707 C273.307616,205.842779 273.164062,207.105462 273.164062,208.535156 L273.164062,209.871094 C273.164062,211.300788 273.307616,212.566401 273.594727,213.667969 C273.881837,214.769537 274.294919,215.692379 274.833984,216.436523 C275.37305,217.180668 276.026363,217.743162 276.793945,218.124023 C277.561527,218.504885 278.419917,218.695312 279.369141,218.695312 C281.3379,218.695312 282.852534,217.94532 283.913086,216.445312 C284.973638,214.945305 285.503906,212.753921 285.503906,209.871094 L285.503906,208.535156 Z M298.828125,212.490234 L298.828125,222 L294.380859,222 L294.380859,196.40625 L304.171875,196.40625 C305.660164,196.40625 306.98144,196.608396 308.135742,197.012695 C309.290045,197.416994 310.265621,197.982418 311.0625,198.708984 C311.859379,199.435551 312.465818,200.29687 312.881836,201.292969 C313.297854,202.289067 313.505859,203.373041 313.505859,204.544922 C313.505859,205.787116 313.297854,206.900386 312.881836,207.884766 C312.465818,208.869146 311.859379,209.701168 311.0625,210.380859 C310.265621,211.06055 309.290045,211.582029 308.135742,211.945312 C306.98144,212.308596 305.660164,212.490234 304.171875,212.490234 L298.828125,212.490234 Z M298.828125,208.921875 L304.171875,208.921875 C305.027348,208.921875 305.762692,208.816407 306.37793,208.605469 C306.993167,208.39453 307.499998,208.095705 307.898438,207.708984 C308.296877,207.322264 308.586913,206.862307 308.768555,206.329102 C308.950196,205.795896 309.041016,205.212894 309.041016,204.580078 C309.041016,203.982419 308.950196,203.408206 308.768555,202.857422 C308.586913,202.306638 308.296877,201.817385 307.898438,201.389648 C307.499998,200.961912 306.993167,200.622072 306.37793,200.370117 C305.762692,200.118163 305.027348,199.992188 304.171875,199.992188 L298.828125,199.992188 L298.828125,208.921875 Z M335.882812,199.992188 L327.902344,199.992188 L327.902344,222 L323.490234,222 L323.490234,199.992188 L315.580078,199.992188 L315.580078,196.40625 L335.882812,196.40625 L335.882812,199.992188 Z M351.457031,216.041016 L341.542969,216.041016 L339.46875,222 L334.845703,222 L344.513672,196.40625 L348.503906,196.40625 L358.189453,222 L353.548828,222 L351.457031,216.041016 Z M342.791016,212.455078 L350.208984,212.455078 L346.5,201.837891 L342.791016,212.455078 Z M361.054688,196.40625 L365.501953,196.40625 L365.501953,218.449219 L376.769531,218.449219 L376.769531,196.40625 L381.216797,196.40625 L381.216797,218.414062 L384.310547,218.414062 L383.958984,228.169922 L379.880859,228.169922 L379.880859,222 L361.054688,222 L361.054688,196.40625 Z M403.646484,196.40625 L408.09375,196.40625 L408.09375,222 L403.646484,222 L403.646484,203.771484 L392.414062,222 L387.966797,222 L387.966797,196.40625 L392.414062,196.40625 L392.414062,214.652344 L403.646484,196.40625 Z M426.041016,222 L426.041016,212.4375 L421.083984,212.4375 L416.144531,222 L411.380859,222 L417.09375,211.119141 C415.628899,210.427731 414.518558,209.513678 413.762695,208.376953 C413.006832,207.240229 412.628906,205.851571 412.628906,204.210938 C412.628906,202.945306 412.845701,201.826177 413.279297,200.853516 C413.712893,199.880855 414.331051,199.06641 415.133789,198.410156 C415.936527,197.753903 416.909174,197.255861 418.051758,196.916016 C419.194342,196.57617 420.480462,196.40625 421.910156,196.40625 L430.488281,196.40625 L430.488281,222 L426.041016,222 Z M417.058594,204.404297 C417.058594,205.84571 417.462887,206.970699 418.271484,207.779297 C419.080082,208.587895 420.292961,208.992188 421.910156,208.992188 L426.041016,208.992188 L426.041016,199.992188 L421.910156,199.992188 C420.269523,199.992188 419.050785,200.384762 418.253906,201.169922 C417.457027,201.955082 417.058594,203.033196 417.058594,204.404297 Z M127.774414,261.624023 C127.774414,259.857088 128.032712,258.221199 128.549316,256.716309 C129.065921,255.211418 129.807124,253.904953 130.772949,252.796875 C131.738774,251.688797 132.917962,250.820316 134.310547,250.191406 C135.703132,249.562497 137.282869,249.248047 139.049805,249.248047 C140.831715,249.248047 142.426425,249.562497 143.833984,250.191406 C145.241543,250.820316 146.428218,251.688797 147.394043,252.796875 C148.359868,253.904953 149.097328,255.211418 149.606445,256.716309 C150.115562,258.221199 150.370117,259.857088 150.370117,261.624023 L150.370117,262.095703 C150.370117,263.862639 150.115562,265.502271 149.606445,267.014648 C149.097328,268.527026 148.359868,269.833491 147.394043,270.934082 C146.428218,272.034673 145.245287,272.895667 143.845215,273.51709 C142.445143,274.138512 140.861662,274.449219 139.094727,274.449219 C137.312817,274.449219 135.721849,274.138512 134.321777,273.51709 C132.921705,272.895667 131.738774,272.034673 130.772949,270.934082 C129.807124,269.833491 129.065921,268.527026 128.549316,267.014648 C128.032712,265.502271 127.774414,263.862639 127.774414,262.095703 L127.774414,261.624023 Z M133.232422,262.095703 C133.232422,263.188808 133.344725,264.222 133.569336,265.195312 C133.793946,266.168625 134.145831,267.018388 134.625,267.744629 C135.104169,268.47087 135.714352,269.043618 136.455566,269.462891 C137.196781,269.882164 138.076492,270.091797 139.094727,270.091797 C140.097987,270.091797 140.970211,269.882164 141.711426,269.462891 C142.45264,269.043618 143.05908,268.47087 143.530762,267.744629 C144.002444,267.018388 144.354328,266.168625 144.586426,265.195312 C144.818523,264.222 144.93457,263.188808 144.93457,262.095703 L144.93457,261.624023 C144.93457,260.545893 144.818523,259.523931 144.586426,258.558105 C144.354328,257.59228 143.9987,256.74626 143.519531,256.02002 C143.040362,255.293779 142.430179,254.713544 141.688965,254.279297 C140.94775,253.84505 140.068039,253.62793 139.049805,253.62793 C138.03157,253.62793 137.159346,253.84505 136.433105,254.279297 C135.706865,254.713544 135.104169,255.293779 134.625,256.02002 C134.145831,256.74626 133.793946,257.59228 133.569336,258.558105 C133.344725,259.523931 133.232422,260.545893 133.232422,261.624023 L133.232422,262.095703 Z M173.4375,254.032227 L165.553711,254.032227 L165.553711,274 L160.095703,274 L160.095703,254.032227 L152.301758,254.032227 L152.301758,249.697266 L173.4375,249.697266 L173.4375,254.032227 Z M214.001953,263.353516 C213.852213,264.955737 213.477868,266.434401 212.878906,267.789551 C212.279945,269.144701 211.448899,270.316401 210.385742,271.304688 C209.322586,272.292974 208.023608,273.064125 206.48877,273.618164 C204.953931,274.172203 203.183278,274.449219 201.176758,274.449219 C199.170237,274.449219 197.354663,274.086104 195.72998,273.359863 C194.105298,272.633623 192.720221,271.60043 191.574707,270.260254 C190.429193,268.920078 189.549482,267.299163 188.935547,265.397461 C188.321612,263.495759 188.014648,261.361991 188.014648,258.996094 L188.014648,256.345703 C188.014648,253.99478 188.329098,251.864756 188.958008,249.955566 C189.586917,248.046377 190.485346,246.417975 191.65332,245.070312 C192.821295,243.72265 194.232576,242.68197 195.887207,241.948242 C197.541838,241.214515 199.394847,240.847656 201.446289,240.847656 C203.392913,240.847656 205.114901,241.128415 206.612305,241.689941 C208.109708,242.251468 209.378738,243.030106 210.419434,244.025879 C211.460129,245.021652 212.276201,246.208326 212.867676,247.585938 C213.45915,248.963549 213.837239,250.468416 214.001953,252.100586 L208.341797,252.100586 C208.222005,251.067378 208.016115,250.139002 207.724121,249.31543 C207.432127,248.491858 207.016604,247.791832 206.477539,247.215332 C205.938474,246.638832 205.257166,246.200848 204.433594,245.901367 C203.610022,245.601887 202.614264,245.452148 201.446289,245.452148 C200.158522,245.452148 199.031743,245.695473 198.065918,246.182129 C197.100093,246.668785 196.295251,247.372554 195.651367,248.293457 C195.007484,249.21436 194.524578,250.348626 194.202637,251.696289 C193.880695,253.043952 193.719727,254.578767 193.719727,256.300781 L193.719727,258.996094 C193.719727,260.628263 193.861978,262.11067 194.146484,263.443359 C194.430991,264.776048 194.872718,265.917801 195.47168,266.868652 C196.070641,267.819503 196.841792,268.556964 197.785156,269.081055 C198.72852,269.605146 199.859043,269.867188 201.176758,269.867188 C202.404629,269.867188 203.441565,269.724936 204.287598,269.44043 C205.133631,269.155923 205.833656,268.736656 206.387695,268.182617 C206.941735,267.628578 207.372232,266.94727 207.679199,266.138672 C207.986167,265.330074 208.207031,264.401698 208.341797,263.353516 L214.001953,263.353516 Z M233.722656,249.697266 L239.158203,249.697266 L239.158203,274 L233.722656,274 L233.722656,257.783203 L224.199219,274 L218.763672,274 L218.763672,249.697266 L224.199219,249.697266 L224.199219,265.914062 L233.722656,249.697266 Z M264.089844,254.032227 L256.206055,254.032227 L256.206055,274 L250.748047,274 L250.748047,254.032227 L242.954102,254.032227 L242.954102,249.697266 L264.089844,249.697266 L264.089844,254.032227 Z M282.889648,249.697266 L288.325195,249.697266 L288.325195,274 L282.889648,274 L282.889648,257.783203 L273.366211,274 L267.930664,274 L267.930664,249.697266 L273.366211,249.697266 L273.366211,265.914062 L282.889648,249.697266 Z M308.5625,267.28418 L315.75,249.697266 L322.578125,249.697266 L322.578125,274 L317.120117,274 L317.120117,257.917969 L310.426758,274 L306.720703,274 L300.004883,257.828125 L300.004883,274 L294.546875,274 L294.546875,249.697266 L301.419922,249.697266 L308.5625,267.28418 Z M327.676758,261.624023 C327.676758,259.857088 327.935056,258.221199 328.45166,256.716309 C328.968264,255.211418 329.709468,253.904953 330.675293,252.796875 C331.641118,251.688797 332.820306,250.820316 334.212891,250.191406 C335.605476,249.562497 337.185213,249.248047 338.952148,249.248047 C340.734058,249.248047 342.328769,249.562497 343.736328,250.191406 C345.143887,250.820316 346.330562,251.688797 347.296387,252.796875 C348.262212,253.904953 348.999672,255.211418 349.508789,256.716309 C350.017906,258.221199 350.272461,259.857088 350.272461,261.624023 L350.272461,262.095703 C350.272461,263.862639 350.017906,265.502271 349.508789,267.014648 C348.999672,268.527026 348.262212,269.833491 347.296387,270.934082 C346.330562,272.034673 345.147631,272.895667 343.747559,273.51709 C342.347486,274.138512 340.764006,274.449219 338.99707,274.449219 C337.21516,274.449219 335.624193,274.138512 334.224121,273.51709 C332.824049,272.895667 331.641118,272.034673 330.675293,270.934082 C329.709468,269.833491 328.968264,268.527026 328.45166,267.014648 C327.935056,265.502271 327.676758,263.862639 327.676758,262.095703 L327.676758,261.624023 Z M333.134766,262.095703 C333.134766,263.188808 333.247069,264.222 333.47168,265.195312 C333.69629,266.168625 334.048175,267.018388 334.527344,267.744629 C335.006513,268.47087 335.616696,269.043618 336.35791,269.462891 C337.099125,269.882164 337.978836,270.091797 338.99707,270.091797 C340.000331,270.091797 340.872555,269.882164 341.61377,269.462891 C342.354984,269.043618 342.961423,268.47087 343.433105,267.744629 C343.904788,267.018388 344.256672,266.168625 344.48877,265.195312 C344.720867,264.222 344.836914,263.188808 344.836914,262.095703 L344.836914,261.624023 C344.836914,260.545893 344.720867,259.523931 344.48877,258.558105 C344.256672,257.59228 343.901044,256.74626 343.421875,256.02002 C342.942706,255.293779 342.332523,254.713544 341.591309,254.279297 C340.850094,253.84505 339.970383,253.62793 338.952148,253.62793 C337.933914,253.62793 337.06169,253.84505 336.335449,254.279297 C335.609209,254.713544 335.006513,255.293779 334.527344,256.02002 C334.048175,256.74626 333.69629,257.59228 333.47168,258.558105 C333.247069,259.523931 333.134766,260.545893 333.134766,261.624023 L333.134766,262.095703 Z M366.332031,251.044922 C367.949227,251.044922 369.382969,251.329424 370.633301,251.898438 C371.883633,252.467451 372.939286,253.249832 373.800293,254.245605 C374.6613,255.241379 375.316404,256.42431 375.765625,257.794434 C376.214846,259.164558 376.439453,260.643221 376.439453,262.230469 L376.439453,262.702148 C376.439453,264.394214 376.192385,265.955234 375.698242,267.385254 C375.204099,268.815274 374.485356,270.0581 373.541992,271.11377 C372.598628,272.169439 371.434414,272.992998 370.049316,273.584473 C368.664218,274.175947 367.080738,274.47168 365.298828,274.47168 C363.516918,274.47168 361.937181,274.160973 360.55957,273.539551 C359.181959,272.918128 358.014002,272.064621 357.055664,270.979004 C356.097326,269.893386 355.371096,268.605639 354.876953,267.115723 C354.38281,265.625806 354.135742,264.004892 354.135742,262.25293 L354.135742,260.500977 C354.135742,257.640936 354.401527,255.151541 354.933105,253.032715 C355.464684,250.913889 356.213374,249.120776 357.179199,247.65332 C358.145024,246.185865 359.298008,245.021651 360.638184,244.160645 C361.97836,243.299638 363.471997,242.696942 365.119141,242.352539 C365.927738,242.187825 366.642738,242.023113 367.26416,241.858398 C367.885583,241.693684 368.409666,241.491538 368.836426,241.251953 C369.263186,241.012369 369.588866,240.720379 369.813477,240.375977 C370.038087,240.031574 370.150391,239.597333 370.150391,239.073242 L374.552734,239.073242 C374.552734,240.435879 374.358075,241.551428 373.96875,242.419922 C373.579425,243.288416 373.021651,243.999672 372.29541,244.553711 C371.56917,245.10775 370.689458,245.545734 369.65625,245.867676 C368.623042,246.189617 367.462572,246.48535 366.174805,246.754883 C365.231441,246.964519 364.351729,247.249022 363.535645,247.608398 C362.71956,247.967775 361.989587,248.446937 361.345703,249.045898 C360.70182,249.64486 360.155276,250.38232 359.706055,251.258301 C359.256834,252.134282 358.919923,253.178705 358.695312,254.391602 C359.698573,253.358393 360.832839,252.542321 362.098145,251.943359 C363.36345,251.344398 364.774732,251.044922 366.332031,251.044922 Z M365.253906,255.424805 C364.250646,255.424805 363.389652,255.608234 362.670898,255.975098 C361.952145,256.341961 361.364423,256.836097 360.907715,257.45752 C360.451007,258.078942 360.11784,258.801428 359.908203,259.625 C359.698567,260.448572 359.59375,261.317053 359.59375,262.230469 L359.59375,262.702148 C359.59375,263.720383 359.698567,264.678706 359.908203,265.577148 C360.11784,266.47559 360.451007,267.261715 360.907715,267.935547 C361.364423,268.609378 361.955888,269.140949 362.682129,269.530273 C363.40837,269.919598 364.280594,270.114258 365.298828,270.114258 C366.302088,270.114258 367.166826,269.919598 367.893066,269.530273 C368.619307,269.140949 369.210772,268.609378 369.66748,267.935547 C370.124188,267.261715 370.461099,266.47559 370.678223,265.577148 C370.895346,264.678706 371.003906,263.720383 371.003906,262.702148 L371.003906,262.230469 C371.003906,261.317053 370.895346,260.448572 370.678223,259.625 C370.461099,258.801428 370.124188,258.078942 369.66748,257.45752 C369.210772,256.836097 368.619307,256.341961 367.893066,255.975098 C367.166826,255.608234 366.287115,255.424805 365.253906,255.424805 Z M395.486328,249.697266 L400.921875,249.697266 L400.921875,274 L395.486328,274 L395.486328,257.783203 L385.962891,274 L380.527344,274 L380.527344,249.697266 L385.962891,249.697266 L385.962891,265.914062 L395.486328,249.697266 Z M427.380859,249.697266 L427.380859,274 L421.922852,274 L421.922852,254.099609 L415.094727,254.099609 L414.847656,260.051758 C414.742838,262.357759 414.533205,264.382967 414.21875,266.127441 C413.904295,267.871916 413.406416,269.328119 412.725098,270.496094 C412.043779,271.664068 411.145351,272.540036 410.029785,273.124023 C408.91422,273.708011 407.502938,274 405.795898,274 L404.62793,274 L404.650391,269.395508 L405.458984,269.395508 C406.252608,269.395508 406.892738,269.223309 407.379395,268.878906 C407.866051,268.534503 408.244139,267.987959 408.513672,267.239258 C408.783204,266.490556 408.977864,265.524745 409.097656,264.341797 C409.217449,263.158848 409.314778,261.72885 409.389648,260.051758 L409.838867,249.697266 L427.380859,249.697266 Z" id="ТАКСИПОРТАЦИЯ-от-Сит"></path>
        </g>
    </g>
</svg>