<?xml version="1.0" encoding="UTF-8"?>
<svg width="16px" height="10px" viewBox="0 0 16 10" version="1.1" xmlns="http://www.w3.org/2000/svg" xmlns:xlink="http://www.w3.org/1999/xlink">
    <!-- Generator: Sketch 46.2 (44496) - http://www.bohemiancoding.com/sketch -->
    <title>Shape</title>
    <desc>Created with Sketch.</desc>
    <defs></defs>
    <g id="Page-1" stroke="none" stroke-width="1" fill="none" fill-rule="evenodd">
        <g id="5-product" transform="translate(-72.000000, -607.000000)" fill="#00b956">
            <g id="share" transform="translate(18.000000, 597.000000)">
                <g id="VK" transform="translate(47.000000, 0.000000)">
                    <path d="M15.784664,19.4225501 C15.784664,19.4225501 16.0734289,19.3910556 16.2213328,19.2351193 C16.3567158,19.0922418 16.3520204,18.822618 16.3520204,18.822618 C16.3520204,18.822618 16.3340216,17.5636058 16.9295502,17.3777113 C17.5164706,17.1948896 18.2700765,18.595243 19.0698534,19.1337224 C19.6739902,19.5408465 20.1325707,19.4517401 20.1325707,19.4517401 L22.2697437,19.4225501 C22.2697437,19.4225501 23.3872402,19.3549521 22.8574467,18.4923098 C22.8136233,18.4216391 22.5483353,17.8539698 21.2688487,16.6879047 C19.9283224,15.4673004 20.1083113,15.6647172 21.7219513,13.5530487 C22.7048474,12.2671509 23.0976928,11.4820926 22.9748308,11.1464072 C22.8582293,10.8253168 22.1351433,10.9105824 22.1351433,10.9105824 L19.729552,10.9251775 C19.729552,10.9251775 19.5511282,10.9013645 19.4188754,10.9789486 C19.2897529,11.0549963 19.2060189,11.232441 19.2060189,11.232441 C19.2060189,11.232441 18.8256945,12.2272066 18.3178127,13.0737176 C17.2464872,14.8589187 16.8184266,14.9534022 16.643133,14.8427873 C16.2354189,14.5839178 16.3371518,13.8042366 16.3371518,13.2503941 C16.3371518,11.5197324 16.6047875,10.7984313 15.816749,10.6117687 C15.5553738,10.5495478 15.3628638,10.5088354 14.6937745,10.501922 C13.8353056,10.4934722 13.1090893,10.5049946 12.6974624,10.7024114 C12.4235662,10.8337666 12.2122749,11.1272032 12.3413974,11.1441027 C12.5002572,11.164843 12.8602351,11.2393544 13.0511798,11.4943831 C13.2976864,11.8239232 13.2890783,12.562892 13.2890783,12.562892 C13.2890783,12.562892 13.4307217,14.6000491 12.9580551,14.8527734 C12.634075,15.0263773 12.1895806,14.6722561 11.2340741,13.0522092 C10.7449738,12.2225977 10.3756052,11.3054161 10.3756052,11.3054161 C10.3756052,11.3054161 10.3043921,11.1341166 10.1768348,11.0419376 C10.0226703,10.9305546 9.80746616,10.8959874 9.80746616,10.8959874 L7.52160665,10.9105824 C7.52160665,10.9105824 7.17806255,10.9198003 7.05207029,11.0665187 C6.94016412,11.1963375 7.04346212,11.4659612 7.04346212,11.4659612 C7.04346212,11.4659612 8.83317821,15.576379 10.8600102,17.6481032 C12.7185916,19.5469918 14.828375,19.4225501 14.828375,19.4225501 L15.784664,19.4225501 Z" id="Shape"></path>
                </g>
            </g>
        </g>
    </g>
</svg>
