<?xml version="1.0" encoding="UTF-8"?>
<svg width="10px" height="16px" viewBox="0 0 10 16" version="1.1" xmlns="http://www.w3.org/2000/svg" xmlns:xlink="http://www.w3.org/1999/xlink">
    <!-- Generator: Sketch 46.2 (44496) - http://www.bohemiancoding.com/sketch -->
    <title>Combined Shape</title>
    <desc>Created with Sketch.</desc>
    <defs></defs>
    <g id="Page-1" stroke="none" stroke-width="1" fill="none" fill-rule="evenodd">
        <g id="5-product" transform="translate(-122.000000, -604.000000)" fill="#00b956">
            <g id="share" transform="translate(18.000000, 597.000000)">
                <g id="OK" transform="translate(94.000000, 0.000000)">
                    <path d="M14.9898124,15.2408199 C12.7783765,15.2408199 10.9798602,13.504966 10.9798602,11.370989 C10.9798602,9.23631711 12.7783765,7.5 14.9898124,7.5 C17.2017282,7.5 18.9997646,9.23631711 18.9997646,11.370989 C18.9997646,13.504966 17.2017282,15.2408199 14.9898124,15.2408199 Z M14.9898124,9.76853756 C14.0749589,9.76853756 13.329496,10.4871973 13.329496,11.370989 C13.329496,12.2540858 14.0749589,12.9732087 14.9898124,12.9732087 C15.9053858,12.9732087 16.6501289,12.2540858 16.6501289,11.370989 C16.6501289,10.4871973 15.9053858,9.76853756 14.9898124,9.76853756 Z M16.6224764,18.4001887 L18.8641436,20.5642739 C19.3233698,21.006633 19.3233698,21.7250611 18.8641436,22.1678833 C18.4053972,22.6107056 17.6618537,22.6107056 17.2035872,22.1678833 L14.9995891,20.0413175 L12.7975104,22.1678833 C12.5678972,22.3890628 12.2670249,22.4997684 11.9661525,22.4997684 C11.66576,22.4997684 11.3653675,22.3890628 11.1357543,22.1678833 C10.6770079,21.7250611 10.6770079,21.0070962 11.1352745,20.5642739 L13.3771816,18.4001887 C12.5609393,18.2206974 11.7737285,17.9084985 11.0486597,17.4693819 C10.4999395,17.1354124 10.3351075,16.435744 10.6808468,15.905608 C11.0256264,15.3747771 11.7506952,15.214972 12.3003752,15.5489415 C13.9419771,16.5457548 16.0567212,16.5459864 17.6992828,15.5489415 C18.2489627,15.214972 18.9737917,15.3747771 19.319291,15.905608 C19.6650303,16.4352808 19.4997185,17.1354124 18.9509983,17.4693819 C18.2259295,17.9089617 17.4387187,18.2206974 16.6224764,18.4001887 Z" id="Combined-Shape"></path>
                </g>
            </g>
        </g>
    </g>
</svg>
