<?xml version="1.0" encoding="utf-8"?>
<!-- Generator: Adobe Illustrator 16.0.0, SVG Export Plug-In . SVG Version: 6.00 Build 0)  -->
<!DOCTYPE svg PUBLIC "-//W3C//DTD SVG 1.1//EN" "http://www.w3.org/Graphics/SVG/1.1/DTD/svg11.dtd">
<svg version="1.1" id="Layer_1" xmlns="http://www.w3.org/2000/svg" xmlns:xlink="http://www.w3.org/1999/xlink" x="0px" y="0px"
	 width="436.774px" height="52.466px" viewBox="0 0 436.774 52.466" enable-background="new 0 0 436.774 52.466"
	 xml:space="preserve">
<path fill="#712980" d="M11.215,19.432h5.774V0h-5.774v1.333l-5.441,9.438V0H0v19.432h5.774v-1.333l5.441-9.438V19.432z"/>
<path fill="#712980" d="M40.376,17.808c1.434-1.416,2.151-3.114,2.151-5.094c0-2.017-0.56-3.646-1.679-4.886
	c-1.12-1.24-2.734-1.86-4.844-1.86c-1.203,0-2.304,0.282-3.303,0.847c-1,0.565-1.629,1.328-1.888,2.29
	c0.055-1.666,0.541-2.891,1.457-3.678c0.916-0.786,2.318-1.18,4.206-1.18h4.109V0h-4.025c-3.331,0-5.913,0.87-7.745,2.609
	c-1.832,1.74-2.748,4.285-2.748,7.634c0,2.85,0.754,5.177,2.262,6.982c1.508,1.804,3.585,2.707,6.232,2.707
	C37.004,19.932,38.942,19.224,40.376,17.808z M32.645,14.824c-0.463-0.537-0.694-1.24-0.694-2.11c0-0.87,0.231-1.573,0.694-2.11
	c0.462-0.537,1.092-0.805,1.888-0.805c0.777,0,1.402,0.277,1.874,0.833s0.708,1.249,0.708,2.082s-0.236,1.527-0.708,2.082
	s-1.096,0.833-1.874,0.833C33.737,15.629,33.108,15.361,32.645,14.824z"/>
<path fill="#712980" d="M56.793,6.996c-1.443-1.24-3.313-1.86-5.607-1.86c-2.425,0-4.358,0.662-5.802,1.985
	c-1.444,1.324-2.165,3.133-2.165,5.427c0,2.332,0.717,4.141,2.151,5.427c1.434,1.286,3.41,1.929,5.927,1.929
	c2.017,0,3.701-0.431,5.052-1.291c1.351-0.86,2.146-2.021,2.387-3.484h-5.274c-0.278,0.685-1,1.027-2.166,1.027
	c-0.777,0-1.402-0.204-1.874-0.611c-0.472-0.407-0.726-0.972-0.763-1.693h10.16c0.093-0.667,0.139-1.342,0.139-2.026
	C58.958,9.846,58.237,8.235,56.793,6.996z M49.367,9.105c0.435-0.444,1.022-0.666,1.763-0.666c0.759,0,1.342,0.213,1.749,0.638
	c0.407,0.426,0.62,1.018,0.638,1.777h-4.858C48.697,10.132,48.932,9.549,49.367,9.105z"/>
<path fill="#712980" d="M59.671,14.935c0,1.499,0.573,2.703,1.721,3.609c1.147,0.907,3.026,1.36,5.635,1.36
	c1.888,0,3.521-0.371,4.9-1.11c1.378-0.74,2.068-1.786,2.068-3.137c0-1.055-0.315-1.855-0.944-2.401
	c-0.629-0.546-1.453-0.856-2.471-0.93c0.944-0.092,1.726-0.389,2.346-0.888c0.62-0.5,0.93-1.24,0.93-2.221
	c0-1.333-0.62-2.327-1.86-2.984c-1.24-0.657-2.869-0.985-4.886-0.985c-2.554,0-4.396,0.439-5.524,1.318
	c-1.129,0.879-1.693,1.948-1.693,3.207h5.413c0-0.907,0.555-1.36,1.666-1.36c0.426,0,0.768,0.106,1.027,0.319
	c0.259,0.213,0.388,0.504,0.388,0.875c0,0.426-0.162,0.759-0.486,0.999c-0.324,0.241-0.773,0.361-1.346,0.361H64.89v2.776h1.777
	c1.203,0,1.804,0.454,1.804,1.36c0,0.889-0.5,1.333-1.499,1.333c-1.24,0-1.86-0.5-1.86-1.499H59.671z"/>
<path fill="#712980" d="M74.987,19.654h1.471c1.961,0,3.428-0.592,4.4-1.776c0.972-1.185,1.458-2.85,1.458-4.997V9.994h2.943v9.438
	h5.441V5.635H76.846v7.356c0,1.499-0.444,2.249-1.333,2.249h-0.527V19.654z"/>
<path fill="#712980" d="M102.699,19.432h5.469V5.635h-5.469v1.166l-3.998,6.44V5.635h-5.441v13.796h5.441v-0.944l3.998-6.413V19.432
	z"/>
<path fill="#712980" d="M115.938,19.432V9.716l3.553,9.716h4.275l3.387-9.716v9.716h5.219V5.635h-8.022l-2.748,8.245l-2.748-8.245
	h-8.134v13.796H115.938z"/>
<path fill="#712980" d="M144.358,19.432h5.469V5.635h-5.469v1.166l-3.998,6.44V5.635h-5.441v13.796h5.441v-0.944l3.998-6.413V19.432
	z"/>
<path fill="#712980" d="M151.337,5.635v4.553h3.72v9.244h5.441v-9.244h3.748V5.635H151.337z"/>
<path fill="#712980" d="M171.193,19.432v-4.802h4.053v4.802h5.469V5.635h-5.469v4.719h-4.053V5.635h-5.441v13.796H171.193z"/>
<path fill="#712980" d="M183.249,19.432h7.995c2.017,0,3.525-0.49,4.525-1.471c0.999-0.98,1.499-2.091,1.499-3.331
	c0-1.333-0.486-2.461-1.457-3.387c-0.972-0.925-2.494-1.388-4.566-1.388h-2.554V5.635h-5.441V19.432z M203.736,19.432V5.635h-5.441
	v13.796H203.736z M190.106,13.13c0.518,0,0.92,0.148,1.208,0.444c0.287,0.296,0.43,0.676,0.43,1.138
	c0,0.463-0.148,0.843-0.444,1.138c-0.296,0.296-0.694,0.444-1.194,0.444h-1.416V13.13H190.106z"/>
<path fill="#712980" d="M218.937,6.996c-1.444-1.24-3.313-1.86-5.607-1.86c-2.425,0-4.358,0.662-5.802,1.985
	c-1.444,1.324-2.165,3.133-2.165,5.427c0,2.332,0.717,4.141,2.151,5.427c1.434,1.286,3.41,1.929,5.927,1.929
	c2.017,0,3.701-0.431,5.052-1.291c1.351-0.86,2.146-2.021,2.387-3.484h-5.274c-0.277,0.685-0.999,1.027-2.165,1.027
	c-0.777,0-1.402-0.204-1.874-0.611c-0.472-0.407-0.726-0.972-0.763-1.693h10.16c0.093-0.667,0.139-1.342,0.139-2.026
	C221.102,9.846,220.381,8.235,218.937,6.996z M211.511,9.105c0.435-0.444,1.022-0.666,1.763-0.666c0.759,0,1.341,0.213,1.749,0.638
	c0.407,0.426,0.62,1.018,0.638,1.777h-4.858C210.84,10.132,211.076,9.549,211.511,9.105z"/>
<path fill="#712980" d="M234.898,19.432V9.716l3.553,9.716h4.275l3.387-9.716v9.716h5.219V5.635h-8.022l-2.748,8.245l-2.748-8.245
	h-8.134v13.796H234.898z"/>
<path fill="#712980" d="M266.533,6.996c-1.443-1.24-3.313-1.86-5.607-1.86c-2.425,0-4.358,0.662-5.802,1.985
	c-1.444,1.324-2.165,3.133-2.165,5.427c0,2.332,0.717,4.141,2.151,5.427c1.434,1.286,3.41,1.929,5.927,1.929
	c2.017,0,3.701-0.431,5.052-1.291c1.351-0.86,2.147-2.021,2.387-3.484h-5.274c-0.278,0.685-0.999,1.027-2.165,1.027
	c-0.777,0-1.402-0.204-1.874-0.611c-0.472-0.407-0.727-0.972-0.763-1.693h10.16c0.092-0.667,0.139-1.342,0.139-2.026
	C268.699,9.846,267.977,8.235,266.533,6.996z M259.108,9.105c0.435-0.444,1.022-0.666,1.763-0.666c0.759,0,1.342,0.213,1.749,0.638
	c0.407,0.426,0.62,1.018,0.638,1.777H258.4C258.437,10.132,258.673,9.549,259.108,9.105z"/>
<path fill="#712980" d="M282.631,18.293c1.378-1.073,2.161-2.526,2.346-4.358h-5.441c-0.26,0.981-1.009,1.471-2.249,1.471
	c-0.777,0-1.384-0.254-1.818-0.764c-0.435-0.509-0.652-1.216-0.652-2.124c0-0.906,0.217-1.614,0.652-2.124
	c0.435-0.509,1.041-0.764,1.818-0.764c1.258,0,2.008,0.5,2.249,1.499h5.441c-0.185-1.832-0.967-3.289-2.346-4.372
	c-1.379-1.083-3.16-1.624-5.344-1.624c-2.387,0-4.303,0.676-5.746,2.027s-2.165,3.137-2.165,5.357s0.722,4.007,2.165,5.358
	s3.359,2.026,5.746,2.026C279.471,19.904,281.252,19.367,282.631,18.293z"/>
<path fill="#712980" d="M298.895,18.293c1.378-1.073,2.161-2.526,2.346-4.358H295.8c-0.259,0.981-1.009,1.471-2.249,1.471
	c-0.777,0-1.383-0.254-1.818-0.764c-0.436-0.509-0.652-1.216-0.652-2.124c0-0.906,0.217-1.614,0.652-2.124
	c0.435-0.509,1.041-0.764,1.818-0.764c1.258,0,2.008,0.5,2.249,1.499h5.441c-0.185-1.832-0.967-3.289-2.346-4.372
	c-1.378-1.083-3.16-1.624-5.344-1.624c-2.387,0-4.303,0.676-5.746,2.027c-1.444,1.351-2.165,3.137-2.165,5.357
	s0.722,4.007,2.165,5.358c1.443,1.351,3.359,2.026,5.746,2.026C295.735,19.904,297.517,19.367,298.895,18.293z"/>
<path fill="#712980" d="M315.479,6.996c-1.444-1.24-3.313-1.86-5.607-1.86c-2.425,0-4.358,0.662-5.802,1.985
	c-1.444,1.324-2.166,3.133-2.166,5.427c0,2.332,0.717,4.141,2.151,5.427c1.434,1.286,3.41,1.929,5.927,1.929
	c2.017,0,3.701-0.431,5.052-1.291c1.351-0.86,2.146-2.021,2.387-3.484h-5.274c-0.277,0.685-0.999,1.027-2.165,1.027
	c-0.777,0-1.402-0.204-1.874-0.611c-0.472-0.407-0.726-0.972-0.763-1.693h10.16c0.092-0.667,0.139-1.342,0.139-2.026
	C317.644,9.846,316.923,8.235,315.479,6.996z M308.053,9.105c0.435-0.444,1.022-0.666,1.763-0.666c0.759,0,1.341,0.213,1.749,0.638
	c0.407,0.426,0.62,1.018,0.639,1.777h-4.858C307.383,10.132,307.618,9.549,308.053,9.105z"/>
<path fill="#712980" d="M324.756,19.432v-4.802h4.053v4.802h5.469V5.635h-5.469v4.719h-4.053V5.635h-5.441v13.796H324.756z"/>
<path fill="#712980" d="M352.755,5.635h-13.963v6.607c0,0.648-0.135,1.208-0.402,1.679c-0.269,0.472-0.662,0.764-1.18,0.875h-1.499
	v7.967h5.33v-3.332h7.967v3.359h5.274v-7.995h-1.527V5.635z M347.286,9.355v5.996h-4.275c0.647-0.888,0.971-1.952,0.971-3.192V9.355
	H347.286z"/>
<path fill="#712980" d="M376.131,12.381c0.629,0,1.138-0.268,1.527-0.805l0.75-1.083c0.333-0.518,0.768-0.777,1.305-0.777h0.333
	V5.497h-1.36c-1.203,0-2.073,0.125-2.609,0.375s-1.045,0.745-1.527,1.485l-1.915,2.998c-0.389,0.648-0.852,0.971-1.388,0.971h-0.417
	v-5.69h-5.441v5.69h-0.417c-0.537,0-0.999-0.323-1.388-0.971l-1.916-2.998c-0.481-0.74-0.99-1.235-1.527-1.485
	c-0.537-0.25-1.407-0.375-2.609-0.375h-1.36v4.219h0.333c0.537,0,0.972,0.259,1.305,0.777l0.75,1.083
	c0.388,0.537,0.897,0.805,1.526,0.805h0.222l-5.024,7.051h6.246l3.858-5.802v5.802h5.441V13.63l3.859,5.802h6.246l-5.024-7.051
	H376.131z"/>
<path fill="#712980" d="M394.73,6.996c-1.443-1.24-3.313-1.86-5.607-1.86c-2.425,0-4.358,0.662-5.802,1.985
	c-1.444,1.324-2.166,3.133-2.166,5.427c0,2.332,0.717,4.141,2.151,5.427c1.434,1.286,3.41,1.929,5.927,1.929
	c2.017,0,3.701-0.431,5.052-1.291c1.351-0.86,2.146-2.021,2.388-3.484h-5.274c-0.278,0.685-1,1.027-2.166,1.027
	c-0.777,0-1.402-0.204-1.874-0.611c-0.472-0.407-0.726-0.972-0.763-1.693h10.16c0.092-0.667,0.139-1.342,0.139-2.026
	C396.895,9.846,396.173,8.235,394.73,6.996z M387.304,9.105c0.435-0.444,1.022-0.666,1.763-0.666c0.759,0,1.341,0.213,1.749,0.638
	c0.407,0.426,0.62,1.018,0.638,1.777h-4.858C386.633,10.132,386.869,9.549,387.304,9.105z"/>
<path fill="#712980" d="M405.614,5.94c-0.787,0.463-1.337,1.046-1.652,1.749V5.635h-5.441v19.071h5.441v-7.329
	c0.314,0.685,0.856,1.263,1.624,1.735c0.768,0.472,1.67,0.708,2.707,0.708c1.832,0,3.331-0.67,4.497-2.012s1.749-3.096,1.749-5.261
	c0-2.184-0.574-3.946-1.721-5.288c-1.148-1.342-2.628-2.013-4.442-2.013C407.321,5.247,406.4,5.478,405.614,5.94z M403.74,12.547
	c0-0.87,0.24-1.573,0.722-2.11c0.481-0.537,1.101-0.805,1.86-0.805s1.378,0.269,1.86,0.805c0.481,0.537,0.722,1.24,0.722,2.11
	c0,0.852-0.241,1.555-0.722,2.11c-0.482,0.555-1.102,0.833-1.86,0.833s-1.379-0.272-1.86-0.819
	C403.98,14.125,403.74,13.417,403.74,12.547z"/>
<path fill="#712980" d="M416.287,19.432h7.995c2.017,0,3.525-0.49,4.524-1.471c1-0.98,1.499-2.091,1.499-3.331
	c0-1.333-0.485-2.461-1.457-3.387c-0.972-0.925-2.494-1.388-4.566-1.388h-2.554V5.635h-5.441V19.432z M436.774,19.432V5.635h-5.441
	v13.796H436.774z M423.144,13.13c0.518,0,0.92,0.148,1.208,0.444c0.287,0.296,0.43,0.676,0.43,1.138
	c0,0.463-0.148,0.843-0.444,1.138c-0.296,0.296-0.694,0.444-1.193,0.444h-1.416V13.13H423.144z"/>
<path fill="#712980" d="M5.441,47.192v-4.803h4.053v4.803h5.469V33.395H9.494v4.719H5.441v-4.719H0v13.797H5.441z"/>
<path fill="#712980" d="M25.636,46.9c0.768-0.454,1.309-1.041,1.624-1.763v2.055h5.469V33.395H27.26v2.054
	c-0.333-0.74-0.87-1.333-1.61-1.777c-0.74-0.444-1.629-0.666-2.665-0.666c-1.888,0-3.406,0.68-4.553,2.041
	c-1.148,1.36-1.721,3.114-1.721,5.26c0,2.147,0.564,3.896,1.693,5.247c1.129,1.351,2.646,2.026,4.553,2.026
	C23.975,47.58,24.868,47.354,25.636,46.9z M23.041,42.389c-0.463-0.537-0.694-1.23-0.694-2.082c0-0.851,0.231-1.55,0.694-2.096
	c0.462-0.546,1.083-0.819,1.86-0.819c0.796,0,1.43,0.273,1.902,0.819s0.708,1.245,0.708,2.096c0,0.833-0.236,1.522-0.708,2.068
	s-1.106,0.819-1.902,0.819C24.123,43.194,23.503,42.926,23.041,42.389z"/>
<path fill="#712980" d="M41.612,33.395v4.553h3.72v9.244h5.441v-9.244h3.747v-4.553H41.612z"/>
<path fill="#712980" d="M64.281,46.9c0.768-0.454,1.309-1.041,1.624-1.763v2.055h5.469V33.395h-5.469v2.054
	c-0.333-0.74-0.87-1.333-1.61-1.777c-0.74-0.444-1.629-0.666-2.665-0.666c-1.888,0-3.405,0.68-4.553,2.041
	c-1.148,1.36-1.721,3.114-1.721,5.26c0,2.147,0.564,3.896,1.693,5.247c1.129,1.351,2.646,2.026,4.552,2.026
	C62.619,47.58,63.512,47.354,64.281,46.9z M61.685,42.389c-0.463-0.537-0.694-1.23-0.694-2.082c0-0.851,0.231-1.55,0.694-2.096
	c0.462-0.546,1.083-0.819,1.86-0.819c0.795,0,1.429,0.273,1.901,0.819s0.708,1.245,0.708,2.096c0,0.833-0.236,1.522-0.708,2.068
	s-1.106,0.819-1.901,0.819C62.768,43.194,62.147,42.926,61.685,42.389z"/>
<path fill="#712980" d="M81.017,33.7c-0.787,0.463-1.337,1.046-1.652,1.749v-2.054h-5.441v19.071h5.441v-7.329
	c0.314,0.685,0.856,1.263,1.624,1.735c0.768,0.472,1.67,0.708,2.707,0.708c1.832,0,3.331-0.67,4.497-2.012
	c1.166-1.342,1.749-3.095,1.749-5.261c0-2.184-0.574-3.946-1.721-5.288c-1.148-1.342-2.628-2.013-4.442-2.013
	C82.724,33.006,81.803,33.238,81.017,33.7z M79.143,40.307c0-0.87,0.24-1.573,0.722-2.11c0.481-0.537,1.101-0.805,1.86-0.805
	c0.759,0,1.378,0.268,1.86,0.805c0.481,0.537,0.722,1.24,0.722,2.11c0,0.852-0.241,1.555-0.722,2.11
	c-0.482,0.555-1.101,0.833-1.86,0.833c-0.759,0-1.379-0.273-1.86-0.819C79.383,41.885,79.143,41.177,79.143,40.307z"/>
<path fill="#712980" d="M101.129,47.192h5.469V33.395h-5.469v1.166l-3.998,6.44v-7.606H91.69v13.797h5.441v-0.944l3.998-6.412
	V47.192z"/>
<path fill="#712980" d="M120.613,33.062V27.76h-5.469v5.302c-2.147,0.185-3.845,0.972-5.094,2.359
	c-1.249,1.388-1.874,3.017-1.874,4.886c0,1.851,0.625,3.466,1.874,4.844c1.249,1.379,2.947,2.161,5.094,2.346v4.969h5.469v-4.969
	c2.165-0.185,3.868-0.962,5.108-2.332c1.24-1.369,1.86-2.988,1.86-4.858c0-1.869-0.625-3.498-1.874-4.886
	C124.458,34.034,122.76,33.247,120.613,33.062L120.613,33.062z M114.131,38.267c0.453-0.546,1.059-0.819,1.818-0.819h0.028v5.719
	h-0.028c-0.759,0-1.365-0.278-1.818-0.833c-0.454-0.555-0.68-1.23-0.68-2.026C113.451,39.493,113.677,38.813,114.131,38.267z
	 M119.753,43.167v-5.719h0.028c0.777,0,1.388,0.273,1.832,0.819c0.444,0.546,0.666,1.226,0.666,2.04c0,0.814-0.227,1.495-0.68,2.041
	c-0.454,0.546-1.06,0.819-1.818,0.819H119.753z"/>
<path fill="#712980" d="M137.288,46.9c0.768-0.454,1.309-1.041,1.624-1.763v2.055h5.469V33.395h-5.469v2.054
	c-0.333-0.74-0.87-1.333-1.61-1.777c-0.74-0.444-1.629-0.666-2.665-0.666c-1.888,0-3.405,0.68-4.552,2.041
	c-1.148,1.36-1.721,3.114-1.721,5.26c0,2.147,0.564,3.896,1.693,5.247c1.129,1.351,2.646,2.026,4.553,2.026
	C135.627,47.58,136.52,47.354,137.288,46.9z M134.693,42.389c-0.463-0.537-0.694-1.23-0.694-2.082c0-0.851,0.231-1.55,0.694-2.096
	c0.462-0.546,1.083-0.819,1.86-0.819c0.795,0,1.43,0.273,1.902,0.819c0.472,0.546,0.708,1.245,0.708,2.096
	c0,0.833-0.236,1.522-0.708,2.068c-0.472,0.546-1.106,0.819-1.902,0.819C135.775,43.194,135.155,42.926,134.693,42.389z"/>
<path fill="#712980" d="M151.885,47.192l2.026-3.692l2.026,3.692h6.385l-4.941-6.968l4.858-6.829h-6.385l-1.943,3.525l-1.943-3.525
	h-6.385l4.858,6.829l-4.941,6.968H151.885z"/>
<path fill="#712980" d="M185.488,35.81c0.675-0.795,1.013-1.804,1.013-3.026c0-1.536-0.555-2.757-1.666-3.664
	s-2.619-1.36-4.525-1.36h-9.494v19.432h9.716c1.925,0,3.451-0.486,4.58-1.458c1.129-0.972,1.693-2.271,1.693-3.9
	c0-1.277-0.37-2.313-1.11-3.109c-0.74-0.796-1.721-1.268-2.943-1.416C183.901,37.105,184.812,36.606,185.488,35.81z M180.116,32.021
	c0.407,0.361,0.611,0.856,0.611,1.485c0,0.648-0.208,1.157-0.625,1.527c-0.417,0.371-0.977,0.555-1.68,0.555h-1.832v-4.108h1.832
	C179.145,31.479,179.709,31.66,180.116,32.021z M176.591,43.167v-4.22h1.999c0.703,0,1.267,0.19,1.693,0.569
	c0.426,0.379,0.638,0.884,0.638,1.513c0,0.648-0.208,1.166-0.625,1.555c-0.417,0.389-0.995,0.583-1.735,0.583H176.591z"/>
<path fill="#712980" d="M199.323,40.141c0.629,0,1.138-0.268,1.527-0.805l0.75-1.083c0.333-0.518,0.768-0.777,1.305-0.777h0.333
	v-4.219h-1.36c-1.203,0-2.073,0.125-2.609,0.375c-0.537,0.25-1.046,0.745-1.527,1.485l-1.916,2.998
	c-0.389,0.648-0.851,0.972-1.388,0.972h-0.417v-5.691h-5.441v13.797h5.441V41.39l3.859,5.802h6.246l-5.025-7.051H199.323z"/>
<path fill="#712980" d="M205.103,47.414h1.471c1.961,0,3.428-0.592,4.4-1.776c0.972-1.184,1.458-2.85,1.458-4.997v-2.887h2.942
	v9.438h5.441V33.395h-13.852v7.356c0,1.499-0.444,2.249-1.333,2.249h-0.527V47.414z"/>
<path fill="#712980" d="M232.551,34.367c-1.379,0.981-2.272,2.304-2.679,3.97h-1.055v-4.941h-5.441v13.797h5.441v-5.025h1.055
	c0.388,1.685,1.272,3.021,2.651,4.011c1.378,0.99,3.095,1.485,5.149,1.485c2.443,0,4.395-0.68,5.857-2.041
	c1.462-1.36,2.193-3.141,2.193-5.344c0-2.202-0.731-3.983-2.193-5.344c-1.462-1.36-3.414-2.04-5.857-2.04
	C235.637,32.896,233.93,33.386,232.551,34.367z M235.799,42.375c-0.472-0.546-0.708-1.245-0.708-2.096
	c0-0.851,0.236-1.55,0.708-2.096s1.096-0.819,1.874-0.819c0.795,0,1.425,0.269,1.888,0.805c0.462,0.537,0.694,1.24,0.694,2.11
	c0,0.87-0.231,1.573-0.694,2.11c-0.463,0.537-1.092,0.805-1.888,0.805C236.896,43.194,236.271,42.921,235.799,42.375z"/>
<path fill="#712980" d="M260.963,47.192V33.395h-5.469v6.052c-0.333,0.315-0.87,0.472-1.61,0.472c-1.166,0-1.749-0.666-1.749-1.999
	v-4.525h-5.552v5.357c0,1.573,0.495,2.767,1.485,3.581c0.99,0.815,2.41,1.222,4.261,1.222c1.11,0,2.165-0.204,3.165-0.611v4.248
	H260.963z"/>
<path fill="#712980" d="M271.651,46.9c0.768-0.454,1.309-1.041,1.624-1.763v2.055h5.469V33.395h-5.469v2.054
	c-0.333-0.74-0.87-1.333-1.61-1.777c-0.74-0.444-1.629-0.666-2.665-0.666c-1.888,0-3.406,0.68-4.552,2.041
	c-1.148,1.36-1.721,3.114-1.721,5.26c0,2.147,0.564,3.896,1.693,5.247c1.128,1.351,2.646,2.026,4.552,2.026
	C269.989,47.58,270.882,47.354,271.651,46.9z M269.055,42.389c-0.463-0.537-0.694-1.23-0.694-2.082c0-0.851,0.231-1.55,0.694-2.096
	c0.462-0.546,1.083-0.819,1.86-0.819c0.796,0,1.43,0.273,1.902,0.819s0.708,1.245,0.708,2.096c0,0.833-0.236,1.522-0.708,2.068
	s-1.106,0.819-1.902,0.819C270.138,43.194,269.517,42.926,269.055,42.389z"/>
<path fill="#712980" d="M292.37,31.604c0.944-0.712,1.453-1.698,1.527-2.957h-3.692c-0.056,0.962-0.583,1.444-1.583,1.444
	c-1.018,0-1.554-0.481-1.61-1.444h-3.665c0.056,1.277,0.537,2.267,1.444,2.97c0.906,0.704,2.184,1.055,3.831,1.055
	C290.177,32.673,291.427,32.317,292.37,31.604z M290.733,47.192h5.469V33.395h-5.469v1.166l-3.998,6.44v-7.606h-5.441v13.797h5.441
	v-0.944l3.998-6.412V47.192z"/>
<path fill="#712980" d="M311.036,46.053c1.378-1.073,2.161-2.526,2.346-4.358h-5.441c-0.259,0.981-1.009,1.471-2.249,1.471
	c-0.777,0-1.383-0.254-1.818-0.764c-0.435-0.509-0.652-1.216-0.652-2.124c0-0.906,0.217-1.614,0.652-2.124
	c0.435-0.509,1.041-0.763,1.818-0.763c1.258,0,2.008,0.5,2.249,1.499h5.441c-0.185-1.833-0.967-3.29-2.346-4.373
	c-1.379-1.083-3.16-1.624-5.344-1.624c-2.387,0-4.303,0.676-5.746,2.026c-1.444,1.351-2.166,3.137-2.166,5.357
	c0,2.221,0.722,4.007,2.166,5.358c1.443,1.351,3.359,2.026,5.746,2.026C307.876,47.664,309.657,47.127,311.036,46.053z"/>
<path fill="#712980" d="M320.3,47.192l2.276-3.554h0.943v3.554h5.414V33.395h-9.188c-1.555,0-2.846,0.481-3.873,1.443
	c-1.027,0.962-1.541,2.138-1.541,3.525c0,0.981,0.236,1.874,0.708,2.679c0.472,0.805,1.18,1.411,2.124,1.818l-3.109,4.331H320.3z
	 M320.355,39.752c-0.315-0.333-0.472-0.74-0.472-1.221c0-0.481,0.157-0.889,0.472-1.222c0.314-0.333,0.722-0.5,1.222-0.5h1.943
	v3.442h-1.943C321.077,40.251,320.669,40.085,320.355,39.752z"/>
<path fill="#712980" d="M337.768,39.835V27.76h-5.746v12.076H337.768z M338.323,44.11c0-0.925-0.333-1.716-1-2.374
	c-0.666-0.657-1.48-0.985-2.443-0.985s-1.772,0.329-2.429,0.985c-0.657,0.657-0.985,1.448-0.985,2.374
	c0,0.944,0.328,1.745,0.985,2.401c0.657,0.657,1.466,0.985,2.429,0.985s1.777-0.329,2.443-0.985
	C337.99,45.855,338.323,45.054,338.323,44.11L338.323,44.11z"/>
</svg>
