<?xml version="1.0" encoding="utf-8"?>
<!-- Generator: Adobe Illustrator 16.0.0, SVG Export Plug-In . SVG Version: 6.00 Build 0)  -->
<!DOCTYPE svg PUBLIC "-//W3C//DTD SVG 1.1//EN" "http://www.w3.org/Graphics/SVG/1.1/DTD/svg11.dtd">
<svg version="1.1" id="Layer_1" xmlns="http://www.w3.org/2000/svg" xmlns:xlink="http://www.w3.org/1999/xlink" x="0px" y="0px"
	 width="184.235px" height="131.285px" viewBox="0 0 184.235 131.285" enable-background="new 0 0 184.235 131.285"
	 xml:space="preserve">
<polygon fill="#F59D21" points="174.072,0 0,15.23 10.154,131.285 184.235,116.055 184.235,116.044 174.082,0 "/>
<path fill="#FFFFFF" d="M64.705,44.334c0.332,3.8-0.347,7.243-2.035,10.329l-11.5,19.707l-15.443,1.352l7.167-11.981
	c-4.705-0.345-8.543-1.958-11.51-4.837c-2.968-2.879-4.653-6.616-5.055-11.212c-0.456-5.214,0.918-9.598,4.125-13.151
	c3.206-3.553,7.703-5.583,13.492-6.089c5.788-0.506,10.582,0.71,14.379,3.651C62.122,35.042,64.248,39.121,64.705,44.334z
	 M40.574,41.436c-1.014,1.381-1.432,3.087-1.254,5.119c0.178,2.033,0.887,3.652,2.127,4.856c1.241,1.206,2.79,1.726,4.646,1.564
	c1.899-0.166,3.346-0.938,4.339-2.317c0.992-1.377,1.397-3.105,1.216-5.181c-0.178-2.033-0.875-3.641-2.092-4.827
	c-1.217-1.185-2.775-1.693-4.675-1.527C43.025,39.285,41.59,40.056,40.574,41.436z"/>
<path fill="#FFFFFF" d="M104.936,40.814c0.333,3.8-0.345,7.243-2.035,10.33L91.401,70.851l-15.442,1.351l7.166-11.981
	c-4.705-0.345-8.543-1.958-11.51-4.837c-2.968-2.879-4.652-6.616-5.055-11.212c-0.456-5.214,0.918-9.598,4.125-13.151
	c3.206-3.553,7.703-5.583,13.493-6.089c5.787-0.506,10.581,0.71,14.377,3.651C102.354,31.522,104.479,35.601,104.936,40.814z
	 M80.807,37.916c-1.015,1.381-1.434,3.086-1.255,5.12c0.178,2.032,0.887,3.652,2.127,4.855c1.241,1.206,2.79,1.727,4.646,1.564
	c1.899-0.166,3.346-0.938,4.339-2.317c0.991-1.377,1.398-3.105,1.217-5.182c-0.178-2.033-0.877-3.641-2.093-4.827
	c-1.217-1.184-2.775-1.693-4.675-1.527C83.256,35.765,81.821,36.536,80.807,37.916z"/>
<text transform="matrix(0.9962 -0.0872 0.0872 0.9962 108.9648 69.314)" fill="#FFFFFF" font-family="'GTWalsheimv2Manual-Black'" font-size="54.2123"> </text>
<path fill="#FFFFFF" d="M135.971,58.297l0.193,2.214l5.67-0.497l0.317,3.618l-5.67,0.497l0.241,2.754l-11.232,0.984l-0.241-2.754
	l-3.402,0.298l-0.316-3.618l3.401-0.298l-0.193-2.214l-3.402,0.298l-0.762-8.694l3.402-0.298l-1.703-19.44l15.931-1.396
	c8.1-0.709,15.105,4.717,15.814,12.817c0.71,8.1-5.25,14.608-13.351,15.317L135.971,58.297z M135.209,49.603l2.861-0.25
	c2.862-0.251,4.824-2.708,4.554-5.786c-0.27-3.078-2.628-5.157-5.436-4.911l-2.916,0.255L135.209,49.603z"/>
<path fill="#FFFFFF" d="M30.348,89.196l10.994-0.962c1.876-0.164,3.256,0.155,4.141,0.957c0.885,0.803,1.372,1.711,1.46,2.725
	c0.095,1.078-0.24,1.976-1.002,2.693c-0.763,0.719-1.788,1.166-3.076,1.345c3.116-0.142,4.783,1.038,5.002,3.538
	c0.039,0.452-0.018,0.914-0.172,1.383c-0.154,0.471-0.421,0.961-0.8,1.471c-0.38,0.512-0.977,0.949-1.792,1.314
	c-0.815,0.363-1.794,0.597-2.937,0.697l-10.412,0.91L30.348,89.196z M38.809,95.037c0.561-0.049,0.99-0.232,1.288-0.551
	c0.298-0.32,0.426-0.717,0.385-1.19c-0.042-0.476-0.231-0.844-0.569-1.106c-0.339-0.266-0.788-0.372-1.348-0.323l-1.617,0.142
	l0.277,3.168L38.809,95.037z M37.479,98.087l0.282,3.232l1.617-0.141c0.582-0.051,1.026-0.236,1.336-0.557
	c0.309-0.32,0.442-0.719,0.401-1.193c-0.043-0.494-0.24-0.879-0.59-1.153c-0.35-0.273-0.815-0.384-1.398-0.333L37.479,98.087z"/>
<path fill="#FFFFFF" d="M65.076,102.906c-2.781,0.244-5.082-0.348-6.9-1.774c-1.819-1.427-2.843-3.434-3.068-6.021
	c-0.227-2.588,0.433-4.741,1.977-6.462c1.543-1.72,3.706-2.702,6.487-2.946c2.543-0.223,4.674,0.227,6.39,1.347
	s2.776,2.739,3.178,4.854l-6.337,0.555c-0.383-1.14-1.307-1.646-2.772-1.517c-0.906,0.079-1.586,0.438-2.04,1.075
	c-0.455,0.637-0.636,1.483-0.544,2.54c0.093,1.056,0.418,1.859,0.977,2.407c0.558,0.548,1.29,0.782,2.195,0.703
	c1.444-0.126,2.268-0.774,2.47-1.942l6.338-0.554c-0.028,2.152-0.792,3.925-2.288,5.315
	C69.64,101.876,67.619,102.683,65.076,102.906z"/>
<path fill="#FFFFFF" d="M84.543,84.455l6.339-0.555l1.312,15.004c0.229,2.608-0.407,4.662-1.904,6.162
	c-1.382,1.338-3.442,2.127-6.181,2.366c-2.889,0.253-5.07-0.11-6.546-1.091c-0.671-0.461-1.239-1.059-1.704-1.787
	c-0.467-0.731-0.734-1.496-0.804-2.293l6.338-0.555c0.161,1.094,0.941,1.578,2.343,1.456c1.617-0.142,2.35-1.074,2.199-2.799
	l-0.258-2.942c-0.744,1.912-2.335,2.973-4.771,3.187c-3.967,0.347-6.149-1.764-6.55-6.334l-0.775-8.86l6.339-0.555l0.71,8.116
	c0.164,1.876,0.979,2.749,2.444,2.621c1.617-0.142,2.328-1.322,2.134-3.543L84.543,84.455z"/>
<path fill="#FFFFFF" d="M107.179,82.473l0.464,5.304l-4.364,0.382l0.942,10.769l-6.339,0.555l-0.942-10.77l-4.334,0.38l-0.464-5.304
	L107.179,82.473z"/>
<path fill="#FFFFFF" d="M121.384,89.149l6.572,7.702l-7.276,0.636l-5.086-6.365l0.592,6.759l-6.338,0.555l-1.406-16.072l6.338-0.555
	l0.58,6.63l0.484-0.042c0.625-0.055,1.131-0.479,1.518-1.273l1.926-3.688c0.485-0.912,1.027-1.54,1.627-1.887
	c0.6-0.346,1.601-0.579,3.001-0.701l1.585-0.139l0.431,4.914l-0.389,0.034c-0.625,0.055-1.104,0.401-1.44,1.038l-0.762,1.338
	c-0.398,0.665-0.965,1.029-1.697,1.094L121.384,89.149z"/>
<path fill="#FFFFFF" d="M139.461,87.209l-4.003,7.876l0.097,1.1l-6.338,0.555l-1.406-16.071l6.338-0.555l0.774,8.86l4-7.909
	l-0.118-1.358l6.37-0.558l1.406,16.071l-6.37,0.559L139.461,87.209z"/>
</svg>
