<?xml version="1.0" encoding="utf-8"?>
<!-- Generator: Adobe Illustrator 16.0.0, SVG Export Plug-In . SVG Version: 6.00 Build 0)  -->
<!DOCTYPE svg PUBLIC "-//W3C//DTD SVG 1.1//EN" "http://www.w3.org/Graphics/SVG/1.1/DTD/svg11.dtd">
<svg version="1.1" id="Layer_1" xmlns="http://www.w3.org/2000/svg" xmlns:xlink="http://www.w3.org/1999/xlink" x="0px" y="0px"
	 width="337.552px" height="60px" viewBox="0 0 337.552 60" enable-background="new 0 0 337.552 60" xml:space="preserve">
<path fill="#FFFFFF" d="M50.682,46.365c-2.072,0-3.752-1.677-3.752-3.748s1.68-3.75,3.752-3.75c2.068,0,3.748,1.679,3.748,3.75
	S52.75,46.365,50.682,46.365 M41.889,46.365c-2.068,0-3.747-1.677-3.747-3.748s1.679-3.75,3.747-3.75c2.07,0,3.753,1.679,3.753,3.75
	S43.958,46.365,41.889,46.365 M33.096,46.365c-2.074,0-3.75-1.677-3.75-3.748s1.676-3.75,3.75-3.75c2.07,0,3.749,1.679,3.749,3.75
	S35.166,46.365,33.096,46.365 M33.706,0.226v30.935v0.017l-0.003,0.005c-0.013,1.342-1.104,2.424-2.448,2.424h-3.69
	c-0.184,0-0.332,0.147-0.332,0.332v25.935C28.144,59.958,29.065,60,30.003,60c16.568,0,30.001-13.431,30.001-30.002
	C60.004,14.686,48.53,2.049,33.706,0.226"/>
<path fill="#FFFFFF" d="M24.252,24.739c-2.07,0-3.749-1.681-3.749-3.75c0-2.07,1.679-3.75,3.749-3.75c2.073,0,3.752,1.68,3.752,3.75
	C28.004,23.058,26.325,24.739,24.252,24.739 M30.003,0C13.433,0,0,13.431,0,29.998c0,14.385,10.122,26.4,23.626,29.322V32.398h0.003
	c0.027-1.298,1.062-2.346,2.352-2.396l0.003-0.004h1.249h2.535c0.179,0,0.323-0.137,0.331-0.313l0.004-29.681L30.003,0z"/>
<polygon fill="#FFFFFF" points="330.058,16.495 330.058,27.817 314.858,27.817 314.858,16.495 307.362,16.495 307.362,46.388 
	314.858,46.388 314.858,34.307 330.058,34.307 330.058,46.388 337.552,46.388 337.552,16.495 "/>
<path fill="#FFFFFF" d="M193.912,34.094l4.615-10.855c0.142-0.339,0.407-0.426,0.607-0.426h0.003h0.001
	c0.199,0,0.466,0.087,0.609,0.426l4.614,10.855H193.912z M205.29,19.829c-1.25-2.713-3.748-4.046-6.15-4.046h-0.001h-0.001h-0.003
	c-2.405,0-4.901,1.333-6.151,4.046l-12.251,26.56h7.97l2.67-6.312h15.53l2.672,6.312h7.967L205.29,19.829z"/>
<path fill="#FFFFFF" d="M116.139,11.083c-3.509,0-5.746,1.868-7.407,5.632l-9.769,22.497l-9.775-22.497
	c-1.658-3.764-3.895-5.632-7.408-5.632c-3.281,0-6.673,2.348-6.673,7.453v27.853h7.485V19.3l9.83,22.304
	c1.319,3.118,3.445,5.077,6.537,5.077h0.004h0.002c3.09,0,5.214-1.959,6.537-5.077L115.33,19.3v27.088h7.486V18.536
	C122.816,13.431,119.419,11.083,116.139,11.083"/>
<path fill="#FFFFFF" d="M135.935,40.072c-0.361,0-0.644-0.294-0.644-0.646v-5.332h18.679V28h-18.679v-4.548
	c0-0.345,0.283-0.641,0.644-0.641h18.471v-6.317h-22.155c-2.594,0-4.459,2.172-4.459,4.458v20.979c0,2.289,1.865,4.458,4.459,4.458
	h22.155v-6.317H135.935z"/>
<path fill="#FFFFFF" d="M167.117,46.388V23.453c0-0.344,0.284-0.64,0.646-0.64h18.472v-6.317h-22.157
	c-2.596,0-4.459,2.171-4.459,4.457v25.436H167.117z"/>
<path fill="#FFFFFF" d="M286.444,40.492h-2.396c-6.25,0-8.665-2.812-8.665-9.071V31.4c0-6.082,2.124-9.068,8.665-9.068h2.396
	c6.356,0,8.662,2.987,8.662,9.061v0.028C295.106,37.68,292.646,40.492,286.444,40.492 M302.404,31.392
	c-0.004-10.471-4.501-15.352-15.847-15.352h-2.621c-11.348,0-15.845,4.881-15.849,15.352v0.015c0,10.304,4.593,15.273,15.916,15.273
	h2.487c11.316,0,15.913-4.97,15.913-15.273V31.392z"/>
<path fill="#FFFFFF" d="M254.956,31.393c-1.118,2.961-2.942,4.854-8.013,4.854h-3.432V18.089h4.607c4.315,0,7.264,2.698,7.264,9.075
	C255.383,28.806,255.386,30.251,254.956,31.393 M236.033,36.247h-3.433c-5.069,0-6.896-1.893-8.014-4.854
	c-0.43-1.142-0.428-2.587-0.428-4.229c0-6.377,2.949-9.075,7.268-9.075h4.606V36.247z M247.189,11.787h-14.837
	c-11.067,0-15.495,5.599-15.495,15.366c0,1.527,0.09,2.939,0.311,4.24c1.172,6.913,5.239,11.163,15.604,11.163h3.261v3.832h7.479
	v-3.832h3.259c10.368,0,14.433-4.25,15.605-11.163c0.219-1.301,0.309-2.713,0.309-4.24C262.685,17.386,258.26,11.787,247.189,11.787
	"/>
</svg>
