<svg xmlns="http://www.w3.org/2000/svg" viewBox="0 0 500 163.99"><defs><style>.cls-1,.cls-2{fill:#fff;}.cls-2{fill-rule:evenodd;}</style></defs><title>logo-vezet</title><g id="Layer_2" data-name="Layer 2"><g id="Layer_1-2" data-name="Layer 1"><path class="cls-1" d="M298.45,102H319.9l9.94-60.21h20.34l3.19-19H291.24l-3.19,19h20.34ZM272.8,0c-6,0-9.69,4.19-9.91,9.51-.21,5,2.82,8.15,7.91,8.15,6,0,9.69-4.19,9.91-9.51C280.93,3.17,277.89,0,272.8,0ZM246,0c-6,0-9.69,4.19-9.91,9.51-.21,5,2.82,8.15,7.91,8.15,6,0,9.69-4.19,9.91-9.51C254.14,3.17,251.1,0,246,0ZM216.3,102h53.35l3.19-19H241l2-12.68h29.52l2.9-17.43H245.86l1.83-11.09h31.9l3.19-19H229.44ZM164.61,43.34a34.24,34.24,0,0,1,6.83-3.51,28.56,28.56,0,0,1,10-1.92c1.81,0,5.2.12,7.51,1.81a6.31,6.31,0,0,1,2.81,5.66A7.24,7.24,0,0,1,189.18,51C187,52.86,182.82,54,178.3,54H165.74l-2.6,15.84H175.7c4.41,0,11.74.68,11.43,7.92a8.6,8.6,0,0,1-3.57,6.68,14.11,14.11,0,0,1-8.36,2.38,23.86,23.86,0,0,1-11.85-3.4,28.38,28.38,0,0,1-7.11-5.66L144.62,92.46a60.11,60.11,0,0,0,9.88,7.24c7,3.86,14.18,4.53,19.95,4.53,4.75,0,15.06-.6,23.46-6.11a25.65,25.65,0,0,0,11.87-20.82c.12-2.83-.24-7.7-3.92-11.54A20.81,20.81,0,0,0,198,61.11l.13-.34a25.78,25.78,0,0,0,9.29-5.55,20.22,20.22,0,0,0,6.73-14.37,17.34,17.34,0,0,0-6.94-14.94c-6.36-5-15.27-5.43-20.36-5.43A51.37,51.37,0,0,0,170,23.31a52.05,52.05,0,0,0-10.61,4.53ZM82.73,102h53.35l3.19-19h-31.9l2-12.68h29.52l2.9-17.43H112.29l1.83-11.09H146l3.19-19H95.86ZM31.52,86.12l2.74-16.3H44.94c3.06,0,6.24.09,8.19,1.59a6.28,6.28,0,0,1,2.36,5.66,8.34,8.34,0,0,1-4.28,7.36c-2.79,1.57-6,1.7-9,1.7ZM36.86,54l2.58-15.39h10c1.25,0,4.52.11,6.5,1.47a5.93,5.93,0,0,1,2.37,5.43,7.66,7.66,0,0,1-3.69,6.79c-2.43,1.48-6,1.7-7.77,1.7ZM20.59,22.75,7.46,102H48c12.56,0,19.11-4.87,22.3-7.92a23.85,23.85,0,0,0,7.38-16.52c.26-6.11-1.83-10.19-4-12.56a19.1,19.1,0,0,0-9.5-5.32v-.23a26.5,26.5,0,0,0,7.41-3.85c4.21-3.17,7.47-8,7.79-15.39.25-5.88-1.85-9.73-4.12-12.11C70.37,23,63,22.75,58,22.75Z"/><polygon class="cls-2" points="478.97 22.5 453.73 22.5 449.52 47.86 474.76 47.9 470.55 73.31 495.79 73.35 500 47.94 474.76 47.9 478.97 22.5"/><polygon class="cls-2" points="424.28 47.82 449.52 47.86 445.31 73.27 420.07 73.23 424.28 47.82 399.04 47.78 403.25 22.38 428.49 22.42 424.28 47.82"/><polygon class="cls-2" points="373.81 47.74 399.04 47.78 394.84 73.19 369.6 73.15 373.81 47.74"/><path class="cls-1" d="M457.26,75.78c-8.9,0-14.37,6.21-14.71,14.1-.32,7.39,4.18,12.09,11.74,12.09,8.9,0,14.37-6.21,14.71-14.1.32-7.39-4.18-12.09-11.74-12.09m-50.7,0c-8.9,0-14.37,6.21-14.71,14.1C391.54,97.27,396,102,403.59,102c8.9,0,14.37-6.21,14.71-14.1C418.62,80.48,414.12,75.78,406.56,75.78Z"/><path class="cls-2" d="M403.25,22.38l-25.86,1.49-.11.64,25.36,1.58Z"/><path class="cls-2" d="M402,29.95l-25.86,1.49-.11.64,25.36,1.58Z"/><path class="cls-1" d="M2.4,152.68A8.33,8.33,0,0,1,0,146.32a13.35,13.35,0,0,1,.25-2.72q.6-3,.85-3.95a16.13,16.13,0,0,1,4.64-8.39,12.09,12.09,0,0,1,8.43-2.94q4.59,0,6.74,2.17A7,7,0,0,1,23,135.61a5.43,5.43,0,0,1-.05.84,1.33,1.33,0,0,1-.32.79.92.92,0,0,1-.72.3H21a1.17,1.17,0,0,1-.79-.22,1,1,0,0,1-.2-.82,4.69,4.69,0,0,0-1.42-4,6.75,6.75,0,0,0-4.44-1.3,9.73,9.73,0,0,0-6.3,2.16,11.73,11.73,0,0,0-3.79,6.56q-.25,1-.75,3.46a14.59,14.59,0,0,0-.25,2.76q0,6,6,6t8.66-5a2.87,2.87,0,0,1,.59-.84,1.17,1.17,0,0,1,.74-.2h.89a.78.78,0,0,1,.67.3.86.86,0,0,1,.07.79,11,11,0,0,1-2,3.75,10.85,10.85,0,0,1-3.89,2.93A13.18,13.18,0,0,1,9,155,9.22,9.22,0,0,1,2.4,152.68Z"/><path class="cls-1" d="M29.87,152.62A9.34,9.34,0,0,1,27.66,146a19.87,19.87,0,0,1,.15-2.37q.25-1.48.85-3.95a17,17,0,0,1,5-8.24,12,12,0,0,1,8.26-3.09,8.53,8.53,0,0,1,6.42,2.31,8.89,8.89,0,0,1,2.21,6.45,20,20,0,0,1-.45,4l-.15.74a1.26,1.26,0,0,1-.49.79,1.45,1.45,0,0,1-.89.29l-17.59,0-.1.49a12.07,12.07,0,0,0-.15,1.88,7.55,7.55,0,0,0,1.57,4.92,5.45,5.45,0,0,0,4.49,2,9.45,9.45,0,0,0,4.67-1.07,11.39,11.39,0,0,0,2.9-2.12,5.57,5.57,0,0,1,.84-.74,1.72,1.72,0,0,1,.84-.15h.79a1,1,0,0,1,.64.2.66.66,0,0,1,.25.54q0,.94-1.61,2.44a14.56,14.56,0,0,1-4.25,2.63,14.18,14.18,0,0,1-5.66,1.12A8.15,8.15,0,0,1,29.87,152.62Zm17.42-12.41,0-.2a13.75,13.75,0,0,0,.25-2.37A6.51,6.51,0,0,0,46,133a6,6,0,0,0-4.64-1.77,8.85,8.85,0,0,0-6.25,2.45A11.57,11.57,0,0,0,31.63,140l0,.2Z"/><path class="cls-1" d="M53.13,163.69a1,1,0,0,1-.12-.79L60.11,130a1.11,1.11,0,0,1,.42-.79,1.34,1.34,0,0,1,.87-.29h.84a.91.91,0,0,1,.74.3.9.9,0,0,1,.15.79l-.5,2.32a12,12,0,0,1,9.15-3.88q4.4,0,6.37,2.36a9.23,9.23,0,0,1,2,6.15,17.94,17.94,0,0,1-.3,3.21q-.2,1.24-.7,3.26a18.17,18.17,0,0,1-4.49,8.31A11.31,11.31,0,0,1,66,155.13q-5.43,0-7.45-3.92L56,162.91a1.31,1.31,0,0,1-.47.79,1.35,1.35,0,0,1-.87.29h-.84A.83.83,0,0,1,53.13,163.69Zm19.6-14a14.36,14.36,0,0,0,3.4-6.54q.45-1.78.6-2.76a17.93,17.93,0,0,0,.25-2.72,7,7,0,0,0-1.45-4.65q-1.45-1.73-4.71-1.74a8.64,8.64,0,0,0-6.45,2.58A12.8,12.8,0,0,0,61,140q-.65,2.62-.85,3.85a13.8,13.8,0,0,0-.2,1.88,7,7,0,0,0,1.57,4.65,6,6,0,0,0,4.84,1.89A8.37,8.37,0,0,0,72.73,149.74Z"/><path class="cls-1" d="M83.36,154.38a.89.89,0,0,1-.15-.79l5.1-23.5a1.11,1.11,0,0,1,.42-.79,1.34,1.34,0,0,1,.87-.29l9.73,0a7.83,7.83,0,0,1,5,1.4,4.61,4.61,0,0,1,1.72,3.81,8.87,8.87,0,0,1-.15,1.53,8,8,0,0,1-1.56,3.48,8.37,8.37,0,0,1-3,2.24,4.44,4.44,0,0,1,2.44,1.83,5.33,5.33,0,0,1,.81,2.92,6.35,6.35,0,0,1-.15,1.33,8.21,8.21,0,0,1-3.5,5.3,11.86,11.86,0,0,1-6.8,1.83l-10,0A.91.91,0,0,1,83.36,154.38Zm10.92-2.54a9.12,9.12,0,0,0,4.67-1.1,5.15,5.15,0,0,0,2.5-4.32q0-3.21-5.33-3.22l-7.66,0-1.85,8.64Zm2.15-11.5a7.23,7.23,0,0,0,4.28-1.22,5.1,5.1,0,0,0,2.16-3.35,8.07,8.07,0,0,0,.1-.94q0-2.91-4.73-2.93l-7.31,0-1.8,8.44Z"/><path class="cls-1" d="M113.57,153.22a7.42,7.42,0,0,1-2-5.54,18.07,18.07,0,0,1,.4-3.51l3-14a1.31,1.31,0,0,1,.47-.79,1.35,1.35,0,0,1,.87-.29h.84a.83.83,0,0,1,.72.3,1,1,0,0,1,.12.79L115,143.94a19.66,19.66,0,0,0-.5,3.8,4.44,4.44,0,0,0,1.28,3.51,6.27,6.27,0,0,0,4.2,1.15,10,10,0,0,0,6.53-2.26,10.58,10.58,0,0,0,3.62-6.17l2.95-13.77a1.31,1.31,0,0,1,.47-.79,1.35,1.35,0,0,1,.87-.29h.84a.84.84,0,0,1,.72.3,1,1,0,0,1,.12.79l-5,23.5a1.36,1.36,0,0,1-.45.79,1.25,1.25,0,0,1-.84.29h-.84a.91.91,0,0,1-.74-.3.89.89,0,0,1-.15-.79l.5-2.32a24.71,24.71,0,0,1-2.43,2.17,8.18,8.18,0,0,1-2.52,1.25,12.05,12.05,0,0,1-3.61.46Q115.61,155.25,113.57,153.22Z"/><path class="cls-1" d="M142.59,153a8.33,8.33,0,0,1-2.4-6.35,13.34,13.34,0,0,1,.25-2.72q.6-3,.85-3.95a16.13,16.13,0,0,1,4.64-8.39,12.09,12.09,0,0,1,8.43-2.94q4.59,0,6.74,2.17a7,7,0,0,1,2.14,5.12,5.43,5.43,0,0,1-.05.84,1.33,1.33,0,0,1-.32.79.92.92,0,0,1-.72.29h-.94a1.17,1.17,0,0,1-.79-.22,1,1,0,0,1-.2-.82,4.7,4.7,0,0,0-1.42-4,6.76,6.76,0,0,0-4.44-1.3,9.73,9.73,0,0,0-6.3,2.16,11.73,11.73,0,0,0-3.79,6.56q-.25,1-.75,3.46a14.59,14.59,0,0,0-.25,2.76q0,6,6,6t8.66-5a2.89,2.89,0,0,1,.59-.84,1.18,1.18,0,0,1,.74-.2h.89a.78.78,0,0,1,.67.3.86.86,0,0,1,.07.79,11,11,0,0,1-2,3.75,10.85,10.85,0,0,1-3.89,2.93,13.19,13.19,0,0,1-5.71,1.15A9.22,9.22,0,0,1,142.59,153Z"/><path class="cls-1" d="M183.66,154.48a6.92,6.92,0,0,1-3-2.35,5.07,5.07,0,0,1-.93-2.84,4.38,4.38,0,0,1,.1-.84,1,1,0,0,1,.42-.71,1.35,1.35,0,0,1,.82-.27h.84q.94,0,.94,1a3.58,3.58,0,0,0,1.8,3.14,9.77,9.77,0,0,0,4.67.93,9.53,9.53,0,0,0,5.56-1.54,5.25,5.25,0,0,0,2.26-4.61q0-3.31-4.49-3.32H190a.91.91,0,0,1-.74-.3.9.9,0,0,1-.15-.79l.15-.69a1.31,1.31,0,0,1,.47-.79,1.35,1.35,0,0,1,.87-.29h2.32q5.68,0,5.69-5.22,0-3.41-4.68-3.42a9.78,9.78,0,0,0-5.09,1.12,7.44,7.44,0,0,0-2.92,3.45,1.55,1.55,0,0,1-1.43,1h-.84a.81.81,0,0,1-.67-.27.92.92,0,0,1-.17-.72,8.62,8.62,0,0,1,3.67-5.35,12.59,12.59,0,0,1,7.46-2.08q4.1,0,5.95,1.77a6,6,0,0,1,1.74,5.41,7.57,7.57,0,0,1-1.56,3.38,8.91,8.91,0,0,1-3.19,2.24,4.52,4.52,0,0,1,3.4,4.8,9.57,9.57,0,0,1-.2,2,7.75,7.75,0,0,1-3.82,5.15,14,14,0,0,1-7.51,1.93A12.15,12.15,0,0,1,183.66,154.48Z"/><path class="cls-1" d="M208.21,152.94a10.19,10.19,0,0,1-2-6.5,19.68,19.68,0,0,1,.25-2.91q.15-1,.6-2.76,3.14-11.95,12.73-11.92a8.94,8.94,0,0,1,4.69,1,7.47,7.47,0,0,1,2.66,2.87l.5-2.32a1.36,1.36,0,0,1,.45-.79,1.24,1.24,0,0,1,.84-.29h.84a.83.83,0,0,1,.89,1.09l-5,23.5a1.36,1.36,0,0,1-.45.79,1.25,1.25,0,0,1-.84.29h-.84a.91.91,0,0,1-.74-.3.9.9,0,0,1-.15-.79l.5-2.32a14,14,0,0,1-3.66,2.93,10.29,10.29,0,0,1-4.79,1Q210.21,155.49,208.21,152.94Zm11.22-1.58a11,11,0,0,0,3.44-3.25,13.05,13.05,0,0,0,1.89-4.14q.35-1.38.85-3.85a10.71,10.71,0,0,0,.2-2.17,6.84,6.84,0,0,0-1.42-4.47,5.6,5.6,0,0,0-4.59-1.77,7.92,7.92,0,0,0-6.11,2.53,16.33,16.33,0,0,0-3.55,6.54,22.24,22.24,0,0,0-.6,2.76,23.76,23.76,0,0,0-.25,3.11q0,6,5.37,6A8.94,8.94,0,0,0,219.43,151.36Z"/><path class="cls-1" d="M257.64,130.71l-10.1,10.94,6,12.12a1.18,1.18,0,0,1,.15.49.73.73,0,0,1-.3.62,1.29,1.29,0,0,1-.79.22h-.89a1.24,1.24,0,0,1-1.13-.69l-5.41-10.93h-5.38L237.53,154a1.11,1.11,0,0,1-.42.79,1.34,1.34,0,0,1-.87.29h-.84a.91.91,0,0,1-.74-.3.89.89,0,0,1-.15-.79l5.1-23.5a1.11,1.11,0,0,1,.42-.79,1.34,1.34,0,0,1,.87-.29h.84a.83.83,0,0,1,.89,1.09l-2.2,10H245l9.26-10.35a2,2,0,0,1,1.43-.74h1.43q.84,0,.84.69A1.45,1.45,0,0,1,257.64,130.71Z"/><path class="cls-1" d="M261.81,153.07a10.19,10.19,0,0,1-2-6.5,19.68,19.68,0,0,1,.25-2.91q.15-1,.6-2.76,3.14-11.95,12.73-11.92a8.94,8.94,0,0,1,4.69,1,7.47,7.47,0,0,1,2.66,2.87l.5-2.32a1.36,1.36,0,0,1,.45-.79,1.25,1.25,0,0,1,.84-.29h.84a.83.83,0,0,1,.89,1.09l-5,23.5a1.36,1.36,0,0,1-.45.79,1.25,1.25,0,0,1-.84.29h-.84a.91.91,0,0,1-.74-.3.9.9,0,0,1-.15-.79l.5-2.32a14,14,0,0,1-3.66,2.93,10.28,10.28,0,0,1-4.79,1Q263.8,155.62,261.81,153.07ZM273,151.49a11,11,0,0,0,3.44-3.25,13.06,13.06,0,0,0,1.89-4.14q.35-1.38.85-3.85a10.7,10.7,0,0,0,.2-2.17A6.84,6.84,0,0,0,278,133.6a5.6,5.6,0,0,0-4.59-1.77,7.92,7.92,0,0,0-6.11,2.53,16.33,16.33,0,0,0-3.55,6.54,22.24,22.24,0,0,0-.6,2.76,23.76,23.76,0,0,0-.25,3.11q0,6,5.37,6A8.94,8.94,0,0,0,273,151.49Z"/><path class="cls-1" d="M291.39,154.75a6.92,6.92,0,0,1-3-2.35,5.08,5.08,0,0,1-.93-2.84,4.37,4.37,0,0,1,.1-.84A1,1,0,0,1,288,148a1.35,1.35,0,0,1,.82-.27h.84q.94,0,.94,1a3.58,3.58,0,0,0,1.8,3.14,9.77,9.77,0,0,0,4.67.92,9.52,9.52,0,0,0,5.56-1.54,5.25,5.25,0,0,0,2.26-4.61q0-3.31-4.49-3.32h-2.67a.91.91,0,0,1-.74-.3.9.9,0,0,1-.15-.79l.15-.69a1.32,1.32,0,0,1,.47-.79,1.35,1.35,0,0,1,.87-.29h2.32q5.68,0,5.69-5.22,0-3.41-4.68-3.42a9.8,9.8,0,0,0-5.09,1.12,7.43,7.43,0,0,0-2.92,3.45,1.55,1.55,0,0,1-1.44,1h-.84a.81.81,0,0,1-.67-.27.92.92,0,0,1-.17-.72,8.62,8.62,0,0,1,3.67-5.35,12.6,12.6,0,0,1,7.47-2.08q4.1,0,5.95,1.77a5.95,5.95,0,0,1,1.74,5.41,7.57,7.57,0,0,1-1.56,3.38,8.89,8.89,0,0,1-3.19,2.24,4.52,4.52,0,0,1,3.4,4.8,9.61,9.61,0,0,1-.2,2,7.76,7.76,0,0,1-3.82,5.15,14,14,0,0,1-7.51,1.93A12.15,12.15,0,0,1,291.39,154.75Z"/><path class="cls-1" d="M315.95,153.21a10.19,10.19,0,0,1-2-6.5,19.69,19.69,0,0,1,.25-2.91q.15-1,.6-2.76,3.14-11.95,12.72-11.92a8.93,8.93,0,0,1,4.69,1,7.48,7.48,0,0,1,2.66,2.87l.5-2.32a1.36,1.36,0,0,1,.45-.79,1.24,1.24,0,0,1,.84-.29h.84a.83.83,0,0,1,.89,1.09l-5,23.5a1.37,1.37,0,0,1-.45.79,1.25,1.25,0,0,1-.84.29h-.84a.91.91,0,0,1-.74-.3.89.89,0,0,1-.15-.79l.5-2.32a14,14,0,0,1-3.66,2.93,10.29,10.29,0,0,1-4.79,1Q317.94,155.75,315.95,153.21Zm11.22-1.58a11,11,0,0,0,3.44-3.25,13.05,13.05,0,0,0,1.89-4.14q.35-1.38.85-3.85a10.71,10.71,0,0,0,.2-2.17,6.84,6.84,0,0,0-1.42-4.47,5.6,5.6,0,0,0-4.59-1.77,7.91,7.91,0,0,0-6.11,2.53,16.31,16.31,0,0,0-3.55,6.54,22.26,22.26,0,0,0-.6,2.76,23.77,23.77,0,0,0-.25,3.11q0,6,5.37,6A9,9,0,0,0,327.16,151.63Z"/><path class="cls-1" d="M362.69,155.08a.9.9,0,0,1-.14-.79l4.7-21.72-9,0a.84.84,0,0,1-.71-.3,1,1,0,0,1-.12-.79l.15-.69a1.12,1.12,0,0,1,.42-.79,1.34,1.34,0,0,1,.86-.29l21.09.05a.91.91,0,0,1,.74.3.9.9,0,0,1,.15.79l-.15.69a1.3,1.3,0,0,1-.47.79,1.35,1.35,0,0,1-.87.29l-9,0-4.7,21.72a1.11,1.11,0,0,1-.42.79,1.34,1.34,0,0,1-.86.29h-.84A.91.91,0,0,1,362.69,155.08Z"/><path class="cls-1" d="M383.12,153.37a10.19,10.19,0,0,1-2-6.5,19.5,19.5,0,0,1,.25-2.91q.15-1,.6-2.76,3.14-11.95,12.72-11.92a9,9,0,0,1,4.69,1,7.48,7.48,0,0,1,2.66,2.87l.5-2.32a1.36,1.36,0,0,1,.45-.79,1.24,1.24,0,0,1,.84-.29h.84a.83.83,0,0,1,.89,1.09l-5,23.5a1.37,1.37,0,0,1-.45.79,1.25,1.25,0,0,1-.84.29h-.84a.91.91,0,0,1-.74-.3.89.89,0,0,1-.15-.79l.5-2.32a14,14,0,0,1-3.66,2.93,10.28,10.28,0,0,1-4.79,1Q385.12,155.92,383.12,153.37Zm11.22-1.58a11,11,0,0,0,3.44-3.25,13.05,13.05,0,0,0,1.89-4.14q.35-1.38.85-3.85a10.7,10.7,0,0,0,.2-2.17,6.85,6.85,0,0,0-1.42-4.47,5.6,5.6,0,0,0-4.59-1.77,7.92,7.92,0,0,0-6.11,2.53,16.32,16.32,0,0,0-3.55,6.54,22,22,0,0,0-.6,2.76,23.65,23.65,0,0,0-.25,3.11q0,6,5.37,6A9,9,0,0,0,394.34,151.79Z"/><path class="cls-1" d="M432.55,131.14l-10.1,10.94,6,12.12a1.17,1.17,0,0,1,.15.49.72.72,0,0,1-.3.62,1.28,1.28,0,0,1-.79.22h-.89a1.24,1.24,0,0,1-1.14-.69l-5.41-10.93h-5.38l-2.3,10.52a1.11,1.11,0,0,1-.42.79,1.34,1.34,0,0,1-.86.29h-.84a.91.91,0,0,1-.74-.3.9.9,0,0,1-.15-.79l5.1-23.5a1.12,1.12,0,0,1,.42-.79,1.34,1.34,0,0,1,.86-.29h.84a.83.83,0,0,1,.89,1.09l-2.2,10h4.59l9.26-10.35a2,2,0,0,1,1.44-.74h1.43q.84,0,.84.69A1.46,1.46,0,0,1,432.55,131.14Z"/><path class="cls-1" d="M435.8,153.75a8.33,8.33,0,0,1-2.41-6.35,13.34,13.34,0,0,1,.25-2.72q.6-3,.85-3.95a16.13,16.13,0,0,1,4.64-8.39,12.09,12.09,0,0,1,8.43-2.94q4.59,0,6.74,2.17a7,7,0,0,1,2.14,5.12,5.73,5.73,0,0,1-.05.84,1.33,1.33,0,0,1-.32.79.92.92,0,0,1-.72.3h-.94a1.16,1.16,0,0,1-.79-.22,1,1,0,0,1-.2-.81,4.7,4.7,0,0,0-1.42-4,6.76,6.76,0,0,0-4.44-1.3,9.73,9.73,0,0,0-6.3,2.16,11.73,11.73,0,0,0-3.79,6.56q-.25,1-.75,3.46a14.59,14.59,0,0,0-.25,2.76q0,6,6,6t8.66-5a2.91,2.91,0,0,1,.59-.84,1.18,1.18,0,0,1,.74-.2h.89a.77.77,0,0,1,.66.3.85.85,0,0,1,.07.79,11,11,0,0,1-2,3.75,10.83,10.83,0,0,1-3.88,2.93,13.17,13.17,0,0,1-5.71,1.15A9.23,9.23,0,0,1,435.8,153.75Z"/><path class="cls-1" d="M463.14,154.09a7.43,7.43,0,0,1-2-5.54,18.2,18.2,0,0,1,.4-3.51l3-14a1.31,1.31,0,0,1,.47-.79,1.34,1.34,0,0,1,.86-.29h.84a.84.84,0,0,1,.72.3,1,1,0,0,1,.12.79l-2.95,13.77a19.74,19.74,0,0,0-.5,3.8,4.44,4.44,0,0,0,1.28,3.51,6.27,6.27,0,0,0,4.19,1.15,10,10,0,0,0,6.53-2.26,10.6,10.6,0,0,0,3.62-6.17l2.95-13.78a1.31,1.31,0,0,1,.47-.79A1.34,1.34,0,0,1,484,130h.84a.84.84,0,0,1,.72.3,1,1,0,0,1,.12.79l-5,23.5a1.36,1.36,0,0,1-.45.79,1.24,1.24,0,0,1-.84.3h-.84a.91.91,0,0,1-.74-.3.9.9,0,0,1-.15-.79l.5-2.32a24.9,24.9,0,0,1-2.43,2.17,8.2,8.2,0,0,1-2.52,1.25,12.07,12.07,0,0,1-3.61.46Q465.19,156.12,463.14,154.09Z"/></g></g></svg>