<svg width="162" height="35" xmlns="http://www.w3.org/2000/svg">
    <g fill="none" fill-rule="evenodd">
        <path d="M17.4 0h126.3a17.4 17.4 0 1 1 0 34.8H17.4a17.4 17.4 0 1 1 0-34.8z" fill="#D7C200"/>
        <path d="M19.2 10.7H21l2.7 5.7.7 1.5.5-1.5 2-5.7h1.7l-3.5 9.2c-.6 1.5-1.5 2.3-2.6 2.3-.7 0-1.4-.3-2-.7l.6-1.2c.5.3 1 .5 1.3.5.3 0 .6 0 .8-.3l.5-1-4.5-8.8zm10 10.3l.6-1c.7.6 1.4 1 2.2 1a2 2 0 0 0 1.2-.4c.3-.2.4-.6.4-1 0-.8-.5-1.2-1.6-1.2h-1v-1.1h.8c1 0 1.6-.4 1.6-1.2a1 1 0 0 0-.4-.9c-.3-.2-.6-.3-1-.3-.7 0-1.4.3-2 .7l-.6-1c.8-.6 1.7-.9 2.8-.9.8 0 1.5.2 2 .6.5.4.7 1 .7 1.6 0 .9-.4 1.5-1.1 1.8 1 .4 1.4 1 1.4 2 0 .8-.3 1.4-.9 1.8-.6.5-1.3.7-2.2.7-1.1 0-2.1-.4-3-1.2zm8.4 1v-8h1.6v3.2h4v-3.3h1.6V22h-1.5v-3.5h-4.1V22h-1.6zm9.5-2.2c0-.6.2-1.1.5-1.5.3-.4.8-.7 1.3-.9a8.8 8.8 0 0 1 3-.4h.4v-.2c0-1.2-.6-1.8-1.7-1.8-.8 0-1.6.3-2.3.8l-.6-1.1a5.5 5.5 0 0 1 3-1c1 0 1.8.3 2.4.8.5.6.8 1.4.8 2.4V22h-1.5v-1.5a3 3 0 0 1-2.6 1.7c-.7 0-1.4-.2-2-.7-.4-.4-.7-1-.7-1.7zm1.5-.1c0 .3.2.6.4.9.3.2.7.4 1.2.4.6 0 1.1-.3 1.5-.8.4-.6.6-1.2.6-1.8V18H52c-2.2 0-3.3.5-3.3 1.6zm7.1-4.5V14H63v1.3h-2.8V22h-1.6v-6.8h-2.8zM65 22v-8h1.5v2.8h1.7c.9 0 1.6.2 2.1.7.5.4.8 1 .8 2 0 .7-.2 1.4-.7 1.8-.5.5-1.3.7-2.3.7H65zm1.5-1.1H68c.5 0 1-.1 1.2-.4.3-.3.4-.6.4-1 0-.5-.1-.9-.4-1.2-.2-.2-.6-.3-1.2-.3h-1.4v2.9zM77.8 22v-8H85v8h-1.5v-6.8h-4V22h-1.6zm10 3.2V13.9h1.5V15.2c.2-.4.6-.8 1-1 .6-.4 1.1-.5 1.7-.5 1 0 2 .4 2.6 1.2.6.8 1 1.8 1 3 0 1.3-.4 2.4-1 3.1-.8.8-1.6 1.2-2.7 1.2-1 0-2-.5-2.5-1.4v4.4h-1.5zm1.6-7.2c0 .8.2 1.4.6 2 .4.6 1 .9 1.6.9.7 0 1.3-.3 1.7-.8.5-.5.7-1.2.7-2.1 0-1-.2-1.6-.7-2.1a2 2 0 0 0-1.6-.8c-.7 0-1.2.2-1.7.7-.4.5-.6 1.2-.6 2.2zm8 0a4 4 0 0 1 1.3-3c.9-.9 2-1.3 3.1-1.3 1.3 0 2.3.4 3.1 1.2a4 4 0 0 1 1.3 3 4 4 0 0 1-1.3 3c-.8.9-1.8 1.3-3 1.3-1.3 0-2.3-.4-3.2-1.2a4 4 0 0 1-1.2-3zm1.7 0c0 .8.2 1.5.8 2 .5.6 1.2.9 2 .9.7 0 1.4-.3 2-.9.5-.5.7-1.2.7-2 0-.9-.2-1.6-.8-2.1-.5-.6-1.2-.8-2-.8-.7 0-1.4.2-2 .8-.5.5-.7 1.2-.7 2zm9.5 4v-8h5v1.2h-3.4V22h-1.6zm7.1 0v-8h1.6v3.2h4.1v-3.3h1.5V22h-1.5v-3.5h-4.1V22h-1.6zm9.7-4a4 4 0 0 1 1.2-3c.9-.9 1.9-1.3 3.1-1.3 1.2 0 2.3.4 3.1 1.2a4 4 0 0 1 1.3 3 4 4 0 0 1-1.3 3c-.8.9-1.9 1.3-3 1.3-1.3 0-2.3-.4-3.2-1.2a4 4 0 0 1-1.2-3zm1.5 0c0 .8.3 1.5.8 2 .6.6 1.2.9 2 .9s1.4-.3 2-.9c.5-.5.8-1.2.8-2 0-.9-.3-1.6-.8-2.1-.6-.6-1.2-.8-2-.8s-1.4.2-2 .8c-.5.5-.8 1.2-.8 2zm8.6 3l.7-1c.6.6 1.3 1 2.1 1a2 2 0 0 0 1.2-.4c.4-.2.5-.6.5-1 0-.8-.5-1.2-1.6-1.2h-1v-1.1h.8c1 0 1.5-.4 1.5-1.2a1 1 0 0 0-.3-.9c-.3-.2-.6-.3-1-.3-.8 0-1.4.3-2 .7l-.6-1c.8-.6 1.7-.9 2.8-.9.8 0 1.4.2 2 .6.5.4.7 1 .7 1.6 0 .9-.4 1.5-1.2 1.8 1 .4 1.5 1 1.5 2 0 .8-.3 1.4-1 1.8-.5.5-1.2.7-2.1.7-1.2 0-2.2-.4-3-1.2z"
              fill="#000"/>
    </g>
</svg>