<?xml version="1.0" encoding="UTF-8"?>
<svg width="41px" height="57px" viewBox="0 0 41 57" version="1.1" xmlns="http://www.w3.org/2000/svg" xmlns:xlink="http://www.w3.org/1999/xlink">
    <!-- Generator: Sketch 48.2 (47327) - http://www.bohemiancoding.com/sketch -->
    <title>logo</title>
    <desc>Created with Sketch.</desc>
    <defs></defs>
    <g id="iPhone-7" stroke="none" stroke-width="1" fill="none" fill-rule="evenodd" transform="translate(-50.000000, -589.000000)">
        <g id="logo" transform="translate(50.000000, 589.000000)">
            <polygon id="Fill-1" fill="#DF278D" points="0 55 41 55 41 0 0 0"></polygon>
            <polygon id="Fill-2" fill="#000000" points="12 57 29 57 29 14 12 14"></polygon>
            <g id="Group-33" transform="translate(1.000000, 5.000000)" fill="#FEFEFE">
                <path d="M21.7108741,3.16228782 C21.7103416,3.13419433 21.7096761,3.10583456 21.7091437,3.08333314 C21.7195259,3.08879207 21.7295089,3.0939847 21.7450823,3.09931048 C21.7450823,3.11049462 21.7450823,3.12740397 21.7456147,3.14418017 C21.7300413,3.15030482 21.7212563,3.15603003 21.7108741,3.16228782 M18.6483758,3.28904136 C18.6477102,3.27785722 18.6477102,3.2664068 18.6471778,3.25535581 C18.6523689,3.25508952 18.6623519,3.2604153 18.6727341,3.26574108 C18.6628843,3.27159943 18.6523689,3.27785722 18.6483758,3.28904136 M21.2611096,4.33475807 C21.255386,4.08165042 21.3148843,3.68021983 21.5112154,3.52270992 C21.5136113,3.44375524 21.5169389,3.36493371 21.5250584,3.28571275 C21.5893485,3.25575524 21.6183655,3.23804703 21.6934372,3.24683456 C21.6980959,3.22446629 21.7022222,3.2074238 21.7062154,3.19051445 C21.7167307,3.18998187 21.7264474,3.18971558 21.7368297,3.18944929 C21.7368297,3.21195071 21.7374952,3.23445212 21.7380276,3.2568204 C21.6987614,3.28052011 21.4458604,3.92973258 21.4232324,4.02040397 C21.4081915,4.02639547 21.3936829,4.0327864 21.3838331,4.04397054 C21.4007375,4.12212635 21.4069935,4.17831331 21.3943485,4.26286006 C21.3490925,4.28695921 21.3051676,4.31065892 21.2611096,4.33475807 M21.5152085,5.39565326 L21.5152085,5.37874391 C21.5250584,5.37847762 21.5355737,5.37821133 21.5499491,5.37754561 C21.5499491,5.38340397 21.5504816,5.38912918 21.5504816,5.39472125 C21.5402324,5.39498754 21.5303826,5.39512068 21.5152085,5.39565326 M21.4406693,5.58924533 C21.4406693,5.5837864 21.4400038,5.57792805 21.4400038,5.56687705 C21.4446625,5.56674391 21.4498536,5.56634448 21.4550447,5.56621133 C21.4550447,5.57206969 21.4550447,5.57752861 21.4555771,5.58897904 C21.450386,5.58897904 21.4451949,5.58911218 21.4406693,5.58924533 M20.6244645,6.23259943 C20.6517512,6.11370142 20.6782392,6.00052861 20.6910174,5.88203003 C20.7651573,5.87989972 20.7435942,6.02116601 20.7401334,6.08321133 C20.7015328,6.12914618 20.6626659,6.18093938 20.6244645,6.23259943 M20.6505532,6.69887139 C20.6545464,6.67610368 20.6643962,6.65346912 20.6737137,6.63070142 C20.6932802,6.62457677 20.7136454,6.62404419 20.7333451,6.62337847 C20.7286863,6.6348289 20.7245601,6.64601303 20.7245601,6.66278924 C20.7003348,6.67477224 20.6747785,6.68715467 20.6505532,6.69887139 M21.3017068,6.86463626 C21.270427,6.60140963 21.1737922,6.28359377 21.2322256,6.02303003 C21.241543,6.02276374 21.2513928,6.02236431 21.2663007,6.02183173 C21.2738877,5.90346629 21.3478945,5.65954561 21.4412017,5.62306402 C21.4325498,5.67951728 21.4035328,5.70854278 21.3670618,5.87257677 C21.3549491,6.59315467 21.3549491,6.59315467 21.335915,6.84666176 C21.3214065,6.85291955 21.3108911,6.85891105 21.3017068,6.86463626 M20.5260993,6.91070425 C20.5237034,6.82069858 20.5271642,6.73082606 20.5302256,6.64627932 C20.5394099,6.64028782 20.5544509,6.63429632 20.5694918,6.62830482 C20.5648331,6.65067309 20.5608399,6.67903286 20.5613724,6.70712635 C20.581072,6.70672691 20.6007717,6.71152011 20.6215362,6.7165796 C20.5978433,6.77369858 20.5793416,6.83055127 20.5608399,6.89299603 C20.545799,6.89898754 20.5364816,6.90471275 20.5260993,6.91070425 M21.3039696,6.97714334 C21.3086283,6.96036714 21.313287,6.94332465 21.3179457,6.93187422 C21.3231369,6.94305836 21.328328,6.95956827 21.3387102,6.97621133 C21.3242017,6.97661076 21.3138195,6.97687705 21.3039696,6.97714334 M20.5302256,7.07926516 C20.5190447,7.03466176 20.5133212,6.9901915 20.5069321,6.94532181 C20.5226386,6.94478924 20.5376795,6.94425666 20.5567137,6.94359093 C20.5491266,7.05077224 20.5491266,7.05077224 20.5302256,7.07926516 M20.4982802,7.20974674 C20.4960174,7.11428215 20.4960174,7.11428215 20.5110584,7.11374958 C20.5162495,7.14170992 20.5226386,7.17539547 20.5328877,7.20881473 C20.5179799,7.20921416 20.50813,7.20948045 20.4982802,7.20974674 M21.2073348,9.17389405 C21.2217102,9.16803569 21.2422085,9.16164476 21.2617751,9.16111218 C21.2693621,9.06524816 21.2818741,8.96925099 21.2946522,8.87325382 C21.2946522,8.26012351 21.3347171,7.64006969 21.3450993,7.02081473 C21.0718331,7.02906969 21.1725942,7.31306686 21.1928263,7.51491388 C21.1985498,7.77933881 21.1985498,7.77933881 21.1708638,8.08384023 C21.1181539,8.15853428 21.0655771,8.23336147 21.0116693,8.30818867 C21.0192563,8.60616601 21.0661096,8.91399603 21.2073348,9.17389405 M20.6140823,9.34405269 C20.6284577,9.33233598 20.6482904,9.32035297 20.667857,9.30850312 C20.6718502,9.26323399 20.6759765,9.21823116 20.6794372,9.17309518 C20.6598706,9.16816884 20.6446966,9.1629762 20.6296556,9.16350878 C20.6192734,9.1414068 20.6192734,9.1414068 20.7570379,8.68152578 C20.769816,8.54625099 20.7808638,8.41070992 20.7929765,8.2810272 C20.7032631,8.27809802 20.7032631,8.27809802 20.6840959,8.30126516 C20.6813007,8.40245496 20.6813007,8.40245496 20.7048604,8.54798187 C20.5515225,8.81693371 20.5926522,9.05206686 20.6140823,9.34405269 M21.270427,12.45737 C21.2797444,12.4513785 21.2901266,12.4455201 21.304502,12.4393955 C21.3091608,12.3998516 21.3091608,12.3998516 21.283072,12.3668317 C21.2790788,12.3950584 21.2745532,12.4234181 21.270427,12.45737 M17.2715294,13.1979195 C17.2715294,13.1920612 17.2715294,13.186336 17.2712631,13.1750187 C17.2759218,13.1748856 17.2808468,13.1747524 17.2909628,13.1746193 C17.2909628,13.1803445 17.2909628,13.1856703 17.2914952,13.1971207 C17.2869696,13.1972538 17.2815123,13.197387 17.2715294,13.1979195 M20.5260993,15.2701802 C20.581072,15.0769875 20.5786761,14.9872482 20.5539184,14.7855343 C20.4932222,14.9560924 20.521973,15.0900357 20.5260993,15.2701802 M15.254444,20.459353 C15.2497853,20.4484351 15.244328,20.437251 15.2387375,20.4317921 C15.2491198,20.4260669 15.258171,20.4199422 15.2738775,20.4194096 C15.2641608,20.4309932 15.2587034,20.4421773 15.254444,20.459353 M15.3670515,24.3374521 C15.3902119,24.2805994 15.5018877,23.9398827 15.5970584,23.9872822 C15.5760276,24.1285484 15.479659,24.2833955 15.3670515,24.3374521 M22.5433177,24.7549932 C22.552502,24.7430102 22.567543,24.7371518 22.5831164,24.7312935 C22.567543,24.7258346 22.5518365,24.7206419 22.5426522,24.7153161 C22.5426522,24.7267666 22.5433177,24.7378176 22.5433177,24.7549932 M25.0338604,25.6751547 C25.0437102,25.6747552 25.0489014,25.6746221 25.053427,25.674489 C25.053427,25.6629054 25.0528945,25.6575796 25.0528945,25.6521207 C25.0430447,25.652387 25.0378536,25.6525201 25.033328,25.6526533 C25.0338604,25.6637042 25.0338604,25.6694295 25.0338604,25.6751547 M13.5970106,26.1128006 C13.6155123,26.0386391 13.6337478,25.9650102 13.6519833,25.8972397 C13.6618331,25.8971065 13.6719491,25.8968402 13.681799,25.8967071 C13.68313,25.9751292 13.6300208,26.0217297 13.6473246,26.111336 C13.6274918,26.1121348 13.6123177,26.1125343 13.5970106,26.1128006 M14.1998468,26.9605314 C14.1998468,26.9493473 14.1991812,26.9381632 14.1991812,26.9215201 C14.2042392,26.921387 14.2091642,26.9211207 14.2140891,26.9208544 C14.2143553,26.9321717 14.2143553,26.9430895 14.2148877,26.9602652 C14.2099628,26.9603983 14.2046386,26.9605314 14.1998468,26.9605314 M13.2034167,27.5532907 C13.2034167,27.5474323 13.2034167,27.5421065 13.2028843,27.5310555 C13.2083416,27.5309224 13.2130003,27.5307892 13.2177922,27.5306561 C13.2177922,27.536115 13.2184577,27.5415739 13.2184577,27.5527581 C13.2135328,27.5528912 13.2088741,27.5531575 13.2034167,27.5532907 M12.9145771,27.9728289 C12.9139116,27.9557864 12.9139116,27.9448686 12.9137785,27.9334181 C12.919502,27.9388771 12.9293519,27.944336 12.939601,27.9495286 C12.9296181,27.955387 12.9200345,27.9611122 12.9145771,27.9728289 M17.6129457,28.1676193 L17.6129457,28.1504436 C17.62213,28.1501773 17.6325123,28.1500442 17.6470208,28.1495116 C17.6470208,28.1552368 17.6476863,28.1610952 17.6476863,28.1665541 C17.6373041,28.1668204 17.6279867,28.167353 17.6129457,28.1676193 M23.6840345,28.1348657 C23.6992085,28.1345994 23.713584,28.1340669 23.7331505,28.1334011 C23.7326181,28.1163586 23.7326181,28.1051745 23.7322188,28.0939904 C23.6933519,28.1063728 23.6933519,28.1063728 23.6840345,28.1348657 M12.826328,29.2691235 C12.8442973,29.1675343 12.848956,29.1727269 12.923229,29.1538204 C12.923229,29.1651377 12.9237614,29.1760555 12.9237614,29.1932312 C12.8839628,29.1831122 12.8839628,29.1831122 12.8645294,29.2005541 C12.8742461,29.2058799 12.8850276,29.2110725 12.9002017,29.2219904 C12.8711846,29.2568742 12.8711846,29.2568742 12.826328,29.2691235 M12.2151061,29.9236618 C12.2145737,29.9123445 12.2193655,29.9008941 12.2241573,29.895302 C12.2296147,29.9006278 12.2345396,29.9118119 12.2446556,29.9227297 C12.235072,29.922996 12.2245567,29.9233955 12.2151061,29.9236618 M12.7279628,29.9305853 C12.7279628,29.9194011 12.7274304,29.9080839 12.7267648,29.8909082 C12.7316898,29.8907751 12.7368809,29.8907751 12.7418058,29.8906419 C12.7418058,29.9022255 12.7423382,29.9131433 12.7430038,29.9300527 C12.7380788,29.930319 12.7326215,29.9304521 12.7279628,29.9305853 M20.7015328,29.744183 C20.7153758,29.7049054 20.6794372,29.6551093 20.6440311,29.6395314 C20.645229,29.6729507 20.645229,29.6729507 20.7015328,29.744183 M12.367113,30.0319082 C12.4122358,29.8279309 12.5673041,29.6820045 12.6781812,29.5271575 C12.7279628,29.5087836 12.7279628,29.5087836 12.7418058,29.4854833 C12.7316898,29.4749649 12.7267648,29.4635144 12.7213075,29.4525966 C12.7605737,29.4175796 12.8043655,29.3824295 12.8484235,29.3474125 C12.8719833,29.5212992 12.5840754,29.7437836 12.4978229,29.8753303 C12.4935635,29.9207326 12.4898365,29.9658686 12.4859765,30.0167297 C12.4460447,30.017928 12.406113,30.0244521 12.367113,30.0319082 M12.1190038,30.0951518 L12.1190038,30.0783756 C12.1295191,30.0781093 12.1384372,30.0777099 12.1488195,30.0774436 C12.149485,30.0830357 12.149485,30.0884946 12.149485,30.0942198 C12.1389696,30.0946193 12.1295191,30.0948856 12.1190038,30.0951518 M12.4492392,30.1414861 C12.4487068,30.130302 12.4487068,30.1189847 12.4483075,30.1079337 C12.5167239,30.0718516 12.5167239,30.0718516 12.6341232,29.9731915 C12.5916625,30.0528119 12.5224474,30.1055371 12.4492392,30.1414861 M12.3852154,30.1661178 C12.384816,30.1602595 12.384816,30.1546674 12.384816,30.1434833 C12.3991915,30.1430839 12.4142324,30.1426844 12.4341983,30.1420187 C12.4341983,30.1473445 12.4341983,30.1532028 12.4348638,30.1645201 C12.4202222,30.1649195 12.4053143,30.1654521 12.3852154,30.1661178 M11.7986181,30.6337212 C11.7986181,30.6282623 11.7986181,30.6222708 11.7980857,30.6114861 C11.803543,30.6110867 11.8082017,30.6110867 11.8131266,30.6108204 C11.8131266,30.6165456 11.8131266,30.6220045 11.8137922,30.6331887 C11.8087341,30.6333218 11.8040754,30.633455 11.7986181,30.6337212 M11.2438331,30.9487411 C11.2438331,30.9372907 11.2431676,30.9265059 11.2431676,30.9094635 C11.2531505,30.9091972 11.2632666,30.9089309 11.2728502,30.9083983 C11.2728502,30.9198487 11.2733826,30.9310329 11.2733826,30.9479422 C11.2639321,30.9482085 11.2534167,30.9483416 11.2438331,30.9487411 M11.394642,31.0004011 C11.3891846,30.9893501 11.3838604,30.9780329 11.3790686,30.9728402 C11.383328,30.9559309 11.3931778,30.9443473 11.4027614,30.9324975 C11.4227273,30.9316986 11.4476181,30.9310329 11.4727751,30.9303671 C11.4432256,30.9540669 11.4190003,30.9771008 11.394642,31.0004011 M21.3148843,31.0757609 C21.3300584,31.0754946 21.3399082,31.074962 21.349758,31.0746958 C21.349758,31.0577864 21.3490925,31.0468686 21.3490925,31.0354181 C21.3341846,31.0356844 21.3248672,31.0359507 21.3143519,31.036217 C21.3143519,31.0532595 21.3148843,31.0644436 21.3148843,31.0757609 M10.7139389,31.6795711 C10.7139389,31.6737127 10.7139389,31.6678544 10.7134065,31.6568034 C10.7229901,31.6566703 10.7332392,31.656404 10.742956,31.6560045 C10.7434884,31.6614635 10.7434884,31.6669224 10.7434884,31.6785059 C10.7336386,31.6787722 10.7235225,31.6791717 10.7139389,31.6795711 M12.2015294,31.8759592 C12.2009969,31.8589167 12.2009969,31.8589167 12.2015294,31.8759592 M12.1136795,31.9345428 C12.1132802,31.9236249 12.1132802,31.9125739 12.1127478,31.8956646 C12.1225976,31.8955314 12.1325805,31.895132 12.1421642,31.8947326 C12.1421642,31.9056504 12.1426966,31.9173671 12.143229,31.9338771 C12.1337785,31.9341433 12.1233962,31.9342765 12.1136795,31.9345428 M12.0145157,31.9772822 C12.0145157,31.9716901 12.0145157,31.9659649 12.0138502,31.9547807 C12.0244986,31.9543813 12.0339491,31.954115 12.0443314,31.9538487 C12.0448638,31.9595739 12.0448638,31.9650329 12.0448638,31.9763501 C12.0344816,31.9767496 12.024898,31.9770159 12.0145157,31.9772822 M22.646741,32.0253473 C22.6565908,32.0253473 22.6613826,32.025081 22.6665737,32.0249479 C22.6665737,32.0133643 22.6659082,32.0023133 22.6659082,31.9907297 C22.6561915,31.9911292 22.6513997,31.9912623 22.645543,31.9913955 C22.6462085,32.0031122 22.6462085,32.0138969 22.646741,32.0253473 M22.8378809,32.3233246 C22.8553177,32.2161433 22.7782495,32.1170839 22.7220788,32.0454521 C22.7590823,32.1341263 22.7955532,32.2293246 22.8378809,32.3233246 M22.9246659,32.4330357 C22.9303894,32.4274436 22.9397068,32.4215853 22.9495567,32.4157269 C22.908427,32.3495541 22.908427,32.3495541 22.8731539,32.3391688 C22.879543,32.3839054 22.879543,32.3839054 22.9246659,32.4330357 M27.9679116,32.4487467 C27.9724372,32.4484805 27.9770959,32.4484805 27.982287,32.4484805 C27.9817546,32.4368969 27.9817546,32.431438 27.9817546,32.4255796 C27.9764304,32.4257127 27.9719048,32.4258459 27.9672461,32.425979 C27.9672461,32.4375626 27.9672461,32.4430215 27.9679116,32.4487467 M25.8668365,32.6588487 C25.8765532,32.6585824 25.8870686,32.6580499 25.8962529,32.6579167 L25.8962529,32.6411405 C25.8864031,32.6415399 25.8760208,32.6418062 25.866171,32.6422057 C25.8668365,32.6475314 25.8668365,32.6531235 25.8668365,32.6588487 M23.4617478,32.8274096 C23.47213,32.8159592 23.47213,32.8159592 23.4403177,32.7605711 C23.436857,32.7945229 23.436857,32.7945229 23.4617478,32.8274096 M11.0168877,33.335489 C11.0168877,33.3241717 11.0166215,33.3128544 11.0166215,33.3019365 C11.0212802,33.3018034 11.0263382,33.3016703 11.03113,33.3015371 C11.0317956,33.3123218 11.0317956,33.3236391 11.0321949,33.3349564 C11.02727,33.3350895 11.0218126,33.3352227 11.0168877,33.335489 M23.5856693,33.0095513 C23.5955191,33.009285 23.6059014,33.0091518 23.6152188,33.0088856 C23.5995123,32.9356561 23.5144577,32.9274011 23.5127273,32.8425881 C23.5023451,32.8429875 23.4924952,32.8432538 23.4831778,32.8436533 C23.5040754,32.9106249 23.5398809,32.9545626 23.5856693,33.0095513 M23.742601,33.3252368 C23.7575089,33.3193785 23.7772085,33.3132538 23.7970413,33.3067297 C23.7761437,33.2678516 23.7604372,33.2348317 23.7448638,33.2011462 C23.735014,33.2012793 23.7246317,33.2015456 23.7154474,33.2020782 C23.7111881,33.2532057 23.7111881,33.2532057 23.742601,33.3252368 M23.6349184,33.8180045 C23.6928195,33.5236221 23.3291744,33.3155173 23.176502,33.1681263 C23.2430549,33.0255286 22.9234679,32.7821405 22.8515908,32.6942652 C22.8211096,32.4362312 22.6595191,32.3345088 22.4390959,32.29603 C22.4743689,32.5315626 22.8869969,32.9122227 23.0306181,33.0885059 C23.2742017,33.3112567 23.4686693,33.5190952 23.6349184,33.8180045 M28.6085498,33.6836618 C28.6189321,33.6833955 28.6237239,33.6831292 28.6282495,33.6828629 L28.6282495,33.6438516 C28.6178672,33.6439847 28.6126761,33.6441178 28.6078843,33.644251 C28.6078843,33.6611603 28.6085498,33.6723445 28.6085498,33.6836618 M28.8944611,33.770472 C28.8939287,33.7595541 28.8939287,33.7482368 28.8991198,33.7425116 C28.8840788,33.7430442 28.8840788,33.7430442 28.8944611,33.770472 M28.5812631,33.7799252 C28.5859218,33.7797921 28.591113,33.7797921 28.5963041,33.7796589 C28.5959048,33.7683416 28.5959048,33.7626164 28.5959048,33.7571575 C28.5907137,33.7572907 28.5853894,33.7574238 28.5807307,33.7575569 C28.5807307,33.7688742 28.5807307,33.7745994 28.5812631,33.7799252 M9.61342014,34.3903926 C9.6677273,34.3604351 9.6677273,34.3604351 9.71098669,34.3033161 C9.83038259,34.2997212 9.9222256,34.3697552 9.94791502,34.1946703 C9.97693208,34.1597864 10.0055498,34.1254351 10.0347,34.0908176 C10.2949218,33.9310442 10.3846352,33.7486363 10.5472904,33.4731603 C10.8736659,33.3784946 11.1081983,33.1918261 11.3194372,32.8705484 C11.4414952,32.7656306 11.4602631,32.7198289 11.5676795,32.6320867 C11.6202563,32.5519337 11.6947956,32.3018884 11.7887683,32.2989592 C11.788502,32.2768572 11.7927614,32.2599479 11.7974201,32.2427722 C11.8074031,32.2479649 11.8175191,32.2534238 11.8276352,32.2588827 C11.8417444,32.2301235 11.8417444,32.2301235 11.8260379,32.1913785 C11.8742222,32.1224096 12.0431334,32.1062992 12.0406044,31.9989847 C12.1195362,31.9798119 12.1195362,31.9798119 12.1687853,31.9386703 C12.1682529,31.9220272 12.1677205,31.9049847 12.1677205,31.8884748 C12.177171,31.8936674 12.1924782,31.8988601 12.2069867,31.9037864 C12.4367273,31.7340272 12.7012085,31.5514861 12.9631608,31.4646759 C12.9680857,31.4476334 12.9722119,31.4307241 12.9771369,31.413149 C13.0165362,31.3954408 13.0559355,31.3829252 13.1005259,31.3706759 C13.2835464,31.1232935 13.4873314,30.8974805 13.7112154,30.6936363 C13.9752973,30.494319 14.2449696,30.3342793 14.3766113,30.2235031 C14.5786659,30.1219139 14.8521983,29.8998289 15.0810072,29.8927722 C15.0804747,29.8761292 15.0799423,29.8589535 15.0848672,29.841911 C15.1490242,29.8231377 15.1490242,29.8231377 15.2717478,29.7463133 C15.6176898,29.6460555 15.9628331,29.5227637 16.3138331,29.4336901 C16.7998024,29.3512737 17.2518297,29.3094663 17.7443212,29.2945541 C17.8907375,29.3800329 18.7515328,29.3648544 18.7572563,29.6119705 C18.9337546,29.505455 19.1294201,29.7811972 19.3180311,29.7528374 C19.4084099,29.8006363 19.5045123,29.8480357 19.5994167,29.8958346 C20.2939628,29.981979 20.6545464,30.6962992 21.2640379,30.998404 C21.1917614,30.9107949 21.002485,30.6856476 20.893072,30.6889762 C20.8873485,30.6725994 20.8820242,30.6559564 20.8768331,30.6445059 C20.8068195,30.6299932 20.7703485,30.5525031 20.7096522,30.5089649 C20.8675157,30.4706193 21.0505362,30.600302 21.0834133,30.7733898 C21.191229,30.8881603 21.32713,30.9519365 21.457973,31.0209054 C21.4648945,31.0653756 21.4706181,31.1106448 21.4758092,31.1549819 C21.5575362,31.2146306 21.5575362,31.2146306 21.8196215,31.3472425 C21.9620447,31.4777241 22.0518911,31.6947496 22.1853962,31.8598487 C22.5200242,32.1359904 22.9673928,32.5500697 23.0079901,32.5600555 C22.9564782,32.285911 22.8748843,31.9963218 22.6474065,31.8341518 C22.5438502,31.6630612 22.2636625,31.1876023 22.0934201,31.1477921 C21.8417171,30.6149479 21.1765874,30.0618657 20.7743416,29.6802737 C20.326973,29.2945541 20.326973,29.2945541 20.2666761,29.2680584 C20.0433246,29.0949705 19.7707239,28.9345314 19.6896625,28.864098 C19.2132768,28.7040584 18.7989184,28.4236561 18.2889901,28.3437694 C17.8669116,28.1768062 17.4096932,28.1905201 16.9609935,28.1761405 C16.9416932,28.1826646 16.9217273,28.1886561 16.9069526,28.2001065 C16.667229,28.1628261 16.3706693,28.2673445 16.1550379,28.1947807 C16.1557034,28.2063643 16.1557034,28.2174153 16.1618263,28.2343246 C16.1072529,28.2637496 16.041898,28.2495031 15.9871915,28.2453756 C15.8165498,28.3681348 15.6051778,28.2849195 15.4284133,28.391302 C15.4127068,28.3580159 15.4127068,28.3580159 15.3725089,28.3371122 C15.3481505,28.3656051 15.3493485,28.4108742 15.319799,28.4339082 C15.2998331,28.429115 15.2798672,28.4241887 15.2648263,28.4191292 C15.2113177,28.4825059 15.0778126,28.4979507 14.9979491,28.5003473 C14.9934235,28.5113983 14.9884986,28.5232482 14.9835737,28.5344323 C14.2409765,28.6750329 13.4117273,29.4091915 12.8058297,29.8775938 C12.7913212,29.8726674 12.7762802,29.8669422 12.7612392,29.8674748 C12.8086249,29.7761377 12.8419014,29.7075683 12.9100515,29.6435258 C12.9049935,29.4358204 13.2748945,28.8619677 13.4193143,28.6719705 C13.4187819,28.6494691 13.4183826,28.6269677 13.4178502,28.6100584 C13.4468672,28.5808997 13.4813416,28.5518742 13.5156829,28.5284408 C13.5054338,28.5175229 13.4999765,28.5117977 13.4953177,28.506472 C13.5331198,28.4151348 13.581171,28.346166 13.6439969,28.2710725 C13.6161778,28.1428544 13.8094474,27.9178402 13.8614918,27.8036023 C13.8648195,27.7358317 13.8681471,27.6684606 13.8724065,27.6065484 C14.0517,27.4321292 14.1165225,27.2049847 14.2709253,27.0203133 C14.3499901,26.7982283 14.4599355,26.5982453 14.5749389,26.3926703 C14.6043553,26.1835003 14.674502,25.9844493 14.8257102,25.8556986 C15.1673928,25.3560074 15.3042256,24.6318346 15.6457751,24.1431943 C15.7434747,23.8478799 15.9053314,23.319962 16.0887512,23.1005399 C16.1730072,22.8562198 16.2462154,22.6008487 16.3701369,22.3772992 C16.4846078,21.9688119 16.6597751,21.5812283 16.7896863,21.1779337 C16.9044235,20.9831433 16.9106795,20.6116703 17.0507068,20.4440414 C17.2403826,19.83637 17.4781096,19.1653218 17.6077546,18.5427382 C17.6452904,18.4516674 17.6881505,18.3604635 17.7304782,18.2745853 C17.7258195,18.2634011 17.7204952,18.2579422 17.7153041,18.2527496 C17.8340345,17.7934011 18.0267717,17.326064 18.115287,16.8565966 C18.1766488,16.7142652 18.3301198,16.2760867 18.3265259,16.1301603 C18.4817273,15.5460555 18.7062768,14.937319 18.8116966,14.3433615 C18.863741,14.2239309 18.9539867,13.8386108 18.9684952,13.8267609 C19.4443485,12.0404946 19.8372768,10.1551688 19.9814304,8.29447479 C20.1597922,7.20322266 20.3026147,6.09639263 20.5710891,5.03043796 C20.5973109,4.87239547 20.6232666,4.28655977 20.7153758,4.17671558 C20.7499833,3.14071841 20.7598331,2.0997949 20.7598331,1.06472975 C20.7193689,0.604715581 20.5741505,0.136579603 20.1330379,0.00343512748 C19.7198775,-0.0176016997 19.5496352,0.162010198 19.2671846,0.429231161 C19.224857,0.53747762 19.0842973,0.896301983 18.9900584,0.898831728 C18.994584,0.915607932 19.0004406,0.937976204 19.0106898,0.960211331 C19.0015055,0.966069688 18.9915225,0.97206119 18.9818058,0.983644759 C18.9251027,1.55350312 18.8642734,2.12908669 18.7885362,2.70533598 C18.7525976,2.85259377 18.6682085,3.0688204 18.6716693,3.22087139 C18.7010857,3.20289688 18.7010857,3.20289688 18.7439457,3.10610085 C18.7635123,3.10543513 18.7833451,3.10490255 18.8081027,3.10969575 C18.8296659,3.15403286 18.8504304,3.20409518 18.8718604,3.25402436 C18.8862358,3.86675524 18.8416454,4.50385156 18.6113724,5.06771841 C18.5823553,5.10233598 18.5112768,5.25651728 18.5024918,5.31869575 C18.2495908,5.78177224 18.052328,6.26615184 18.0060072,6.81310935 C17.883816,6.90684306 17.8050174,8.84422833 17.8062154,8.88377224 C17.8086113,8.99614618 17.7657512,9.91431048 17.716502,9.94946062 C17.7043894,10.051183 17.5804679,11.0957014 17.4821027,11.1718601 C17.4791744,11.2674578 17.2765874,12.3537836 17.2788502,12.4268799 C17.1312358,12.7295173 17.0573621,13.1925938 17.005584,13.5206618 C16.8716795,13.9579082 16.7982051,14.4325683 16.6846659,14.8636901 C16.5839048,15.6379252 16.356427,16.4604918 16.1675498,17.2142227 C16.1425259,17.4227269 16.0429628,17.6228431 16.0480208,17.8309479 C15.9881232,18.0351915 15.8234713,18.850302 15.7547887,18.8914436 C15.7609116,18.9307212 15.7609116,18.9307212 15.4387956,20.0545938 C15.4193621,20.0551263 15.3993962,20.0559252 15.3794304,20.0617836 C15.4005942,20.0949365 15.4005942,20.0949365 15.4031232,20.2075768 C15.2729457,20.3914493 15.2653587,20.9148402 15.0873962,20.9706278 C15.0880618,20.9820782 15.0880618,20.9932623 15.0885942,21.0043133 C15.098444,20.9985881 15.1080276,20.9928629 15.1230686,20.9923303 C15.1291915,21.0369337 15.1291915,21.0369337 15.0364167,21.3323813 C15.0055362,21.5134578 14.9276693,22.1906306 14.8589867,22.2433558 C14.8177239,22.5876674 14.7065805,23.3670952 14.4932119,23.6216674 C14.4849594,23.6725286 14.3911198,23.9175144 14.3420038,23.9468062 C14.0276078,24.5301122 13.8195635,25.2115456 13.6611676,25.8687467 C13.6763416,25.8683473 13.6913826,25.8679479 13.7112154,25.8674153 C13.714543,25.810962 13.8368672,25.5147156 13.8690788,25.3956844 C13.9871437,25.1388487 14.1089355,24.8031915 14.1616454,24.5259847 C14.1961198,24.5081433 14.1961198,24.5081433 14.2198126,24.4512907 C14.3141846,24.6507411 14.2140891,25.0195513 14.1986488,25.2337807 C14.0861744,25.3328402 13.9295089,25.4107297 13.9078126,25.5799564 C13.7700481,25.8202822 13.7969355,26.1404946 13.6887205,26.3853473 C13.6687546,26.386013 13.6487887,26.3920045 13.6288229,26.3983955 C13.6337478,26.386945 13.6386727,26.3756278 13.6482563,26.3695031 C13.4572495,26.2912142 13.4279662,27.1526589 13.4016113,27.2943246 C13.2233826,27.5584833 13.0459526,27.8229082 12.8731812,28.0922595 C12.837642,28.273336 12.7524543,28.4501518 12.7363485,28.6305626 C12.6743212,28.7398742 12.6743212,28.7398742 12.6562188,28.8075116 C12.6616761,28.8186958 12.6668672,28.8296136 12.6772495,28.8461235 C12.6303962,28.9714125 12.583543,29.0969677 12.5417478,29.227183 C12.5268399,29.2277156 12.511799,29.2338402 12.4972904,29.2402312 C12.5780857,29.4906759 12.2390652,29.8947694 12.246386,30.1926136 C12.256502,30.1982057 12.2659526,30.2032652 12.281659,30.2137836 C12.3060174,30.1966079 12.3302427,30.1844918 12.3551334,30.1723756 C12.3603246,30.1778346 12.3652495,30.1834266 12.3753655,30.1888856 C12.2651539,30.3609082 12.1188706,30.4607666 11.934386,30.4664918 C11.9294611,30.4835343 11.9301266,30.5004436 11.9305259,30.5174861 C11.9451676,30.5170867 11.9602085,30.5166873 11.9751164,30.5214805 C11.923072,30.624268 11.8050072,30.6899082 11.7011846,30.6928374 C11.706642,30.7325144 11.706642,30.7325144 11.6918672,30.7550159 C11.6822836,30.7444975 11.6721676,30.7334465 11.6617853,30.7279875 C11.7857068,30.5048374 11.7686693,30.1958091 11.9631369,30.0099394 C11.9937512,30.0315088 11.9937512,30.0315088 12.0431334,30.0244521 C11.9763143,29.9363105 12.1687853,29.8686731 12.2177683,29.839115 C12.2608945,29.5509904 12.3540686,29.2835031 12.347014,28.9746079 C12.3121403,28.9754068 12.2770003,28.9767382 12.2471846,28.9772708 C12.1143451,29.2402312 11.9812392,29.5086504 11.8530584,29.7772028 C11.7835771,29.9932963 11.4840891,30.3679649 11.489014,30.569945 C11.3951744,30.826115 11.2470276,31.2974465 10.9805498,31.3787977 C10.8193587,31.7212453 10.5274577,32.0057751 10.3363177,32.326387 C10.0729014,32.576166 9.84781945,33.3256363 10.3232734,33.4631745 C10.3146215,33.5196278 10.3061027,33.576081 10.302642,33.6379932 C10.0152666,33.8998884 10.0152666,33.8998884 9.82146451,34.1086589 C9.76902082,34.2170385 9.68077167,34.2760215 9.61342014,34.3903926 M23.9642222,34.2577807 C23.9735396,34.2408714 23.987915,34.2236958 24.0030891,34.2117127 C23.9827239,34.2067864 23.9676829,34.2071858 23.952642,34.2075853 C23.9533075,34.2246278 23.9584986,34.2412708 23.9642222,34.2577807 M24.4555157,34.8617241 C24.4608399,34.8505399 24.4705567,34.8445484 24.4805396,34.8384238 C24.4793416,34.7766448 24.4776113,34.7204578 24.4764133,34.664404 C24.3526249,34.4766703 24.3438399,34.3194266 24.1708024,34.1617836 C24.1429833,34.2636391 24.169072,34.2912 24.2350925,34.3396646 C24.2888672,34.5067609 24.3438399,34.7305768 24.4555157,34.8617241 M29.1659969,37.4525824 C29.0762836,37.4271518 28.9905635,37.4018544 28.9061744,37.3818827 C28.4320515,37.1261122 28.0771915,36.6361405 27.7966044,36.1437722 C27.6448638,36.0473756 27.4313621,35.6432822 27.3480379,35.4994861 C27.3043792,35.456081 27.0614611,35.2213473 27.1273485,35.2193501 C27.1221573,34.9914068 26.2881164,33.4706306 26.1325157,33.1400329 C26.0247,33.0252623 26.0542495,32.7935909 25.9224747,32.6909365 C25.9147546,32.3873671 25.5177,31.7750357 25.3811334,31.4810527 C25.3487887,31.3805286 25.3221676,31.2861292 25.2556147,31.2148969 C25.0663382,30.804013 24.8381949,30.3895343 24.663427,29.9781178 C24.4874611,29.6911915 24.3299969,29.3584635 24.2079389,29.0359875 C23.7441983,28.1557694 23.387741,27.1874096 23.0809321,26.2179847 C23.0202358,26.1747127 22.9633997,25.8618232 22.9008399,25.7680895 C22.9056317,25.745455 22.9101573,25.7281462 22.9188092,25.7109705 C22.7284679,25.2048884 22.5907034,24.6633898 22.4199287,24.1509167 C22.3186352,23.6762567 22.1179116,23.1985343 21.9927922,22.7298657 C21.9777512,22.730132 21.9627102,22.7305314 21.9475362,22.7311972 C21.9475362,22.7140215 21.9470038,22.7029705 21.9470038,22.6915201 C21.9564543,22.6856618 21.9713621,22.6798034 21.9864031,22.679404 C21.797659,22.0549564 21.6079833,21.4081405 21.457973,20.7715768 C21.3485601,20.5327156 21.232758,20.0696391 21.2159867,19.8057467 C21.1847068,19.7334493 20.9988911,18.8447099 20.9781266,18.8003728 C20.7656898,17.6197807 20.4733894,16.4080329 20.4443724,15.1938884 C20.4294645,15.1715201 20.4294645,15.1715201 20.3333621,13.2285428 C20.4085669,13.0460017 20.3610481,12.7323133 20.3316317,12.5420499 C20.3333621,12.1933445 20.2574918,11.5149734 20.4190823,11.2007524 C20.3096693,10.7878714 20.3929935,10.3068204 20.4224099,9.88421983 C20.4160208,9.8113898 20.4160208,9.8113898 20.5209082,8.54798187 C20.58227,8.41656827 20.6846283,8.13217167 20.8229253,8.08876657 C20.8450208,8.3750272 20.8721744,8.66102153 20.8977307,8.94728215 C20.9127717,8.94674958 20.9278126,8.946217 20.9427205,8.95154278 C20.964816,9.00147195 20.9851812,9.05140113 21.0058126,9.10718867 C20.9762631,9.10239547 20.9468468,9.09760227 20.9167648,9.0932085 C20.9566966,9.50795354 21.0412188,9.92735864 21.0602529,10.3430357 C21.0180584,10.6310272 20.9594918,10.9083671 20.9468468,11.2015513 C21.1992154,11.9756533 21.1992154,11.9756533 21.2009457,12.0318402 C21.1563553,12.0559394 21.1124304,12.0797722 21.0678399,12.103472 C21.1216147,12.4898572 21.3646659,12.8819677 21.1650072,13.2648912 C21.1720618,13.5628686 21.298113,13.8459337 21.473014,14.0656221 C21.4776727,14.0598969 21.4880549,14.0596306 21.4973724,14.0593643 C21.4412017,13.5546136 21.3029048,12.9906136 21.3005089,12.4790725 C21.3317887,12.5284691 21.3502904,12.6742623 21.3646659,12.685047 C21.4810003,13.3620867 21.5436932,13.9114408 21.5649901,13.9557779 C21.5713792,14.4450839 21.5784338,14.9455739 21.6790618,15.4210329 C21.9487341,16.2898006 22.3181027,17.1508459 22.4586625,18.0634181 C22.53227,18.2017552 22.5402563,18.7754748 22.6565908,18.8560272 C23.2083143,21.106302 24.1743962,23.2430045 24.9082085,25.4145909 C24.9800857,25.7107042 25.1410106,25.9809875 25.2416386,26.2648516 C25.5871812,26.9572028 25.7897683,27.7616618 26.2186352,28.4008884 C26.228485,28.3893048 26.2378024,28.3778544 26.2475191,28.371996 C26.2533758,28.5966108 26.5502017,28.9815314 26.6649389,29.1976249 C26.6955532,29.213336 26.6955532,29.213336 26.8825669,29.5621745 C26.8981403,29.5616419 26.9178399,29.5609762 26.9375396,29.5604436 C26.9437956,29.593996 26.9437956,29.593996 26.924229,29.6226221 C27.0545396,29.860285 27.2096078,30.0974153 27.3097034,30.3481263 C27.3247444,30.3474606 27.3397853,30.346928 27.3548263,30.3465286 C27.3589526,30.5262737 27.5672631,30.9307666 27.6465942,31.1086476 C27.7600003,31.4986278 27.8393314,31.8956646 27.8695464,32.3106759 C27.9452836,32.5786958 27.9452836,32.5786958 28.0089082,32.7398006 C28.0194235,32.7453926 28.0298058,32.7504521 28.0441812,32.7557779 C28.0483075,32.9357892 28.2178843,33.3747666 28.3736181,33.4377439 C28.3643007,33.4380102 28.3544509,33.4440017 28.3447341,33.4497269 C28.3568468,33.5730187 28.6536727,33.8904351 28.7051846,33.9564748 C28.7400584,33.9608686 28.7751983,33.9653955 28.8094065,33.9697892 C28.8071437,33.8799167 28.7549662,33.7634153 28.7532358,33.6904521 C28.7782597,33.6896533 28.8023519,33.6891207 28.8280413,33.6939139 C29.0913246,34.9993955 30.2048877,35.5514125 29.787601,37.0118742 C29.7106659,37.1210527 29.6728638,37.2067977 29.5959287,37.2989337 C29.4380652,37.3768232 29.3349082,37.4362057 29.1659969,37.4525824" id="Fill-3"></path>
                <path d="M0.954435154,46.6908518 C0.933404437,46.5446592 0.932738908,46.3946054 0.932073379,46.2494779 C0.93140785,46.1231238 0.930875427,46.0038263 0.915834471,45.9215431 L0.912506826,45.8954467 C0.796704778,44.3845232 0.788984642,42.8550926 0.889213311,41.3497612 C0.888680887,41.0184977 0.925817406,40.6375714 0.958295222,40.3418575 L1.45917235,40.3971125 C1.42775939,40.6821748 1.39195392,41.0489878 1.39301877,41.356951 L1.39235324,41.3746592 C1.29345563,42.8548263 1.30077645,44.3588263 1.41378328,45.8447187 C1.43454778,45.9672116 1.4350802,46.1032853 1.43587884,46.2470813 C1.43641126,46.3750331 1.43707679,46.5073788 1.45318259,46.6189538 L0.954435154,46.6908518 Z" id="Fill-5"></path>
                <path d="M2.25338805,43.9032592 L2.12108089,43.4170156 C2.95898191,43.1886728 3.92466451,42.8807096 4.77867133,42.1107351 C4.95303993,41.9638768 5.05659625,41.8634858 5.07909113,41.6584433 L5.08095461,41.64433 C5.10025495,41.5300921 5.0967942,41.4114603 5.07203652,41.3187918 C5.0555314,41.2654008 5.0303744,41.2341119 4.97872935,41.1855142 C4.72423106,40.9748796 4.44257918,40.8601091 4.06602287,40.8135085 C3.50751092,40.7553244 2.9564529,40.7847493 2.44466109,40.8253584 C1.98398191,40.8487918 1.52849386,40.9561062 1.00392389,41.1634122 C0.879603072,41.2101459 0.76393413,41.238772 0.652125256,41.2665992 C0.52580785,41.2978881 0.406545051,41.3274462 0.293405119,41.3783074 L0.0872242321,40.9185595 C0.241493857,40.8493244 0.388575768,40.8128428 0.53086587,40.7774263 C0.633224232,40.7521289 0.729859044,40.7281629 0.8229,40.693279 C1.39592048,40.4666671 1.90212184,40.3484348 2.41191706,40.3224717 C2.9404802,40.280398 3.51949044,40.2496416 4.12325836,40.3128853 C4.60217304,40.3721346 4.97686587,40.5276473 5.30670205,40.8028569 L5.3170843,40.8120439 C5.4089273,40.8975227 5.50156894,41.0015085 5.55600922,41.179789 C5.6015314,41.3482167 5.60885222,41.5371487 5.57903652,41.7206218 C5.53071911,42.1365652 5.27741877,42.3495963 5.10930614,42.4907295 C4.17969522,43.3291402 3.14745973,43.659738 2.25338805,43.9032592" id="Fill-7"></path>
                <path d="M8.23690648,46.9954997 C8.01981092,46.9807207 7.83106689,46.8752703 7.66441843,46.7820691 C7.62515222,46.7602334 7.58615222,46.7382646 7.54701911,46.7178935 C7.08966758,46.4741059 6.63404642,46.216072 6.19333311,45.9666924 L5.85031945,45.7727008 C5.63987918,45.6500748 5.43263345,45.5323751 5.22565392,45.4149416 C4.77642184,45.1602363 4.31188259,44.8967433 3.85839113,44.6031598 C3.61573925,44.4552363 3.35125802,44.3246215 3.09556177,44.1985337 C2.87859932,44.0914856 2.65431604,43.9807093 2.4354901,43.8555535 L2.6855959,43.4181739 C2.89097816,43.5356074 3.09862321,43.6381286 3.31851399,43.7466414 C3.58419317,43.8776555 3.85879044,44.0131966 4.12659932,44.1765649 C4.57330239,44.4657547 5.03118635,44.7253864 5.47416246,44.97663 C5.68300546,45.0951286 5.89211468,45.2136272 6.10095768,45.3357207 L6.44157543,45.5281144 C6.87949352,45.7760295 7.33218635,46.0324657 7.78168464,46.2719926 C7.82294744,46.2934289 7.86660614,46.3177943 7.91026485,46.3421598 C8.0421727,46.4159218 8.16689283,46.4855564 8.27111468,46.4927462 L8.23690648,46.9954997 Z" id="Fill-9"></path>
                <path d="M6.02584608,43.3832368 C6.03809181,43.4195853 6.09506109,43.4696476 6.16440922,43.4962765 C6.25678464,43.5359535 6.35847747,43.5396816 6.48439556,43.511455 C6.87798942,43.4186533 7.15764471,43.1072283 7.37886655,42.8148431 C7.45992799,42.7085938 7.4993273,42.6219167 7.50651502,42.5344408 C7.50691433,42.5072793 7.50877782,42.479319 7.5106413,42.4509592 C7.51223857,42.4283246 7.51436826,42.3974351 7.51370273,42.3766646 C7.45753208,42.3653473 7.33161399,42.3825229 7.267457,42.3911773 L7.23391433,42.3957042 C7.05941263,42.4146108 6.91286314,42.504217 6.73117372,42.6432198 C6.43887338,42.8711632 6.20274369,43.118945 6.02584608,43.3832368 M6.30882901,46.0266873 C6.18796894,46.0266873 6.0769587,46.0125739 5.97286997,45.9844805 C5.53428635,45.8546646 5.20604744,45.5405768 5.11034437,45.1632453 C4.98429317,44.6064351 5.13909522,44.1016844 5.30707474,43.6806816 C5.36058328,43.5388827 5.42673686,43.4004125 5.50500307,43.2656703 C5.49675051,43.0880555 5.52616689,42.9302793 5.59178805,42.7903445 L5.7740099,42.8758232 C5.95383584,42.6524068 6.17066519,42.4412397 6.4233,42.2441858 C6.63626928,42.0814833 6.87306451,41.9278346 7.17401672,41.8953473 L7.19983925,41.8917524 C7.40455597,41.8641915 7.83009522,41.8064068 7.97997235,42.1738856 C8.02642628,42.2930499 8.01883925,42.4042255 8.01324881,42.4854436 C8.01191775,42.5055484 8.01032048,42.525387 8.01032048,42.5444266 L8.00978805,42.5605371 C7.99740922,42.7527977 7.92446724,42.9305456 7.78004744,43.1198771 C7.52128976,43.4615258 7.15245358,43.8716108 6.59713618,44.0026249 C6.36433413,44.0545513 6.15602355,44.0409705 5.97433413,43.9629479 C5.90352184,43.9357864 5.83803379,43.8989054 5.77999966,43.8544351 C5.77893481,43.8573643 5.77773686,43.8602935 5.77667201,43.8632227 C5.63571297,44.2165881 5.50606792,44.6297354 5.60017372,45.0456788 C5.66113618,45.285472 5.90365495,45.4385881 6.10996894,45.4995683 C6.23229317,45.532455 6.38855939,45.5312567 6.5816959,45.4945088 C7.03824881,45.3903898 7.4510099,45.1966646 7.87162423,44.8868374 C8.20678464,44.6475768 8.437457,44.4479932 8.56124539,44.1859649 L9.01673345,44.4012595 C8.82798942,44.8009592 8.47938532,45.0721745 8.16738532,45.2947921 C7.69206451,45.6448289 7.22007133,45.8658487 6.6848529,45.9876759 C6.54881877,46.0137722 6.42423174,46.0266873 6.30882901,46.0266873" id="Fill-11"></path>
                <path d="M8.51610922,45.2737153 L8.51610922,44.9227465 C8.51610922,44.8238201 8.53833788,44.7398059 8.55790444,44.6657776 C8.57001706,44.6203754 8.58039932,44.5810977 8.58319454,44.548211 C8.59184642,44.4415623 8.59690444,44.3375765 8.60209556,44.2338569 C8.60954949,44.0794093 8.61740273,43.9197691 8.63696928,43.7545368 C8.65826621,43.583313 8.68848123,43.4259363 8.71749829,43.2737521 C8.73533447,43.1802847 8.75343686,43.0857521 8.76980887,42.9864263 C8.77779522,42.9089363 8.78245392,42.8330439 8.78711263,42.7574178 C8.79523208,42.6307975 8.80335154,42.4999164 8.82518089,42.3615793 L9.32299659,42.4401346 C9.30476109,42.5551714 9.29757338,42.6688768 9.28985324,42.7891062 C9.28466212,42.8739193 9.27907167,42.9588654 9.27015358,43.0459419 L9.268157,43.0604547 C9.25085324,43.1671034 9.2314198,43.2682932 9.21225256,43.3684178 C9.1993413,43.4364547 9.18656314,43.5026275 9.17484983,43.5689334 C9.53942662,43.0171827 9.94886007,42.5630269 10.3805222,42.0838399 L10.4291058,42.0299164 C10.5775188,41.8701431 10.7344505,41.7584348 10.8863242,41.6504547 L10.935041,41.6163697 C11.0066519,41.5671062 11.1936655,41.4383555 11.3838737,41.5660411 C11.4504266,41.6061176 11.5538498,41.7013159 11.5586416,41.9075567 C11.5997713,42.2994008 11.5992389,42.6871176 11.5987065,43.0621856 C11.5984403,43.3291402 11.598041,43.6048824 11.6133481,43.8719703 L11.6137474,43.8858173 C11.6138805,43.9607776 11.6515495,44.0565085 11.6865563,44.1403895 C11.7340751,44.241313 11.8529386,44.3150751 11.9859113,44.3192025 C12.0279727,44.3181374 12.0817474,44.3193357 12.1356553,44.3206671 C12.2766143,44.3241289 12.398273,44.3270581 12.5087509,44.2891119 C12.8018498,44.195245 13.0455666,44.0370694 13.2381706,43.8175142 L13.6169898,44.1497096 C13.3634232,44.4390326 13.0438362,44.6470042 12.6671468,44.7675 C12.476273,44.8328739 12.2891263,44.8282139 12.1238089,44.8244858 C12.0765563,44.8234207 12.0293038,44.8222224 11.9820512,44.8230212 C11.6492867,44.8130354 11.3572526,44.6253017 11.2261433,44.3443669 C11.169041,44.2085595 11.1122048,44.0595708 11.1100751,43.8946048 C11.0942355,43.6150014 11.0946348,43.3336671 11.0950341,43.061653 C11.0954334,42.7576841 11.0959659,42.4451941 11.0733379,42.1365652 C10.9733754,42.2095283 10.883529,42.2811601 10.8008703,42.3702337 L10.7548157,42.4213612 C10.3101092,42.9149278 9.88976109,43.3810666 9.53157338,43.9448003 C9.43547099,44.0981827 9.37197952,44.2627493 9.3050273,44.4367691 C9.24512969,44.5921487 9.18310239,44.752721 9.09418771,44.9132932 L9.09006143,44.9228796 C9.06650171,44.9778683 9.01152901,45.1064858 8.8484744,45.1614745 L8.51610922,45.2737153 Z" id="Fill-13"></path>
                <path d="M14.7259474,41.5314368 C14.4943433,41.653264 14.2612751,41.7975926 14.1172546,42.0247371 L14.0669406,42.1018278 C13.9671113,42.2534793 13.8883126,42.3734425 13.8402614,42.5163065 C13.6692205,43.0667258 13.6197051,43.6403122 13.6909167,44.2639609 C13.7062239,44.4112187 13.8877802,44.5069496 13.9651147,44.541434 C14.0421829,44.5715246 14.1513297,44.5700601 14.2793775,44.5323802 C14.6199952,44.4217371 14.8275072,44.0832839 15.0279645,43.7557484 C15.3748382,43.1789666 15.513002,42.5467966 15.6016505,41.9419212 L15.5160635,41.9507088 C15.5123365,41.9159581 15.510473,41.8809411 15.5084765,41.8461904 C15.5051488,41.7800176 15.5019543,41.7228986 15.4847836,41.6905445 C15.4507085,41.6258363 15.4013263,41.565655 15.3419611,41.5165246 C15.3021625,41.485502 15.2856573,41.4788448 15.2817973,41.4776465 L15.2627631,41.4780459 L15.2530464,41.476315 C15.14177,41.4616691 15.0291625,41.4603377 14.8884696,41.472587 C14.8430805,41.4815076 14.7839816,41.5065388 14.7259474,41.5314368 M14.0923638,45.0657569 C13.9782922,45.0657569 13.8707427,45.0457853 13.7701147,45.0059751 C13.4276334,44.8537909 13.2198553,44.6048108 13.1900396,44.3186833 C13.1111078,43.6264652 13.1668792,42.9852414 13.3609474,42.3611932 C13.4316266,42.1508249 13.5358485,41.9925161 13.645927,41.8250204 L13.6933126,41.7525898 C13.9016232,41.4238561 14.218415,41.2282669 14.5005993,41.0806096 L14.5179031,41.0724878 C14.6054867,41.0346748 14.7049167,40.9918023 14.8144628,40.9738278 L14.8324321,40.9714312 C15.0106608,40.9553207 15.156944,40.9563858 15.3044253,40.9748929 C15.4545686,40.979553 15.5717017,41.0565105 15.6579543,41.1240147 C15.6821795,41.1441195 15.7053399,41.1650232 15.7275686,41.1865926 C15.9112546,40.1797541 15.963299,39.4180346 15.9002068,38.6672329 L15.6511659,38.6149071 C15.650101,38.6199666 15.6493024,38.6248929 15.6493024,38.6299524 C15.6493024,38.6238278 15.64877,38.6177031 15.6483706,38.6115785 C15.6455754,38.5707031 15.641316,38.5049297 15.666473,38.4293037 C15.6698007,38.4135926 15.6712648,38.3978816 15.6731283,38.38257 C15.6819133,38.3112045 15.6952239,38.2033575 15.770828,38.0985728 L15.7991795,38.0658193 C15.9014048,37.9656946 16.0896164,37.9575728 16.2019577,38.0485105 L16.2289782,38.0738079 C16.3667427,38.2238618 16.3824491,38.4014765 16.3938962,38.5312924 L16.3976232,38.5713688 C16.4740259,39.4148391 16.4158587,40.2551139 16.2035549,41.383247 C16.1878485,41.467128 16.1749372,41.5487456 16.1618928,41.6303632 C16.1476505,41.720502 16.133142,41.8105076 16.115572,41.9037088 C16.0222648,42.5850091 15.8763809,43.3228958 15.4585618,44.0172442 C15.2325481,44.3864538 14.9523604,44.8438051 14.4281898,45.0138306 C14.3103911,45.0485813 14.1984491,45.0657569 14.0923638,45.0657569" id="Fill-15"></path>
                <path d="M16.208959,40.9365074 L16.0296655,41.1293006 L16.2797713,41.0590003 C16.2661945,41.0116008 16.2414369,40.9699266 16.208959,40.9365074 Z M16.034058,41.1482071 L16.2620683,41.274428 C16.2848294,41.2326207 16.2960102,41.189615 16.2981399,41.1482071 L16.034058,41.1482071 Z M16.0120956,41.1663147 L16.0144915,41.434734 C16.0596143,41.4320711 16.1062014,41.4187567 16.1505256,41.391462 L16.0120956,41.1663147 Z M15.7492116,45.1350853 C15.7091468,45.0112609 15.6954369,44.8923629 15.6833242,44.787445 C15.6745392,44.7130173 15.6665529,44.6425839 15.6500478,44.5766773 C15.6223618,44.4535187 15.6081195,44.3458048 15.5945427,44.2416858 C15.5882867,44.1946858 15.5821638,44.1470201 15.5745768,44.0985555 C15.4873925,43.6175045 15.4996382,43.151632 15.5197372,42.7162496 C15.5294539,42.4407737 15.5488874,42.1676943 15.5693857,41.8783714 L15.5721809,41.8398926 C15.574843,41.791428 15.5893515,41.731513 15.6335427,41.6730626 C15.6447235,41.6134139 15.6500478,41.5477737 15.6557713,41.4793374 C15.6626928,41.3946575 15.6701468,41.3026547 15.6895802,41.2065244 L15.6564369,41.1498048 L15.6782662,41.1115924 L15.6479181,41.0060088 L15.7772969,40.9255895 L15.8521024,40.7883176 L16.0774505,40.8445045 C16.0857031,40.8466348 16.0938225,40.8490314 16.1016758,40.8518275 L16.4319113,40.8518275 L16.2913515,41.2475329 C16.2627338,41.3276858 16.2552799,41.4203544 16.2463618,41.5276688 C16.2369113,41.6431051 16.2262628,41.7741193 16.185,41.9095272 L16.1562491,41.9820909 C16.1377474,42.2431873 16.1207099,42.491768 16.1119249,42.7404819 C16.0924915,43.1616178 16.0815768,43.5723686 16.1591775,44.0005612 C16.168628,44.0614082 16.1754164,44.1132014 16.1822048,44.1645952 C16.1947167,44.2597935 16.2062969,44.349666 16.2267952,44.4398048 C16.2507543,44.5362014 16.2620683,44.6333969 16.2720512,44.7192751 C16.2824334,44.8080824 16.2910853,44.8846405 16.3131809,44.9526773 L16.1336212,45.0107283 L16.3275563,45.0107283 L16.3275563,45.0438813 L15.7492116,45.1350853 Z" id="Fill-17"></path>
                <path d="M16.953513,42.4177397 C17.0621273,42.467802 17.2379601,42.435581 17.395158,42.4010966 C17.6485915,42.3390513 17.8696802,42.194989 18.0847792,41.9490711 C18.2371853,41.7703912 18.2976154,41.5216773 18.2667348,41.1925442 C17.6611034,41.0896235 17.1944345,41.6831816 17.0618611,41.8738445 C16.9782706,41.9928756 16.9063935,42.1174989 16.845298,42.2510428 C16.868059,42.282598 16.8884242,42.3158841 16.908257,42.348904 C16.9221,42.3718048 16.9423321,42.4057567 16.953513,42.4177397 M17.1091137,44.7051618 C16.6333935,44.7051618 16.2680181,44.4977227 16.1210693,44.1269153 C16.0252331,43.879666 16.0503901,43.6352127 16.0723526,43.4193856 L16.0784754,43.3586717 C16.1339805,42.6155924 16.3100795,42.066904 16.6491,41.5851873 C17.1415915,40.8755272 17.8222945,40.551853 18.4686563,40.7210796 L18.4927485,40.7286688 C18.6478167,40.7863204 18.7503082,40.9161363 18.7592263,41.0633941 C18.8225846,41.5670796 18.7240863,41.9758331 18.4659942,42.2784705 C18.1811478,42.6041419 17.8686154,42.8039918 17.5090966,42.8920003 C17.2536666,42.9481873 16.9656256,42.9950541 16.7071341,42.8579153 C16.6900966,42.8477963 16.6739908,42.8372779 16.6590829,42.8263601 C16.6219464,43.0021108 16.5959908,43.1926405 16.5802843,43.4019436 L16.573629,43.4707793 C16.5548611,43.6530541 16.5388884,43.8104309 16.5902672,43.9429096 C16.7219089,44.2756377 17.2510044,44.1965499 17.3556256,44.1772439 C17.8071205,44.0961589 18.180216,43.8021759 18.4546802,43.5551929 C18.6922741,43.3296462 18.892199,43.0725442 19.0765505,42.8288898 L19.4783969,43.1331249 C19.2814003,43.3932892 19.0667007,43.6687652 18.796629,43.9252014 C18.4673253,44.221581 18.0212877,44.569887 17.4456051,44.6730739 C17.3286051,44.6946433 17.2161307,44.7051618 17.1091137,44.7051618" id="Fill-19"></path>
                <path d="M23.6091891,45.8966584 C22.9491174,45.706528 22.3028887,45.5989473 21.6183256,45.4851088 C21.0957522,45.3981654 20.5553427,45.3082929 20.0070799,45.1780776 L19.9220253,45.1611683 C19.5486635,45.0868737 19.125387,45.0027263 18.7775816,44.6293892 L18.7250048,44.572936 L18.7130253,44.4967773 C18.6454075,44.0676527 18.911486,43.7916442 19.087585,43.6091031 L19.1335065,43.561038 C19.7923802,42.7336782 20.510486,42.1636867 21.2706532,41.5605422 C21.5050526,41.3744062 21.7477044,41.1820125 21.987428,40.9818963 C21.9994075,40.9725762 22.0111208,40.9632561 22.0229672,40.9538028 C21.6607863,41.053528 21.3049945,41.1624402 20.9173904,41.2809388 L20.836329,41.3058368 C20.3829706,41.4254006 19.9009945,41.5412363 19.383213,41.5970238 L19.3294382,41.095868 C19.8139433,41.0436754 20.2736908,40.9330323 20.6985645,40.8211909 L20.7701754,40.799089 C21.4132096,40.6024346 21.9697249,40.4321428 22.617684,40.2834204 C22.7728853,40.219511 22.9340765,40.2199105 23.0528068,40.2208425 L23.1580935,40.7017603 C22.967486,40.7896357 22.793916,40.9458142 22.61023,41.1113127 C22.5123973,41.1994544 22.4109706,41.2906584 22.3032881,41.3744062 C22.0655611,41.5729246 21.8205133,41.7673156 21.5837181,41.9553156 C20.8443154,42.5422164 20.145643,43.0964969 19.5207113,43.8833807 L19.5075338,43.8989586 L19.4502983,43.9588737 C19.3082744,44.1061314 19.2152334,44.2129133 19.2069809,44.3457915 C19.4329945,44.5501683 19.7070594,44.6046244 20.0201242,44.666936 L20.1156942,44.6859756 C20.6550389,44.8139275 21.1867966,44.9024686 21.7009843,44.9879473 C22.3694416,45.0992561 23.060527,45.2142929 23.748684,45.412545 L23.6091891,45.8966584 Z" id="Fill-21"></path>
                <path d="M22.9622549,42.4574034 C22.904487,42.4574034 22.8467191,42.4571371 22.7884188,42.4562051 L22.7953403,41.9523864 C23.5718795,41.9623722 24.3056918,41.8963326 24.9197089,41.8294941 L24.974016,42.3305167 C24.3904802,42.3940266 23.7013915,42.4574034 22.9622549,42.4574034" id="Fill-23"></path>
                <path d="M26.7847608,43.5546737 L26.8835253,43.0540504 C26.9078836,42.9314244 26.8594331,42.78177 26.7395048,42.6096142 C26.496986,42.2490589 26.2600577,41.9235207 26.0090201,41.5786765 C25.881771,41.4038578 25.7529246,41.2267756 25.6212829,41.0421042 C25.2481874,40.5084612 24.9341908,39.9929258 24.6304433,39.4942997 C24.626184,39.4873762 24.6219246,39.4803195 24.6177983,39.4732629 L24.5693478,39.4957643 C24.5364706,39.4249314 24.4957403,39.3521014 24.452614,39.2748776 C24.3826003,39.1499881 24.3103239,39.020838 24.2617403,38.8819683 L24.7132352,38.6657416 C24.8314331,38.8557388 24.9461703,39.0440051 25.0607744,39.2321382 C25.3605287,39.7239739 25.6701328,40.232719 26.032713,40.7513167 C26.1619587,40.9326595 26.2900065,41.1084102 26.4161908,41.2820306 C26.6701567,41.630736 26.909614,41.9600023 27.1553273,42.3249513 C27.1959246,42.3834017 27.2313307,42.4413195 27.2616788,42.4989711 C27.3541874,42.3296113 27.4409724,42.1591864 27.5257608,41.9920901 C27.7073171,41.6347303 27.8949962,41.2653875 28.1393785,40.9092261 C28.390416,40.5237728 28.6370611,40.1569598 28.8754536,39.8021297 C29.1054604,39.4602147 29.3357334,39.1175008 29.5769212,38.7485575 L29.6168529,38.6859796 C29.8728154,38.285481 30.0939041,37.939838 30.2783887,37.5341467 C30.2690713,37.5711609 30.2994195,37.6390646 30.3360235,37.6583705 L30.5054672,37.1834442 C30.6257949,37.2288465 30.7085867,37.3016765 30.7513137,37.3996708 C30.7944399,37.4987303 30.7909792,37.6111042 30.7409314,37.7338635 C30.5376788,38.1810958 30.2966242,38.5581609 30.0413273,38.9574612 L29.9999314,39.0221694 C29.7560816,39.3951071 29.5246106,39.7395518 29.293672,40.0833309 C29.0559451,40.4366963 28.810498,40.8020448 28.5578631,41.1894952 C28.3291874,41.5231552 28.1570816,41.8618748 27.9748597,42.2202997 C27.8245833,42.5161467 27.6692488,42.8222459 27.4802386,43.1243507 L27.4639997,43.1501807 L27.4319212,43.1813365 C27.3794775,43.232464 27.3199792,43.290515 27.2422454,43.3288606 L26.7847608,43.5546737 Z" id="Fill-25"></path>
                <path d="M30.613243,40.3244822 C30.4640314,40.3244822 30.3225399,40.3330034 30.1926287,40.3701507 C29.9600928,40.425672 29.7465911,40.5538901 29.5487959,40.6845048 C29.3480724,40.8180487 29.2314717,40.9669042 29.1104785,41.133468 C28.8927174,41.4628674 28.8314887,41.8709552 28.9298539,42.372111 C28.9560758,42.5147088 29.0949051,42.6478533 29.3547276,42.7823292 C29.560243,42.8808561 29.8263215,42.8985643 30.185441,42.8349212 C30.77683,42.7390572 31.2011713,42.3958108 31.5722703,42.0389836 L31.5863795,42.026468 C31.8825399,41.781349 32.0523829,41.5422215 32.1206662,41.2739354 C32.2002635,41.0119071 32.1989324,40.7689184 32.1200007,40.5203377 C32.0652942,40.358434 31.8543215,40.2203632 31.5710724,40.1641762 C31.4580655,40.1380799 31.3380041,40.1226351 31.2091577,40.1178419 L31.2228676,40.3244822 C31.0797788,40.3340686 30.9404171,40.3307399 30.8055809,40.3275445 C30.740359,40.3259467 30.6760689,40.3244822 30.613243,40.3244822 M29.8100826,43.3753547 C29.5529222,43.3753547 29.3278403,43.3282215 29.1299119,43.2334227 C28.9733795,43.1523377 28.5177584,42.9164057 28.4349666,42.4662442 C28.3121099,41.840332 28.3999597,41.2943065 28.6967857,40.8462754 C28.8417379,40.6461592 29.0000007,40.4444453 29.2704717,40.2645671 C29.4516287,40.144604 29.6463625,40.0261054 29.8614614,39.9452867 L29.8494819,39.9143972 C29.9172328,39.8883008 29.981656,39.8591422 30.0451474,39.8306493 C30.2268369,39.7490317 30.4143829,39.6646181 30.6545058,39.6441139 C31.039714,39.5936521 31.3776696,39.6023065 31.6770246,39.6716748 C32.1424956,39.7636776 32.4813829,40.0163858 32.5987823,40.3632272 C32.7095263,40.7121989 32.7113898,41.0626351 32.6057038,41.4096096 C32.5147925,41.7677683 32.287714,42.0982329 31.9147515,42.4087258 C31.486284,42.8198759 30.9899324,43.2151819 30.2696969,43.3316833 C30.1059768,43.3608419 29.9530382,43.3753547 29.8100826,43.3753547" id="Fill-27"></path>
                <path d="M36.193544,42.7561263 C35.9719229,42.7561263 35.7662744,42.7011377 35.5807249,42.5919592 C35.2152164,42.3710725 34.8676771,42.1077127 34.7779638,41.6700669 C34.7525406,41.5723388 34.734172,41.4760754 34.7217932,41.3810102 C34.4089945,41.7594068 34.020858,42.090404 33.5668341,42.3636164 C33.3646464,42.4767892 33.1286498,42.4899705 32.9432334,42.4022283 C32.7821754,42.3258034 32.6756908,42.1836051 32.6436123,42.0017297 C32.5636157,41.420421 32.5728,40.8658742 32.5817181,40.3295683 C32.586643,40.0411773 32.5915679,39.7430669 32.5823836,39.4502822 L33.0859229,39.4343048 C33.0956396,39.7393388 33.0905816,40.0437071 33.0855235,40.3380895 C33.0764724,40.8790555 33.0679536,41.3901972 33.1411618,41.9237071 C33.1442232,41.9398176 33.151544,41.9432793 33.1591311,41.9468742 C33.1912096,41.9621858 33.2580287,41.9591235 33.3140662,41.9278346 C33.9724075,41.5315966 34.4609058,41.0171263 34.7663836,40.397472 C34.7745031,40.3518034 34.7830218,40.3064011 34.7919399,40.2615314 L34.7981959,40.2370329 C34.8312061,40.1279875 34.858759,40.0244011 34.8861788,39.9206816 C34.9143973,39.8138997 34.9427488,39.7071178 34.9765577,39.5948771 L34.9829468,39.5766363 C35.0379195,39.4348374 35.1054041,39.3071518 35.1706259,39.1835938 C35.1931208,39.1412538 35.2152164,39.0994465 35.2363802,39.0580385 C35.2761788,38.9511235 35.3207693,38.8435428 35.372015,38.7358289 L35.8402812,38.9182368 C35.8026123,39.0404635 35.7522983,39.1529705 35.6982573,39.2605513 C35.6394246,39.4211235 35.5897761,39.5843586 35.5382642,39.753319 C35.492742,39.9027071 35.4457556,40.0572878 35.3903836,40.2153303 C35.3491208,40.3290357 35.3029331,40.4404776 35.2515543,40.5493898 C35.1987113,40.8698686 35.1766157,41.2073898 35.2669945,41.5486391 L35.2705884,41.5646164 C35.3173085,41.8018799 35.5225577,41.9680442 35.838684,42.1592397 C35.9705918,42.2368629 36.1204689,42.2661547 36.2944382,42.2464493 L36.3500765,42.7473388 C36.2971003,42.7531972 36.2449229,42.7561263 36.193544,42.7561263" id="Fill-29"></path>
                <path d="M36.5966283,43.2389748 C36.4174679,43.2389748 36.2372427,43.189445 36.1233041,43.0150258 C35.8660106,42.635564 35.8729321,42.1293487 36.1459321,41.554564 L36.6008877,41.7707907 C36.407485,42.1783459 36.3868536,42.5014875 36.539659,42.7312949 C36.6040823,42.7547283 36.8069355,42.707462 36.8848024,42.6892212 C37.4099048,42.5692581 37.855543,42.3572921 38.2597853,42.1443941 C38.2858741,42.1246887 38.3135601,42.105649 38.3416454,42.0863431 C38.3954201,42.0495952 38.4558502,42.0083204 38.4692939,41.9779635 C38.4888604,41.8730456 38.4551846,41.7520173 38.3690652,41.6179408 C38.0886113,41.261513 37.6875635,41.0632609 37.2633553,40.8535584 C37.0603689,40.7533006 36.8505942,40.6494479 36.6446795,40.5244252 C36.5980925,40.4951334 36.5513724,40.4703686 36.5046522,40.4452042 C36.310584,40.3412184 36.0689969,40.211802 35.9863382,39.9246093 C35.8493724,39.4651278 36.0407785,39.1039068 36.1967785,38.8725017 L36.2146147,38.8492014 C36.3467887,38.6950201 36.5113075,38.5032921 36.7579526,38.3656207 C36.9090276,38.2889295 37.0700857,38.2071788 37.2443212,38.1765555 C37.4659423,38.1294224 37.780072,38.0629833 38.085816,38.2003884 C38.1904372,38.2392666 38.2553928,38.317955 38.3035771,38.3761391 C38.3176863,38.3930484 38.3317956,38.4110229 38.3481676,38.4268671 L37.998898,38.7900853 C37.9686829,38.7609266 37.9413962,38.7287057 37.9154406,38.6974167 C37.9057239,38.6855669 37.8969389,38.673717 37.8873553,38.6638643 L37.8848263,38.6625329 C37.7396078,38.5943629 37.5597819,38.6245867 37.3401573,38.6711873 C37.2310106,38.6906263 37.110816,38.7514734 36.9946147,38.8104564 C36.8395464,38.8971334 36.720816,39.0330739 36.6066113,39.165819 C36.4516761,39.399887 36.4108126,39.5850909 36.4697785,39.7829436 C36.4926727,39.8624309 36.5881096,39.9182184 36.7425123,40.0009011 C36.7997478,40.0316575 36.8567171,40.062547 36.9098263,40.0958331 C37.0933792,40.2074082 37.2933041,40.3062014 37.4865737,40.4017992 C37.9463212,40.6289436 38.421642,40.8639436 38.7733075,41.3169011 L38.7850208,41.3332779 C38.9530003,41.5897142 39.0131642,41.8541391 38.9589901,42.0979266 L38.95513,42.1132382 C38.895898,42.3177482 38.7400311,42.4243969 38.6260925,42.5022864 C38.6009355,42.5195952 38.5757785,42.5365045 38.5530174,42.554479 L38.5140174,42.5800428 C38.0743689,42.8122467 37.5870686,43.0455159 37.0043314,43.1789266 C36.8958502,43.2042241 36.7466386,43.2389748 36.5966283,43.2389748" id="Fill-31"></path>
            </g>
        </g>
    </g>
</svg>